<svg xmlns="http://www.w3.org/2000/svg" width="428.876" height="76.965" viewBox="0 0 428.876 76.965">
  <g id="Group_2699" data-name="Group 2699" transform="translate(-505.562 -662.289)">
    <path id="Path_796" data-name="Path 796" d="M1007.46,2487.456v1.4h-2.136v-.193h.308a1.454,1.454,0,0,0,.924-.317,1.3,1.3,0,0,0,.481-.894Zm1.02-12.335h.192l.385,1.135-1.135,12.6h-1.039Zm-.462,12.643v.1a.857.857,0,0,0,.221.568.673.673,0,0,0,.529.26h.289v.173h-1.174v-1.1Zm.654-12.643,5.542,11.989-.442,2.02-5.466-11.853Zm10.622,0,.154,1.29-4.83,10.756q-.289.654-.443,1.107a4.764,4.764,0,0,0-.212.856h-.192l-.27-1.212Zm.231,12.643h.135v1.1h-1.174v-.173h.289a.666.666,0,0,0,.539-.26.882.882,0,0,0,.212-.568v-.1Zm-.058-12.643,1.655,13.739h-1.5l-1.058-11.66.731-2.079Zm1.078,12.335h.4a1.376,1.376,0,0,0,.5.894,1.429,1.429,0,0,0,.9.317h.308v.193h-2.117Z" transform="translate(-499.762 -1749.875)" fill="#790e01"/>
    <g id="Group_2698" data-name="Group 2698">
      <path id="Path_760" data-name="Path 760" d="M1012.153,2388.743h-.209a4.181,4.181,0,0,0-1.326-3.1,4.35,4.35,0,0,0-3.14-1.291h-.838l-.07-.7h5.582Zm0,38.658v5.094h-5.582v-.7h.907a4.233,4.233,0,0,0,3.1-1.291,4.493,4.493,0,0,0,1.361-3.106Zm4.327,5.094h-4.536v-48.847h4.536Zm18.841-46.683h-19.05v-2.164h19.05Zm-3,23.655h-16.049v-2.093h16.049Zm-16.05,17.934h.209a4.484,4.484,0,0,0,1.36,3.106,4.231,4.231,0,0,0,3.105,1.291h.907v.7h-5.583Zm19.05-45.008v2.023l-8.513-.768a26.738,26.738,0,0,0,3.245-.209q1.71-.209,3.175-.488a10.386,10.386,0,0,0,2.094-.558m-3,20.515v4.606h-4.047v-.14a3.426,3.426,0,0,0,2.372-1.081,3.347,3.347,0,0,0,.977-2.408v-.977Zm0,6.421v4.6h-.7v-1.047a3.351,3.351,0,0,0-.977-2.408,3.178,3.178,0,0,0-2.372-1.012v-.139Zm3-23.726v4.675h-.7v-1.046a3.455,3.455,0,0,0-3.419-3.419v-.209Z" transform="translate(-500.163 -1720.034)" fill="#790e01"/>
      <path id="Path_761" data-name="Path 761" d="M1066.891,2389.34h-.209a4.494,4.494,0,0,0-1.36-3.105,4.239,4.239,0,0,0-3.105-1.292h-.907v-.7h5.582Zm0,38.659v5.094h-5.582v-.7h.907a4.232,4.232,0,0,0,3.105-1.292,4.488,4.488,0,0,0,1.36-3.1Zm4.326,5.094h-4.536v-48.846h4.536Zm-.209-43.752v-5.094h5.582v.7h-.907a4.234,4.234,0,0,0-3.105,1.292,4.492,4.492,0,0,0-1.361,3.105Zm0,38.659h.209a4.486,4.486,0,0,0,1.361,3.1,4.227,4.227,0,0,0,3.105,1.292h.907v.7h-5.582Z" transform="translate(-517.779 -1720.63)" fill="#790e01"/>
      <path id="Path_762" data-name="Path 762" d="M1125.54,2389.34h-.209a4.494,4.494,0,0,0-1.361-3.105,4.239,4.239,0,0,0-3.105-1.292h-.907v-.7h5.582Zm0,38.659v5.094h-5.582v-.7h.907a4.231,4.231,0,0,0,3.105-1.292,4.488,4.488,0,0,0,1.361-3.1Zm4.327,5.094h-4.536v-48.846h4.536Zm-.209-43.752v-5.094h5.582v.7h-.907a4.235,4.235,0,0,0-3.105,1.292,4.487,4.487,0,0,0-1.36,3.105Zm0,38.659h.209a4.481,4.481,0,0,0,1.36,3.1,4.227,4.227,0,0,0,3.105,1.292h.907v.7h-5.582Z" transform="translate(-536.652 -1720.63)" fill="#790e01"/>
      <path id="Path_763" data-name="Path 763" d="M1158.057,2427.641v4.954h-5.792v-.7h1.326a4.289,4.289,0,0,0,4.257-4.257Zm-.139-44.939,3.07,3.908.07,45.985h-3.21v-41.17a74.306,74.306,0,0,0-.628-8.723Zm0,0,40.543,43.264.628,7.606-40.543-43.194Zm3.14,44.939a4.289,4.289,0,0,0,4.256,4.257h1.326v.7h-5.792v-4.954Zm29.238-43.892h5.792v4.954h-.14a4.38,4.38,0,0,0-1.291-3.036,4.125,4.125,0,0,0-3.036-1.221H1190.3Zm8.793,0v40.891q0,2.234.139,4.292t.489,4.64h-.628l-3.141-3.7V2383.75Zm5.582,0v.7h-1.256a4.154,4.154,0,0,0-3,1.221,4.3,4.3,0,0,0-1.326,3.036h-.209v-4.954Z" transform="translate(-547.049 -1720.134)" fill="#790e01"/>
      <path id="Path_764" data-name="Path 764" d="M1252.677,2382.805a22.56,22.56,0,0,1,2.407.139q1.291.141,2.512.384t2.233.489a7.73,7.73,0,0,1,1.57.524v7.745h-.628a6.491,6.491,0,0,0-2.3-5.268,8.433,8.433,0,0,0-5.583-1.919,8.331,8.331,0,0,0-6.21,2.407,7.754,7.754,0,0,0-2.373,5.617,10.016,10.016,0,0,0,.593,3.105,8.167,8.167,0,0,0,2.2,3.315l13.747,12.7a9.767,9.767,0,0,1,2.792,4.187,14.506,14.506,0,0,1,.7,4.327,12.953,12.953,0,0,1-3.524,9.42q-3.525,3.629-9.525,3.628a26.479,26.479,0,0,1-3.943-.349,19.238,19.238,0,0,1-4.4-1.222,10.549,10.549,0,0,1-3.524-2.268,15.505,15.505,0,0,1-.209-2.792,23.572,23.572,0,0,1,.279-3.524,21.886,21.886,0,0,1,.768-3.384h.628a11.629,11.629,0,0,0,.907,6.211,8.8,8.8,0,0,0,3.664,4.012,9.99,9.99,0,0,0,5.478,1.221,10.429,10.429,0,0,0,6.595-2.687,8.517,8.517,0,0,0,2.756-6.665,9.284,9.284,0,0,0-.7-3.663,7.917,7.917,0,0,0-2.024-2.826l-13.4-12.421a10.9,10.9,0,0,1-2.931-4.292,12.987,12.987,0,0,1-.838-4.361,12.224,12.224,0,0,1,1.4-5.652,11.149,11.149,0,0,1,4.152-4.431,12.542,12.542,0,0,1,6.735-1.709m8.722,2.163h-5.3V2383.5h5.3Z" transform="translate(-575.029 -1720.167)" fill="#790e01"/>
      <path id="Path_765" data-name="Path 765" d="M1283.247,2382.29a12.569,12.569,0,0,0,2.128.559q1.43.279,3.175.488a26.96,26.96,0,0,0,3.21.209l-8.513.767Zm40.4,3.35h-40.4v-2.094h40.4Zm-35.589-.209v.209a4.237,4.237,0,0,0-2.93,1.255,3.982,3.982,0,0,0-1.186,2.931v1.187l-.7.069v-5.652Zm13.328,41.938v5.094h-5.582v-.7h.906a4.232,4.232,0,0,0,3.106-1.292,4.5,4.5,0,0,0,1.361-3.1Zm4.327,5.094h-4.536v-48.637h4.536Zm-.21-5.094h.21a4.48,4.48,0,0,0,1.361,3.1,4.226,4.226,0,0,0,3.105,1.292h.907v.7h-5.582Zm18.143-45.079v2.023l-8.513-.767a26.668,26.668,0,0,0,3.245-.209q1.709-.209,3.174-.488a10.433,10.433,0,0,0,2.094-.559m0,3.141v5.652l-.7-.069v-1.187a3.927,3.927,0,0,0-1.221-2.931,4.289,4.289,0,0,0-2.9-1.255v-.209Z" transform="translate(-589.201 -1720.001)" fill="#790e01"/>
      <path id="Path_766" data-name="Path 766" d="M1355.606,2389.34h-.21a4.492,4.492,0,0,0-1.36-3.105,4.239,4.239,0,0,0-3.105-1.292h-.907v-.7h5.582Zm0,38.659v5.094h-5.582v-.7h.907a4.231,4.231,0,0,0,3.105-1.292,4.486,4.486,0,0,0,1.36-3.1Zm4.327,5.094H1355.4v-48.846h4.536Zm-.21-43.752v-5.094h5.582v.7h-.906a4.236,4.236,0,0,0-3.105,1.292,4.487,4.487,0,0,0-1.36,3.105Zm0,38.659h.21a4.481,4.481,0,0,0,1.36,3.1,4.228,4.228,0,0,0,3.105,1.292h.906v.7h-5.582Z" transform="translate(-610.691 -1720.63)" fill="#790e01"/>
      <path id="Path_767" data-name="Path 767" d="M1379.76,2382.29a12.562,12.562,0,0,0,2.128.559q1.429.279,3.175.488a26.955,26.955,0,0,0,3.21.209l-8.513.767Zm40.4,3.35h-40.4v-2.094h40.4Zm-35.588-.209v.209a4.237,4.237,0,0,0-2.931,1.255,3.983,3.983,0,0,0-1.186,2.931v1.187l-.7.069v-5.652Zm13.328,41.938v5.094h-5.582v-.7h.907a4.232,4.232,0,0,0,3.105-1.292,4.494,4.494,0,0,0,1.36-3.1Zm4.327,5.094h-4.536v-48.637h4.536Zm-.21-5.094h.21a4.482,4.482,0,0,0,1.36,3.1,4.228,4.228,0,0,0,3.105,1.292h.906v.7h-5.582Zm18.143-45.079v2.023l-8.513-.767a26.655,26.655,0,0,0,3.245-.209q1.708-.209,3.175-.488a10.445,10.445,0,0,0,2.094-.559m0,3.141v5.652l-.7-.069v-1.187a3.928,3.928,0,0,0-1.221-2.931,4.289,4.289,0,0,0-2.9-1.255v-.209Z" transform="translate(-620.26 -1720.001)" fill="#790e01"/>
      <path id="Path_768" data-name="Path 768" d="M1450.533,2384.246v4.187h-.209a3.239,3.239,0,0,0-1.082-2.513,3.772,3.772,0,0,0-2.617-.977h-1.116v-.7Zm4.326,0v30.7a20.185,20.185,0,0,0,1.849,8.862,13.8,13.8,0,0,0,12.945,8.094,15.983,15.983,0,0,0,8.165-2.023,14.207,14.207,0,0,0,5.442-5.618,17.344,17.344,0,0,0,1.954-8.409v-31.61h3.28v31.61a18.841,18.841,0,0,1-2.338,9.526,16.463,16.463,0,0,1-6.594,6.384,20.5,20.5,0,0,1-9.909,2.3,21.713,21.713,0,0,1-10.153-2.268,16.513,16.513,0,0,1-6.768-6.35,18.4,18.4,0,0,1-2.407-9.525v-31.68Zm4.814,0v.7h-1.116a3.768,3.768,0,0,0-2.617.977,3.233,3.233,0,0,0-1.081,2.513h-.14v-4.187Zm25.749,0v4.187h-.209a3.236,3.236,0,0,0-1.082-2.513,3.768,3.768,0,0,0-2.616-.977H1480.4v-.7Zm7.885,0v.7h-1.116a3.767,3.767,0,0,0-2.617.977,3.234,3.234,0,0,0-1.082,2.513h-.139v-4.187Z" transform="translate(-641.419 -1720.63)" fill="#790e01"/>
      <path id="Path_769" data-name="Path 769" d="M1522.265,2382.29a12.564,12.564,0,0,0,2.128.559q1.43.279,3.176.488a26.95,26.95,0,0,0,3.21.209l-8.513.767Zm40.4,3.35h-40.4v-2.094h40.4Zm-35.588-.209v.209a4.237,4.237,0,0,0-2.931,1.255,3.982,3.982,0,0,0-1.186,2.931v1.187l-.7.069v-5.652Zm13.328,41.938v5.094h-5.582v-.7h.907a4.232,4.232,0,0,0,3.105-1.292,4.492,4.492,0,0,0,1.361-3.1Zm4.327,5.094H1540.2v-48.637h4.536Zm-.209-5.094h.209a4.481,4.481,0,0,0,1.36,3.1,4.227,4.227,0,0,0,3.105,1.292h.907v.7h-5.582Zm18.143-45.079v2.023l-8.513-.767a26.655,26.655,0,0,0,3.245-.209q1.708-.209,3.175-.488a10.432,10.432,0,0,0,2.094-.559m0,3.141v5.652l-.7-.069v-1.187a3.928,3.928,0,0,0-1.221-2.931,4.288,4.288,0,0,0-2.9-1.255v-.209Z" transform="translate(-666.121 -1720.001)" fill="#790e01"/>
      <path id="Path_770" data-name="Path 770" d="M1594.624,2388.743h-.209a4.18,4.18,0,0,0-1.326-3.1,4.349,4.349,0,0,0-3.14-1.291h-.837l-.071-.7h5.582Zm0,38.658v5.094h-5.582v-.7h.907a4.233,4.233,0,0,0,3.1-1.291,4.494,4.494,0,0,0,1.361-3.106Zm4.327,5.094h-4.536v-48.847h4.536Zm18.841-46.683h-19.05v-2.164h19.05Zm-3,23.655h-16.049v-2.093h16.049Zm3,23.028h-19.05v-2.164h19.05Zm4.256-11.3L1618,2432.5h-11.584l2.512-2.163a13.685,13.685,0,0,0,6.036-1.151,9.9,9.9,0,0,0,3.8-3.245,25.436,25.436,0,0,0,2.582-4.745Zm-4.256-38.8v2.023l-8.513-.768a26.774,26.774,0,0,0,3.246-.209q1.707-.209,3.174-.488a10.38,10.38,0,0,0,2.094-.558m-3,20.515v4.606h-4.047v-.14a3.425,3.425,0,0,0,2.372-1.081,3.346,3.346,0,0,0,.977-2.408v-.977Zm0,6.421v4.6h-.7v-1.047a3.35,3.35,0,0,0-.977-2.408,3.178,3.178,0,0,0-2.372-1.012v-.139Zm3-23.726v5.582h-.7v-1.256a4.018,4.018,0,0,0-1.186-2.9,4.176,4.176,0,0,0-2.931-1.291v-.14Z" transform="translate(-687.61 -1720.034)" fill="#790e01"/>
      <path id="Path_797" data-name="Path 797" d="M1034.556,2476.759h-.057a1.154,1.154,0,0,0-.366-.857,1.2,1.2,0,0,0-.866-.356h-.23l-.02-.192h1.539Zm0,10.66v1.4h-1.539v-.192h.25a1.167,1.167,0,0,0,.857-.355,1.242,1.242,0,0,0,.375-.856Zm1.193,1.4h-1.25v-13.47h1.25Zm5.2-12.873h-5.253v-.6h5.253Zm-.827,6.523h-4.426v-.578h4.426Zm.827,6.35h-5.253v-.6h5.253Zm1.174-3.117-1.116,3.117h-3.194l.693-.6a3.764,3.764,0,0,0,1.664-.318,2.731,2.731,0,0,0,1.049-.895,7.07,7.07,0,0,0,.712-1.308Zm-1.174-10.7v.558l-2.348-.211a7.468,7.468,0,0,0,.9-.058c.314-.039.606-.083.875-.135a2.874,2.874,0,0,0,.577-.153m-.827,5.657v1.27H1039v-.039a.946.946,0,0,0,.655-.3.922.922,0,0,0,.269-.664v-.269Zm0,1.77v1.27h-.193v-.289a.924.924,0,0,0-.269-.664.878.878,0,0,0-.655-.279v-.039Zm.827-6.542v1.54h-.193v-.347a1.109,1.109,0,0,0-.327-.8,1.157,1.157,0,0,0-.808-.357v-.038Z" transform="translate(-508.674 -1749.839)" fill="#790e01"/>
      <path id="Path_798" data-name="Path 798" d="M1050.645,2476.922h-.058a1.156,1.156,0,0,0-.366-.856,1.2,1.2,0,0,0-.866-.355h-.23l-.02-.192h1.54Zm0,10.661v1.4h-1.54v-.192h.25a1.168,1.168,0,0,0,.857-.356,1.24,1.24,0,0,0,.375-.856Zm1.193,1.4h-1.25v-13.47h1.25Zm3.791-13.47a7.473,7.473,0,0,1,3.608.837,6.083,6.083,0,0,1,2.425,2.357,7.577,7.577,0,0,1,0,7.072,6.166,6.166,0,0,1-2.425,2.357,7.41,7.41,0,0,1-3.608.847h-4.118l-.019-.577h4.137a5.28,5.28,0,0,0,2.877-.771,5.2,5.2,0,0,0,1.905-2.154,7.993,7.993,0,0,0,0-6.466,5.181,5.181,0,0,0-1.914-2.155,5.3,5.3,0,0,0-2.867-.77H1051.3v-.577Z" transform="translate(-513.851 -1750.003)" fill="#790e01"/>
      <path id="Path_799" data-name="Path 799" d="M1072.976,2476.923h-.058a1.237,1.237,0,0,0-.375-.856,1.167,1.167,0,0,0-.856-.356h-.25v-.192h1.54Zm0,10.661v1.4h-1.54v-.192h.25a1.166,1.166,0,0,0,.856-.355,1.238,1.238,0,0,0,.375-.857Zm1.192,1.4h-1.251v-13.47h1.251Zm-.057-12.065v-1.4h1.539v.192h-.25a1.171,1.171,0,0,0-.857.356,1.243,1.243,0,0,0-.375.856Zm0,10.661h.057a1.244,1.244,0,0,0,.375.857,1.17,1.17,0,0,0,.857.355h.25v.192h-1.539Z" transform="translate(-521.037 -1750.003)" fill="#790e01"/>
      <path id="Path_800" data-name="Path 800" d="M1092.966,2483.242l-.231,3.02a5.959,5.959,0,0,1-1.26,1.472,5.825,5.825,0,0,1-1.79,1.021,6.861,6.861,0,0,1-2.357.375,7.348,7.348,0,0,1-3.561-.885,6.171,6.171,0,0,1-2.434-2.434,8.234,8.234,0,0,1-.009-7.371,6.152,6.152,0,0,1,2.434-2.443,7.434,7.434,0,0,1,3.685-.876,8.211,8.211,0,0,1,4.56,1.309l.385,2.713h-.174a4.174,4.174,0,0,0-1.731-2.569,5.347,5.347,0,0,0-7.9,2.155,8.622,8.622,0,0,0,0,6.726,5.4,5.4,0,0,0,1.905,2.252,5.268,5.268,0,0,0,2.839.846,6.242,6.242,0,0,0,2.53-.509,4.562,4.562,0,0,0,1.953-1.675,6.844,6.844,0,0,0,1-3.126Z" transform="translate(-523.941 -1749.875)" fill="#790e01"/>
      <path id="Path_801" data-name="Path 801" d="M1103,2487.456a.978.978,0,0,0-.038.654.787.787,0,0,0,.318.414.814.814,0,0,0,.451.144h.174v.193h-3.867v-.193h.173a1.8,1.8,0,0,0,.915-.278,2.061,2.061,0,0,0,.779-.933Zm4.138-12.335.173,1.347-4.83,12.334h-1.154l4.925-11.7c.141-.32.26-.6.356-.827s.18-.455.25-.674a1.771,1.771,0,0,0,.106-.481Zm2.712,9.063h-6.023v-.577h6.023Zm-2.712-9.063,5.7,13.624H1111.2l-4.445-11.8Zm3.579,12.335h1.578a1.93,1.93,0,0,0,.77.933,1.844,1.844,0,0,0,.924.278h.154v.193h-4.329v-.193h.173a.868.868,0,0,0,.655-.317.831.831,0,0,0,.076-.894" transform="translate(-530.241 -1749.875)" fill="#790e01"/>
      <path id="Path_802" data-name="Path 802" d="M1123.763,2476.922h-.058a1.241,1.241,0,0,0-.375-.856,1.17,1.17,0,0,0-.857-.355h-.25v-.192h1.539Zm0,10.661v1.4h-1.539v-.192h.25a1.168,1.168,0,0,0,.857-.356,1.238,1.238,0,0,0,.375-.856Zm1.193,1.4h-1.251v-13.47h1.251Zm-.058-12.065v-1.4h1.54v.192h-.25a1.167,1.167,0,0,0-.856.355,1.24,1.24,0,0,0-.375.856Zm5.253,12.065H1124.9v-.6h5.253Zm1.174-3.117-1.116,3.117h-3.194l.693-.6a3.772,3.772,0,0,0,1.664-.317,2.731,2.731,0,0,0,1.049-.894,7.038,7.038,0,0,0,.712-1.309Z" transform="translate(-537.382 -1750.003)" fill="#790e01"/>
      <path id="Path_803" data-name="Path 803" d="M1146.8,2476.923h-.058a1.242,1.242,0,0,0-.375-.856,1.167,1.167,0,0,0-.856-.356h-.25v-.192h1.54Zm0,10.661v1.4h-1.54v-.192h.25a1.166,1.166,0,0,0,.856-.355,1.243,1.243,0,0,0,.375-.857Zm1.193,1.4h-1.25v-13.47H1148Zm2.463-13.469a4.668,4.668,0,0,1,1.568.25,3.1,3.1,0,0,1,1.925,1.857,4.131,4.131,0,0,1,.26,1.511,3.837,3.837,0,0,1-.433,1.77,3.772,3.772,0,0,1-1.174,1.376,2.8,2.8,0,0,1-1.664.529,2.167,2.167,0,0,1,.712.549,10.143,10.143,0,0,1,.673.8q.52.751.914,1.29t.8,1.059q.4.52.693.827a8.257,8.257,0,0,0,.77.75,3.238,3.238,0,0,0,.837.52,2.56,2.56,0,0,0,1.01.192v.192h-1.059a3.964,3.964,0,0,1-1.53-.269,3.858,3.858,0,0,1-1.087-.664,7.553,7.553,0,0,1-.75-.76c-.039-.051-.145-.2-.318-.442s-.378-.536-.615-.875-.472-.677-.7-1.011-.43-.618-.6-.856-.263-.375-.288-.414a6.706,6.706,0,0,0-.808-.885,1.4,1.4,0,0,0-.962-.4v-.192c.4.012.738.012,1.02,0a6.01,6.01,0,0,0,1.1-.154,2.686,2.686,0,0,0,1.116-.557,2.612,2.612,0,0,0,.789-1.29,3.776,3.776,0,0,0,.1-.529,3.458,3.458,0,0,0,.02-.625,3.255,3.255,0,0,0-.664-2.088,2.291,2.291,0,0,0-1.722-.837c-.36-.026-.728-.036-1.106-.029s-.824.009-1.337.009a1.214,1.214,0,0,0-.048-.164c-.033-.1-.08-.241-.144-.433Zm-2.521,12.065H1148a1.156,1.156,0,0,0,.365.857,1.2,1.2,0,0,0,.866.355h.23v.192h-1.52Z" transform="translate(-544.796 -1750.003)" fill="#790e01"/>
      <path id="Path_804" data-name="Path 804" d="M1165.161,2476.759h-.058a1.154,1.154,0,0,0-.366-.857,1.2,1.2,0,0,0-.866-.356h-.23l-.02-.192h1.54Zm0,10.66v1.4h-1.54v-.192h.25a1.167,1.167,0,0,0,.857-.355,1.242,1.242,0,0,0,.375-.856Zm1.193,1.4H1165.1v-13.47h1.251Zm5.2-12.873H1166.3v-.6h5.253Zm-.827,6.523H1166.3v-.578h4.426Zm.827,6.35H1166.3v-.6h5.253Zm1.174-3.117-1.116,3.117h-3.194l.693-.6a3.764,3.764,0,0,0,1.664-.318,2.731,2.731,0,0,0,1.049-.895,7.07,7.07,0,0,0,.712-1.308Zm-1.174-10.7v.558l-2.348-.211a7.468,7.468,0,0,0,.9-.058c.314-.039.606-.083.875-.135a2.872,2.872,0,0,0,.577-.153m-.827,5.657v1.27h-1.116v-.039a.947.947,0,0,0,.655-.3.922.922,0,0,0,.269-.664v-.269Zm0,1.77v1.27h-.192v-.289a.925.925,0,0,0-.269-.664.878.878,0,0,0-.655-.279v-.039Zm.827-6.542v1.54h-.193v-.347a1.109,1.109,0,0,0-.327-.8,1.157,1.157,0,0,0-.808-.357v-.038Z" transform="translate(-550.704 -1749.839)" fill="#790e01"/>
      <path id="Path_805" data-name="Path 805" d="M1183.649,2475.121a6.078,6.078,0,0,1,.663.039q.356.039.693.106t.616.135a2.173,2.173,0,0,1,.433.144v2.136h-.173a1.79,1.79,0,0,0-.635-1.453,2.331,2.331,0,0,0-1.539-.529,2.3,2.3,0,0,0-1.713.664,2.14,2.14,0,0,0-.654,1.549,2.765,2.765,0,0,0,.164.856,2.254,2.254,0,0,0,.606.914l3.791,3.5a2.685,2.685,0,0,1,.77,1.154,4,4,0,0,1,.193,1.193,3.573,3.573,0,0,1-.972,2.6,3.493,3.493,0,0,1-2.627,1,7.229,7.229,0,0,1-1.087-.1,5.294,5.294,0,0,1-1.213-.337,2.916,2.916,0,0,1-.971-.625,4.252,4.252,0,0,1-.058-.77,6.525,6.525,0,0,1,.077-.972,5.96,5.96,0,0,1,.212-.934h.173a3.218,3.218,0,0,0,.25,1.713,2.423,2.423,0,0,0,1.011,1.106,2.751,2.751,0,0,0,1.51.337,2.878,2.878,0,0,0,1.819-.741,2.351,2.351,0,0,0,.76-1.837,2.556,2.556,0,0,0-.193-1.01,2.173,2.173,0,0,0-.557-.779l-3.695-3.425a3.008,3.008,0,0,1-.808-1.184,3.569,3.569,0,0,1-.231-1.2,3.375,3.375,0,0,1,.385-1.558,3.079,3.079,0,0,1,1.145-1.222,3.461,3.461,0,0,1,1.857-.471m2.405.6h-1.462v-.4h1.462Z" transform="translate(-555.954 -1749.875)" fill="#790e01"/>
      <path id="Path_806" data-name="Path 806" d="M1195.009,2476.759h-.058a1.154,1.154,0,0,0-.365-.857,1.2,1.2,0,0,0-.866-.356h-.231l-.02-.192h1.54Zm0,10.66v1.4h-1.54v-.192h.25a1.166,1.166,0,0,0,.856-.355,1.242,1.242,0,0,0,.375-.856Zm1.193,1.4h-1.251v-13.47h1.251Zm5.2-12.873h-5.253v-.6h5.253Zm-.827,6.523h-4.426v-.578h4.426Zm.827,6.35h-5.253v-.6h5.253Zm1.174-3.117-1.116,3.117h-3.194l.693-.6a3.765,3.765,0,0,0,1.664-.318,2.73,2.73,0,0,0,1.048-.895,7.049,7.049,0,0,0,.712-1.308Zm-1.174-10.7v.558l-2.348-.211a7.469,7.469,0,0,0,.9-.058c.314-.039.606-.083.875-.135a2.879,2.879,0,0,0,.577-.153m-.827,5.657v1.27h-1.116v-.039a.945.945,0,0,0,.654-.3.922.922,0,0,0,.269-.664v-.269Zm0,1.77v1.27h-.193v-.289a.924.924,0,0,0-.269-.664.877.877,0,0,0-.654-.279v-.039Zm.827-6.542v1.54h-.193v-.347a1.107,1.107,0,0,0-.327-.8,1.156,1.156,0,0,0-.808-.357v-.038Z" transform="translate(-560.31 -1749.839)" fill="#790e01"/>
      <path id="Path_807" data-name="Path 807" d="M1210.818,2487.456a.977.977,0,0,0-.038.654.787.787,0,0,0,.317.414.815.815,0,0,0,.452.144h.174v.193h-3.868v-.193h.173a1.8,1.8,0,0,0,.914-.278,2.06,2.06,0,0,0,.779-.933Zm4.137-12.335.173,1.347-4.83,12.334h-1.154l4.926-11.7c.141-.32.26-.6.356-.827s.18-.455.25-.674a1.768,1.768,0,0,0,.106-.481Zm2.713,9.063h-6.023v-.577h6.023Zm-2.713-9.063,5.7,13.624h-1.636l-4.445-11.8Zm3.579,12.335h1.578a1.93,1.93,0,0,0,.77.933,1.844,1.844,0,0,0,.924.278h.154v.193h-4.329v-.193h.173a.867.867,0,0,0,.654-.317.831.831,0,0,0,.077-.894" transform="translate(-564.939 -1749.875)" fill="#790e01"/>
      <path id="Path_808" data-name="Path 808" d="M1231.582,2476.923h-.058a1.242,1.242,0,0,0-.376-.856,1.166,1.166,0,0,0-.856-.356h-.25v-.192h1.54Zm0,10.661v1.4h-1.54v-.192h.25a1.166,1.166,0,0,0,.856-.355,1.243,1.243,0,0,0,.376-.857Zm1.192,1.4h-1.25v-13.47h1.25Zm2.463-13.469a4.675,4.675,0,0,1,1.569.25,3.106,3.106,0,0,1,1.924,1.857,4.131,4.131,0,0,1,.26,1.511,3.837,3.837,0,0,1-.433,1.77,3.765,3.765,0,0,1-1.173,1.376,2.8,2.8,0,0,1-1.665.529,2.165,2.165,0,0,1,.712.549,9.933,9.933,0,0,1,.673.8q.52.751.914,1.29t.8,1.059q.405.52.693.827a8.288,8.288,0,0,0,.77.75,3.257,3.257,0,0,0,.837.52,2.562,2.562,0,0,0,1.01.192v.192h-1.059a3.964,3.964,0,0,1-1.53-.269,3.874,3.874,0,0,1-1.087-.664,7.553,7.553,0,0,1-.75-.76c-.039-.051-.145-.2-.317-.442s-.379-.536-.616-.875-.472-.677-.7-1.011-.43-.618-.6-.856-.263-.375-.288-.414a6.691,6.691,0,0,0-.808-.885,1.4,1.4,0,0,0-.962-.4v-.192q.6.018,1.02,0a6.022,6.022,0,0,0,1.1-.154,2.692,2.692,0,0,0,1.116-.557,2.618,2.618,0,0,0,.789-1.29,3.7,3.7,0,0,0,.1-.529,3.458,3.458,0,0,0,.02-.625,3.255,3.255,0,0,0-.664-2.088,2.29,2.29,0,0,0-1.723-.837q-.538-.039-1.106-.029t-1.337.009a1.182,1.182,0,0,0-.048-.164l-.144-.433Zm-2.521,12.065h.058a1.156,1.156,0,0,0,.366.857,1.2,1.2,0,0,0,.866.355h.23v.192h-1.52Z" transform="translate(-572.079 -1750.003)" fill="#790e01"/>
      <path id="Path_809" data-name="Path 809" d="M1260.482,2483.242l-.231,3.02a5.973,5.973,0,0,1-1.26,1.472,5.829,5.829,0,0,1-1.79,1.021,6.861,6.861,0,0,1-2.357.375,7.348,7.348,0,0,1-3.561-.885,6.171,6.171,0,0,1-2.434-2.434,8.233,8.233,0,0,1-.01-7.371,6.151,6.151,0,0,1,2.434-2.443,7.434,7.434,0,0,1,3.685-.876,8.209,8.209,0,0,1,4.56,1.309l.385,2.713h-.174a4.172,4.172,0,0,0-1.731-2.569,5.347,5.347,0,0,0-7.9,2.155,8.622,8.622,0,0,0,0,6.726,5.4,5.4,0,0,0,1.905,2.252,5.269,5.269,0,0,0,2.839.846,6.241,6.241,0,0,0,2.53-.509,4.56,4.56,0,0,0,1.953-1.675,6.841,6.841,0,0,0,1-3.126Z" transform="translate(-577.85 -1749.875)" fill="#790e01"/>
      <path id="Path_810" data-name="Path 810" d="M1271.078,2476.923h-.058a1.24,1.24,0,0,0-.376-.856,1.167,1.167,0,0,0-.856-.356h-.25v-.192h1.54Zm0,10.661v1.4h-1.54v-.192h.25a1.167,1.167,0,0,0,.856-.355,1.241,1.241,0,0,0,.376-.857Zm1.193,1.4h-1.251v-13.47h1.251Zm8.043-6.369h-8.236v-.577h8.236Zm-8.1-5.7v-1.4h1.54v.192h-.25a1.168,1.168,0,0,0-.857.356,1.24,1.24,0,0,0-.375.856Zm0,10.661h.058a1.241,1.241,0,0,0,.375.857,1.167,1.167,0,0,0,.857.355h.25v.192h-1.54Zm7.986-10.661h-.058a1.154,1.154,0,0,0-.365-.856,1.2,1.2,0,0,0-.866-.356h-.25v-.192h1.539Zm0,10.661v1.4h-1.539v-.192h.25a1.2,1.2,0,0,0,.866-.355,1.156,1.156,0,0,0,.365-.857Zm1.193,1.4h-1.251v-13.47h1.251Zm-.058-12.065v-1.4h1.54v.192h-.25a1.168,1.168,0,0,0-.857.356,1.24,1.24,0,0,0-.375.856Zm0,10.661h.058a1.241,1.241,0,0,0,.375.857,1.167,1.167,0,0,0,.857.355h.25v.192h-1.54Z" transform="translate(-584.789 -1750.003)" fill="#790e01"/>
      <path id="Path_811" data-name="Path 811" d="M1300.676,2487.456a.977.977,0,0,0-.038.654.787.787,0,0,0,.317.414.814.814,0,0,0,.452.144h.174v.193h-3.868v-.193h.173a1.8,1.8,0,0,0,.914-.278,2.062,2.062,0,0,0,.779-.933Zm4.137-12.335.173,1.347-4.83,12.334H1299l4.925-11.7c.141-.32.261-.6.356-.827s.18-.455.25-.674a1.771,1.771,0,0,0,.106-.481Zm2.713,9.063H1301.5v-.577h6.023Zm-2.713-9.063,5.7,13.624h-1.636l-4.445-11.8Zm3.579,12.335h1.578a1.93,1.93,0,0,0,.77.933,1.844,1.844,0,0,0,.924.278h.154v.193h-4.329v-.193h.173a.868.868,0,0,0,.655-.317.831.831,0,0,0,.077-.894" transform="translate(-593.857 -1749.875)" fill="#790e01"/>
      <path id="Path_812" data-name="Path 812" d="M1321.072,2487.484v1.367h-1.6v-.193h.366a1.182,1.182,0,0,0,1.174-1.174Zm-.038-12.392.846,1.078.02,12.681h-.886V2477.5a20.5,20.5,0,0,0-.173-2.406Zm0,0,11.18,11.931.173,2.1-11.18-11.912Zm.866,12.392a1.182,1.182,0,0,0,1.173,1.174h.365v.193h-1.6v-1.367Zm8.062-12.1h1.6v1.366h-.039a1.206,1.206,0,0,0-.356-.837,1.136,1.136,0,0,0-.837-.337h-.365Zm2.425,0v11.276q0,.616.039,1.183t.135,1.28h-.174l-.866-1.02v-12.719Zm1.54,0v.192h-.347a1.146,1.146,0,0,0-.827.337,1.19,1.19,0,0,0-.365.837h-.058v-1.366Z" transform="translate(-600.86 -1749.866)" fill="#790e01"/>
      <path id="Path_813" data-name="Path 813" d="M1345.019,2476.922h-.058a1.156,1.156,0,0,0-.365-.856,1.2,1.2,0,0,0-.866-.355h-.231l-.02-.192h1.54Zm0,10.661v1.4h-1.54v-.192h.25a1.168,1.168,0,0,0,.856-.356,1.237,1.237,0,0,0,.375-.856Zm1.193,1.4h-1.251v-13.47h1.251Zm3.791-13.47a7.473,7.473,0,0,1,3.608.837,6.085,6.085,0,0,1,2.425,2.357,7.578,7.578,0,0,1,0,7.072,6.167,6.167,0,0,1-2.425,2.357,7.411,7.411,0,0,1-3.608.847h-4.118l-.019-.577H1350a5.281,5.281,0,0,0,2.877-.771,5.2,5.2,0,0,0,1.905-2.154,7.994,7.994,0,0,0,0-6.466,5.183,5.183,0,0,0-1.915-2.155,5.3,5.3,0,0,0-2.867-.77h-4.33v-.577Z" transform="translate(-608.584 -1750.003)" fill="#790e01"/>
      <path id="Path_814" data-name="Path 814" d="M1372.619,2474.979a3.439,3.439,0,0,0,.586.154q.395.077.876.134a7.2,7.2,0,0,0,.885.058l-2.347.212Zm11.141.924h-11.141v-.578h11.141Zm-9.814-.058v.058a1.165,1.165,0,0,0-.808.346,1.1,1.1,0,0,0-.327.808v.327l-.192.019v-1.559Zm3.676,11.564v1.405h-1.54v-.193h.25a1.17,1.17,0,0,0,.857-.356,1.24,1.24,0,0,0,.375-.857Zm1.193,1.405h-1.251V2475.4h1.251Zm-.058-1.405h.058a1.239,1.239,0,0,0,.375.857,1.169,1.169,0,0,0,.857.356h.25v.193h-1.539Zm5-12.43v.558l-2.347-.212a7.13,7.13,0,0,0,.895-.058c.314-.038.605-.083.875-.134a2.864,2.864,0,0,0,.577-.154m0,.866v1.559l-.193-.019v-.327a1.083,1.083,0,0,0-.336-.808,1.181,1.181,0,0,0-.8-.346v-.058Z" transform="translate(-617.962 -1749.829)" fill="#790e01"/>
      <path id="Path_815" data-name="Path 815" d="M1392.828,2476.923h-.058a1.24,1.24,0,0,0-.376-.856,1.166,1.166,0,0,0-.856-.356h-.25v-.192h1.54Zm0,10.661v1.4h-1.54v-.192h.25a1.165,1.165,0,0,0,.856-.355,1.241,1.241,0,0,0,.376-.857Zm1.193,1.4h-1.251v-13.47h1.251Zm2.463-13.469a4.666,4.666,0,0,1,1.568.25,3.106,3.106,0,0,1,1.925,1.857,4.128,4.128,0,0,1,.26,1.511,3.836,3.836,0,0,1-.433,1.77,3.766,3.766,0,0,1-1.174,1.376,2.8,2.8,0,0,1-1.664.529,2.156,2.156,0,0,1,.712.549,10.093,10.093,0,0,1,.673.8q.52.751.914,1.29t.8,1.059q.4.52.692.827a8.257,8.257,0,0,0,.77.75,3.257,3.257,0,0,0,.837.52,2.562,2.562,0,0,0,1.011.192v.192h-1.059a3.965,3.965,0,0,1-1.53-.269,3.863,3.863,0,0,1-1.087-.664,7.553,7.553,0,0,1-.75-.76c-.039-.051-.144-.2-.318-.442s-.378-.536-.615-.875-.472-.677-.7-1.011-.43-.618-.6-.856-.263-.375-.288-.414a6.683,6.683,0,0,0-.808-.885,1.4,1.4,0,0,0-.962-.4v-.192q.6.018,1.02,0a6.012,6.012,0,0,0,1.1-.154,2.686,2.686,0,0,0,1.116-.557,2.619,2.619,0,0,0,.789-1.29,3.9,3.9,0,0,0,.1-.529,3.414,3.414,0,0,0,.02-.625,3.26,3.26,0,0,0-.664-2.088,2.291,2.291,0,0,0-1.722-.837q-.54-.039-1.107-.029t-1.337.009a1.161,1.161,0,0,0-.048-.164c-.033-.1-.08-.241-.145-.433Zm-2.521,12.065h.058a1.152,1.152,0,0,0,.365.857,1.2,1.2,0,0,0,.866.355h.231v.192h-1.52Z" transform="translate(-623.97 -1750.003)" fill="#790e01"/>
      <path id="Path_816" data-name="Path 816" d="M1410.622,2487.456a.982.982,0,0,0-.039.654.8.8,0,0,0,.319.414.813.813,0,0,0,.452.144h.173v.193h-3.868v-.193h.173a1.8,1.8,0,0,0,.913-.278,2.057,2.057,0,0,0,.779-.933Zm4.138-12.335.173,1.347L1410.1,2488.8h-1.153l4.925-11.7c.141-.32.26-.6.357-.827s.18-.455.25-.674a1.771,1.771,0,0,0,.106-.481Zm2.713,9.063h-6.023v-.577h6.023Zm-2.713-9.063,5.695,13.624h-1.636l-4.444-11.8Zm3.578,12.335h1.579a1.925,1.925,0,0,0,.77.933,1.84,1.84,0,0,0,.923.278h.155v.193h-4.33v-.193h.173a.863.863,0,0,0,.654-.317.826.826,0,0,0,.077-.894" transform="translate(-629.239 -1749.875)" fill="#790e01"/>
      <path id="Path_817" data-name="Path 817" d="M1431.386,2476.923h-.058a1.241,1.241,0,0,0-.376-.856,1.166,1.166,0,0,0-.856-.356h-.25v-.192h1.54Zm0,10.661v1.4h-1.54v-.192h.25a1.165,1.165,0,0,0,.856-.355,1.242,1.242,0,0,0,.376-.857Zm1.193,1.4h-1.25v-13.47h1.25Zm-.058-12.065v-1.4h1.54v.192h-.25a1.168,1.168,0,0,0-.857.356,1.24,1.24,0,0,0-.375.856Zm0,10.661h.058a1.241,1.241,0,0,0,.375.857,1.167,1.167,0,0,0,.857.355h.25v.192h-1.54Z" transform="translate(-636.379 -1750.003)" fill="#790e01"/>
      <path id="Path_818" data-name="Path 818" d="M1440.608,2487.484v1.367h-1.6v-.193h.366a1.183,1.183,0,0,0,1.173-1.174Zm-.038-12.392.846,1.078.02,12.681h-.885V2477.5a20.512,20.512,0,0,0-.173-2.406Zm0,0,11.18,11.931.173,2.1-11.18-11.912Zm.866,12.392a1.182,1.182,0,0,0,1.173,1.174h.365v.193h-1.6v-1.367Zm8.063-12.1h1.6v1.366h-.038a1.21,1.21,0,0,0-.357-.837,1.135,1.135,0,0,0-.837-.337h-.365Zm2.425,0v11.276q0,.616.038,1.183t.135,1.28h-.173l-.865-1.02v-12.719Zm1.539,0v.192h-.346a1.146,1.146,0,0,0-.828.337,1.189,1.189,0,0,0-.365.837h-.058v-1.366Z" transform="translate(-639.329 -1749.866)" fill="#790e01"/>
      <path id="Path_819" data-name="Path 819" d="M1464.555,2476.923h-.058a1.241,1.241,0,0,0-.376-.856,1.166,1.166,0,0,0-.856-.356h-.25v-.192h1.54Zm0,10.661v1.4h-1.54v-.192h.25a1.165,1.165,0,0,0,.856-.355,1.242,1.242,0,0,0,.376-.857Zm1.193,1.4H1464.5v-13.47h1.251Zm-.058-12.065v-1.4h1.54v.192h-.25a1.167,1.167,0,0,0-.856.356,1.239,1.239,0,0,0-.375.856Zm0,10.661h.058a1.24,1.24,0,0,0,.375.857,1.167,1.167,0,0,0,.856.355h.25v.192h-1.54Z" transform="translate(-647.053 -1750.003)" fill="#790e01"/>
      <path id="Path_820" data-name="Path 820" d="M1473.778,2487.484v1.367h-1.6v-.193h.366a1.182,1.182,0,0,0,1.173-1.174Zm-.039-12.392.846,1.078.02,12.681h-.885V2477.5a20.459,20.459,0,0,0-.173-2.406Zm0,0,11.18,11.931.173,2.1-11.18-11.912Zm.866,12.392a1.183,1.183,0,0,0,1.173,1.174h.365v.193h-1.6v-1.367Zm8.063-12.1h1.6v1.366h-.038a1.211,1.211,0,0,0-.357-.837,1.134,1.134,0,0,0-.837-.337h-.365Zm2.425,0v11.276q0,.616.039,1.183t.135,1.28h-.174l-.865-1.02v-12.719Zm1.54,0v.192h-.346a1.146,1.146,0,0,0-.828.337,1.19,1.19,0,0,0-.365.837h-.058v-1.366Z" transform="translate(-650.002 -1749.866)" fill="#790e01"/>
      <path id="Path_821" data-name="Path 821" d="M1508.389,2483.472v3.175a6.435,6.435,0,0,1-3.031,2.106,7.812,7.812,0,0,1-2.549.376,7.362,7.362,0,0,1-3.6-.9,6.241,6.241,0,0,1-2.435-2.444,8.137,8.137,0,0,1,0-7.341,6.227,6.227,0,0,1,2.435-2.453,7.22,7.22,0,0,1,3.6-.875,9.569,9.569,0,0,1,1.905.173,7.628,7.628,0,0,1,1.53.471,8.471,8.471,0,0,1,1.242.664l.384,2.713h-.173a4.52,4.52,0,0,0-.952-1.877,4.329,4.329,0,0,0-1.664-1.165,6.036,6.036,0,0,0-2.271-.4,5.073,5.073,0,0,0-2.848.808,5.438,5.438,0,0,0-1.924,2.252,8.533,8.533,0,0,0,0,6.735,5.36,5.36,0,0,0,1.924,2.241,5.23,5.23,0,0,0,2.848.819,6.45,6.45,0,0,0,1.626-.2,6.524,6.524,0,0,0,1.472-.576,5.687,5.687,0,0,0,1.232-.9l.019-3.406q0-.866-.981-.866h-.308v-.193h3.771v.193h-.288q-1,0-.962.866" transform="translate(-657.636 -1749.875)" fill="#790e01"/>
      <path id="Path_822" data-name="Path 822" d="M1538.144,2483.242l-.231,3.02a5.969,5.969,0,0,1-1.261,1.472,5.818,5.818,0,0,1-1.79,1.021,6.86,6.86,0,0,1-2.356.375,7.347,7.347,0,0,1-3.561-.885,6.171,6.171,0,0,1-2.434-2.434,8.233,8.233,0,0,1-.01-7.371,6.151,6.151,0,0,1,2.434-2.443,7.434,7.434,0,0,1,3.685-.876,8.218,8.218,0,0,1,2.569.376,8.3,8.3,0,0,1,1.992.933l.385,2.713h-.173a4.176,4.176,0,0,0-1.732-2.569,5.346,5.346,0,0,0-7.9,2.155,8.613,8.613,0,0,0,0,6.726,5.387,5.387,0,0,0,1.905,2.252,5.265,5.265,0,0,0,2.838.846,6.24,6.24,0,0,0,2.53-.509,4.557,4.557,0,0,0,1.952-1.675,6.832,6.832,0,0,0,1-3.126Z" transform="translate(-667.205 -1749.875)" fill="#790e01"/>
      <path id="Path_823" data-name="Path 823" d="M1548.74,2476.759h-.058a1.153,1.153,0,0,0-.366-.857,1.2,1.2,0,0,0-.866-.356h-.231l-.019-.192h1.54Zm0,10.66v1.4h-1.54v-.192h.25a1.164,1.164,0,0,0,.856-.355,1.242,1.242,0,0,0,.376-.856Zm1.193,1.4h-1.25v-13.47h1.25Zm5.2-12.873h-5.253v-.6h5.253Zm-.828,6.523h-4.426v-.578h4.426Zm.828,6.35h-5.253v-.6h5.253Zm1.174-3.117-1.116,3.117h-3.194l.692-.6a3.764,3.764,0,0,0,1.665-.318,2.728,2.728,0,0,0,1.049-.895,7.07,7.07,0,0,0,.712-1.308Zm-1.174-10.7v.558l-2.348-.211a7.469,7.469,0,0,0,.9-.058c.314-.039.606-.083.875-.135a2.883,2.883,0,0,0,.577-.153m-.828,5.657v1.27h-1.116v-.039a.948.948,0,0,0,.655-.3.924.924,0,0,0,.269-.664v-.269Zm0,1.77v1.27h-.193v-.289a.927.927,0,0,0-.269-.664.878.878,0,0,0-.655-.279v-.039Zm.828-6.542v1.54h-.193v-.347a1.108,1.108,0,0,0-.327-.8,1.156,1.156,0,0,0-.808-.357v-.038Z" transform="translate(-674.145 -1749.839)" fill="#790e01"/>
      <path id="Path_824" data-name="Path 824" d="M1564.46,2487.484v1.367h-1.6v-.193h.365a1.182,1.182,0,0,0,1.174-1.174Zm-.039-12.392.846,1.078.02,12.681h-.886V2477.5a20.5,20.5,0,0,0-.173-2.406Zm0,0,11.18,11.931.173,2.1-11.18-11.912Zm.866,12.392a1.182,1.182,0,0,0,1.172,1.174h.366v.193h-1.6v-1.367Zm8.062-12.1h1.6v1.366h-.038a1.212,1.212,0,0,0-.357-.837,1.134,1.134,0,0,0-.837-.337h-.365Zm2.424,0v11.276q0,.616.039,1.183t.134,1.28h-.173l-.865-1.02v-12.719Zm1.54,0v.192h-.346a1.147,1.147,0,0,0-.828.337,1.187,1.187,0,0,0-.365.837h-.058v-1.366Z" transform="translate(-679.185 -1749.866)" fill="#790e01"/>
      <path id="Path_825" data-name="Path 825" d="M1586.015,2474.979a3.443,3.443,0,0,0,.587.154q.395.077.875.134a7.208,7.208,0,0,0,.885.058l-2.347.212Zm11.141.924h-11.141v-.578h11.141Zm-9.814-.058v.058a1.166,1.166,0,0,0-.808.346,1.1,1.1,0,0,0-.327.808v.327l-.193.019v-1.559Zm3.676,11.564v1.405h-1.54v-.193h.25a1.17,1.17,0,0,0,.856-.356,1.239,1.239,0,0,0,.375-.857Zm1.193,1.405h-1.25V2475.4h1.25Zm-.057-1.405h.057a1.24,1.24,0,0,0,.375.857,1.169,1.169,0,0,0,.857.356h.25v.193h-1.54Zm5-12.43v.558l-2.347-.212a7.13,7.13,0,0,0,.895-.058q.471-.057.875-.134a2.864,2.864,0,0,0,.577-.154m0,.866v1.559l-.193-.019v-.327a1.081,1.081,0,0,0-.336-.808,1.181,1.181,0,0,0-.8-.346v-.058Z" transform="translate(-686.636 -1749.829)" fill="#790e01"/>
      <path id="Path_826" data-name="Path 826" d="M1606.223,2476.923h-.058a1.24,1.24,0,0,0-.376-.856,1.166,1.166,0,0,0-.856-.356h-.25v-.192h1.54Zm0,10.661v1.4h-1.54v-.192h.25a1.165,1.165,0,0,0,.856-.355,1.241,1.241,0,0,0,.376-.857Zm1.193,1.4h-1.251v-13.47h1.251Zm2.463-13.469a4.666,4.666,0,0,1,1.568.25,3.106,3.106,0,0,1,1.925,1.857,4.131,4.131,0,0,1,.26,1.511,3.835,3.835,0,0,1-.434,1.77,3.762,3.762,0,0,1-1.174,1.376,2.8,2.8,0,0,1-1.664.529,2.155,2.155,0,0,1,.712.549,10.143,10.143,0,0,1,.673.8q.52.751.914,1.29t.8,1.059q.4.52.692.827a8.257,8.257,0,0,0,.77.75,3.257,3.257,0,0,0,.837.52,2.561,2.561,0,0,0,1.01.192v.192h-1.059a3.963,3.963,0,0,1-1.53-.269,3.862,3.862,0,0,1-1.087-.664,7.579,7.579,0,0,1-.75-.76c-.039-.051-.145-.2-.318-.442s-.378-.536-.615-.875-.472-.677-.7-1.011-.43-.618-.6-.856-.263-.375-.288-.414a6.692,6.692,0,0,0-.809-.885,1.4,1.4,0,0,0-.962-.4v-.192q.6.018,1.02,0a6.01,6.01,0,0,0,1.1-.154,2.689,2.689,0,0,0,1.116-.557,2.619,2.619,0,0,0,.789-1.29,3.894,3.894,0,0,0,.1-.529,3.436,3.436,0,0,0,.02-.625,3.259,3.259,0,0,0-.664-2.088,2.291,2.291,0,0,0-1.722-.837q-.54-.039-1.107-.029t-1.338.009a1.152,1.152,0,0,0-.048-.164c-.032-.1-.08-.241-.145-.433Zm-2.521,12.065h.058a1.153,1.153,0,0,0,.365.857,1.2,1.2,0,0,0,.866.355h.231v.192h-1.52Z" transform="translate(-692.644 -1750.003)" fill="#790e01"/>
      <path id="Path_827" data-name="Path 827" d="M1624.582,2476.759h-.058a1.153,1.153,0,0,0-.365-.857,1.2,1.2,0,0,0-.866-.356h-.231l-.019-.192h1.54Zm0,10.66v1.4h-1.54v-.192h.25a1.164,1.164,0,0,0,.856-.355,1.243,1.243,0,0,0,.375-.856Zm1.193,1.4h-1.251v-13.47h1.251Zm5.2-12.873h-5.253v-.6h5.253Zm-.827,6.523h-4.426v-.578h4.426Zm.827,6.35h-5.253v-.6h5.253Zm1.174-3.117-1.116,3.117h-3.194l.693-.6a3.764,3.764,0,0,0,1.665-.318,2.729,2.729,0,0,0,1.048-.895,7.042,7.042,0,0,0,.712-1.308Zm-1.174-10.7v.558l-2.348-.211a7.469,7.469,0,0,0,.9-.058c.314-.039.606-.083.875-.135a2.884,2.884,0,0,0,.577-.153m-.827,5.657v1.27h-1.116v-.039a.947.947,0,0,0,.654-.3.924.924,0,0,0,.269-.664v-.269Zm0,1.77v1.27h-.193v-.289a.926.926,0,0,0-.269-.664.878.878,0,0,0-.654-.279v-.039Zm.827-6.542v1.54h-.193v-.347a1.108,1.108,0,0,0-.327-.8,1.156,1.156,0,0,0-.808-.357v-.038Z" transform="translate(-698.552 -1749.839)" fill="#790e01"/>
    </g>
  </g>
</svg>
