<svg xmlns="http://www.w3.org/2000/svg" width="28.237" height="28.238" viewBox="0 0 28.237 28.238">
  <path id="Icon_simple-instagram" data-name="Icon simple-instagram" d="M14.119,0C10.283,0,9.8.018,8.3.085A10.411,10.411,0,0,0,4.871.741,6.914,6.914,0,0,0,2.37,2.37a6.889,6.889,0,0,0-1.628,2.5A10.38,10.38,0,0,0,.085,8.3C.014,9.8,0,10.283,0,14.119s.018,4.314.085,5.82a10.417,10.417,0,0,0,.657,3.427,6.924,6.924,0,0,0,1.628,2.5,6.9,6.9,0,0,0,2.5,1.628,10.424,10.424,0,0,0,3.427.657c1.506.071,1.985.085,5.82.085s4.314-.018,5.82-.085a10.448,10.448,0,0,0,3.427-.657,7.216,7.216,0,0,0,4.13-4.13,10.417,10.417,0,0,0,.657-3.427c.071-1.506.085-1.985.085-5.82S28.22,9.8,28.153,8.3A10.441,10.441,0,0,0,27.5,4.871a6.929,6.929,0,0,0-1.628-2.5,6.879,6.879,0,0,0-2.5-1.628A10.387,10.387,0,0,0,19.939.085C18.433.014,17.954,0,14.119,0Zm0,2.541c3.769,0,4.218.019,5.706.084a7.779,7.779,0,0,1,2.62.488,4.646,4.646,0,0,1,2.68,2.679,7.8,7.8,0,0,1,.486,2.62c.067,1.49.082,1.937.082,5.706s-.018,4.218-.087,5.706a7.945,7.945,0,0,1-.5,2.62,4.483,4.483,0,0,1-1.058,1.626,4.4,4.4,0,0,1-1.624,1.054,7.852,7.852,0,0,1-2.63.486c-1.5.067-1.94.082-5.717.082s-4.219-.018-5.717-.087a8.006,8.006,0,0,1-2.631-.5,4.372,4.372,0,0,1-1.622-1.058A4.287,4.287,0,0,1,3.054,22.43,8.013,8.013,0,0,1,2.56,19.8c-.053-1.482-.072-1.94-.072-5.7s.019-4.219.072-5.719a8,8,0,0,1,.494-2.628A4.185,4.185,0,0,1,4.113,4.129,4.176,4.176,0,0,1,5.736,3.072a7.814,7.814,0,0,1,2.613-.5c1.5-.053,1.941-.071,5.717-.071l.053.035Zm0,4.327a7.25,7.25,0,1,0,7.25,7.25A7.249,7.249,0,0,0,14.119,6.869Zm0,11.956a4.706,4.706,0,1,1,4.706-4.706A4.7,4.7,0,0,1,14.119,18.825ZM23.35,6.583A1.694,1.694,0,1,1,21.656,4.89,1.7,1.7,0,0,1,23.35,6.583Z" fill="#790e01"/>
</svg>
