<svg id="Group_2823" data-name="Group 2823" xmlns="http://www.w3.org/2000/svg" xmlns:xlink="http://www.w3.org/1999/xlink" width="115.133" height="111" viewBox="0 0 115.133 111">
  <defs>
    <clipPath id="clip-path">
      <rect id="Rectangle_1746" data-name="Rectangle 1746" width="115.133" height="111" fill="#e9e8dc"/>
    </clipPath>
  </defs>
  <g id="Group_2819" data-name="Group 2819" clip-path="url(#clip-path)">
    <path id="Path_944" data-name="Path 944" d="M.012,56.579C.012,47.39-.019,38.2.02,29.012.072,16.419,7.958,6.143,19.824,3.1a27.365,27.365,0,0,1,6.825-.782q27.764,0,55.529,0a25.5,25.5,0,0,1,7.678,1.051A1.56,1.56,0,0,0,91.376,3.1c5.176-3.655,10.688-4.159,16.194-1.05,5.6,3.166,8.08,8.226,7.474,14.647a14.015,14.015,0,0,1-5.49,9.866,2.024,2.024,0,0,0-.868,1.8c.029,18.8.07,37.607.007,56.41a26.1,26.1,0,0,1-23.486,26.107,27.739,27.739,0,0,1-3.06.108c-18.51.006-37.019.037-55.529-.007C14.07,110.947,3.771,102.971.778,91.1a28.8,28.8,0,0,1-.766-7.083q0-13.72,0-27.439m7.655-.014q0,13.718,0,27.436a21.157,21.157,0,0,0,.278,3.94,18.321,18.321,0,0,0,18.308,15.365c18.72.071,37.44.022,56.159.024a18.412,18.412,0,0,0,18.625-18.61c.043-13.186.012-26.372.012-39.559,0-4.721-.026-9.443.021-14.164.01-.947-.236-1.27-1.205-1.221A11.4,11.4,0,0,1,95.5,29,14.765,14.765,0,0,1,85.9,11.386c.22-.915-.01-1.229-.885-1.259-1.02-.036-2.039-.15-3.058-.15q-27.633-.015-55.266,0a19.984,19.984,0,0,0-4.931.542A18.5,18.5,0,0,0,7.677,28.874c-.04,9.23-.009,18.461-.01,27.691m92.628-48.8a7.186,7.186,0,1,0,7.223,7.176,7.168,7.168,0,0,0-7.223-7.176" transform="translate(0 0)" fill="#e9e8dc"/>
    <path id="Path_945" data-name="Path 945" d="M107.777,76.207a4.086,4.086,0,0,1-1.2,2.841Q95.526,90.1,84.459,101.151c-1.826,1.815-3.979,1.738-5.86-.122-3.116-3.082-6.223-6.172-9.285-9.308-.653-.67-.981-.7-1.665-.013-6.168,6.227-12.385,12.405-18.573,18.613a3.911,3.911,0,0,1-4.058,1.184,3.8,3.8,0,0,1-1.59-6.351q11.133-11.161,22.3-22.29c1.675-1.666,3.907-1.592,5.676.152,3.09,3.047,6.172,6.1,9.2,9.216.757.779,1.158.863,1.977.032,6.1-6.177,12.25-12.3,18.4-18.429a3.9,3.9,0,0,1,5.4-.546,3.809,3.809,0,0,1,1.41,2.919" transform="translate(-20.66 -35.399)" fill="#e9e8dc"/>
  </g>
</svg>
