<svg xmlns="http://www.w3.org/2000/svg" xmlns:xlink="http://www.w3.org/1999/xlink" width="769.05" height="141.736" viewBox="0 0 769.05 141.736">
  <defs>
    <clipPath id="clip-path">
      <rect id="Rectangle_1698" data-name="Rectangle 1698" width="108.717" height="135.085" transform="translate(868.66 2380.467)" fill="none"/>
    </clipPath>
  </defs>
  <g id="Group_2676" data-name="Group 2676" transform="translate(-6834.66 -1085.815)">
    <path id="Path_760" data-name="Path 760" d="M1014.8,2391.756h-.308a6.165,6.165,0,0,0-1.955-4.578,6.416,6.416,0,0,0-4.63-1.9h-1.235l-.1-1.029h8.231Zm0,57v7.511h-8.231v-1.029h1.338a6.239,6.239,0,0,0,4.578-1.9,6.623,6.623,0,0,0,2.007-4.579Zm6.38,7.511h-6.688v-72.025h6.688Zm27.781-68.835h-28.09v-3.19h28.09Zm-4.424,34.88h-23.665v-3.086h23.665Zm-23.666,26.444h.309a6.609,6.609,0,0,0,2.006,4.579,6.236,6.236,0,0,0,4.579,1.9h1.338v1.029h-8.232Zm28.09-66.366v2.984l-12.553-1.132a39.4,39.4,0,0,0,4.784-.309q2.522-.308,4.682-.72a15.377,15.377,0,0,0,3.087-.823m-4.424,30.25v6.791h-5.968v-.205a5.052,5.052,0,0,0,3.5-1.595,4.932,4.932,0,0,0,1.441-3.55v-1.441Zm0,9.467v6.791h-1.029v-1.544a4.94,4.94,0,0,0-1.441-3.55,4.689,4.689,0,0,0-3.5-1.492v-.2Zm4.424-34.984v6.894h-1.029v-1.543a5.095,5.095,0,0,0-5.042-5.042v-.309Z" transform="translate(5966 -1288.001)" fill="#790e01"/>
    <path id="Path_761" data-name="Path 761" d="M1069.54,2391.757h-.309a6.624,6.624,0,0,0-2.006-4.579,6.25,6.25,0,0,0-4.579-1.9h-1.337v-1.028h8.231Zm0,57v7.511h-8.231v-1.029h1.337a6.238,6.238,0,0,0,4.579-1.9,6.615,6.615,0,0,0,2.006-4.578Zm6.379,7.511h-6.688v-72.025h6.688Zm-.308-64.514v-7.511h8.231v1.028h-1.337a6.243,6.243,0,0,0-4.579,1.9,6.621,6.621,0,0,0-2.007,4.579Zm0,57h.308a6.613,6.613,0,0,0,2.007,4.578,6.232,6.232,0,0,0,4.579,1.9h1.337v1.029h-8.231Z" transform="translate(5966 -1288.001)" fill="#790e01"/>
    <path id="Path_762" data-name="Path 762" d="M1128.189,2391.757h-.309a6.624,6.624,0,0,0-2.006-4.579,6.25,6.25,0,0,0-4.579-1.9h-1.337v-1.028h8.231Zm0,57v7.511h-8.231v-1.029h1.337a6.238,6.238,0,0,0,4.579-1.9,6.616,6.616,0,0,0,2.006-4.578Zm6.38,7.511h-6.688v-72.025h6.688Zm-.309-64.514v-7.511h8.231v1.028h-1.337a6.243,6.243,0,0,0-4.579,1.9,6.616,6.616,0,0,0-2.006,4.579Zm0,57h.309a6.607,6.607,0,0,0,2.006,4.578,6.232,6.232,0,0,0,4.579,1.9h1.337v1.029h-8.231Z" transform="translate(5966 -1288.001)" fill="#790e01"/>
    <path id="Path_763" data-name="Path 763" d="M1160.805,2448.966v7.3h-8.54v-1.029h1.955a6.324,6.324,0,0,0,6.277-6.276Zm-.205-66.264,4.527,5.762.1,67.807H1160.5v-60.707a109.555,109.555,0,0,0-.926-12.862Zm0,0,59.781,63.794.926,11.216-59.781-63.691Zm4.63,66.264a6.324,6.324,0,0,0,6.276,6.276h1.955v1.029h-8.54v-7.3Zm43.112-64.72h8.54v7.3h-.206a6.461,6.461,0,0,0-1.9-4.476,6.083,6.083,0,0,0-4.476-1.8h-1.955Zm12.965,0v60.295q0,3.294.2,6.328t.721,6.843h-.926l-4.631-5.453v-68.013Zm8.231,0v1.029h-1.852a6.128,6.128,0,0,0-4.424,1.8,6.35,6.35,0,0,0-1.955,4.476H1221v-7.3Z" transform="translate(5966 -1288.001)" fill="#790e01"/>
    <path id="Path_764" data-name="Path 764" d="M1259.068,2382.8a33.236,33.236,0,0,1,3.549.206q1.9.207,3.7.566t3.293.72a11.391,11.391,0,0,1,2.315.772v11.421H1271a9.571,9.571,0,0,0-3.4-7.768,12.433,12.433,0,0,0-8.232-2.83,12.284,12.284,0,0,0-9.157,3.549,11.435,11.435,0,0,0-3.5,8.283,14.76,14.76,0,0,0,.875,4.579,12.041,12.041,0,0,0,3.241,4.888l20.27,18.726a14.4,14.4,0,0,1,4.116,6.174,21.384,21.384,0,0,1,1.029,6.38q0,8.541-5.2,13.89t-14.045,5.35a39.031,39.031,0,0,1-5.814-.514,28.4,28.4,0,0,1-6.482-1.8,15.563,15.563,0,0,1-5.2-3.344,22.859,22.859,0,0,1-.309-4.116,34.779,34.779,0,0,1,.412-5.2,32.24,32.24,0,0,1,1.132-4.99h.926a17.145,17.145,0,0,0,1.337,9.158,12.966,12.966,0,0,0,5.4,5.916,14.72,14.72,0,0,0,8.077,1.8,15.372,15.372,0,0,0,9.724-3.962,12.557,12.557,0,0,0,4.064-9.827,13.686,13.686,0,0,0-1.029-5.4,11.673,11.673,0,0,0-2.984-4.167l-19.755-18.315a16.076,16.076,0,0,1-4.322-6.328,19.144,19.144,0,0,1-1.235-6.431,18.025,18.025,0,0,1,2.058-8.334,16.439,16.439,0,0,1,6.122-6.534,18.5,18.5,0,0,1,9.93-2.521m12.861,3.19h-7.82v-2.161h7.82Z" transform="translate(5966 -1288.001)" fill="#790e01"/>
    <path id="Path_765" data-name="Path 765" d="M1283.247,2382.29a18.486,18.486,0,0,0,3.138.824q2.108.412,4.682.72a39.878,39.878,0,0,0,4.733.309l-12.553,1.131Zm59.575,4.94h-59.575v-3.087h59.575Zm-52.476-.309v.309a6.247,6.247,0,0,0-4.321,1.851,5.873,5.873,0,0,0-1.749,4.322v1.749l-1.029.1v-8.334ZM1310,2448.76v7.511h-8.231v-1.029h1.336a6.239,6.239,0,0,0,4.58-1.9,6.628,6.628,0,0,0,2.006-4.578Zm6.38,7.511h-6.688v-71.716h6.688Zm-.309-7.511h.309a6.607,6.607,0,0,0,2.006,4.578,6.232,6.232,0,0,0,4.579,1.9h1.337v1.029h-8.231Zm26.752-66.47v2.984l-12.553-1.131a39.436,39.436,0,0,0,4.785-.309q2.52-.309,4.68-.72a15.357,15.357,0,0,0,3.088-.824m0,4.631v8.334l-1.03-.1V2393.4a5.791,5.791,0,0,0-1.8-4.322,6.325,6.325,0,0,0-4.27-1.851v-.309Z" transform="translate(5966 -1288.001)" fill="#790e01"/>
    <path id="Path_766" data-name="Path 766" d="M1358.255,2391.757h-.309a6.624,6.624,0,0,0-2.006-4.579,6.249,6.249,0,0,0-4.579-1.9h-1.337v-1.028h8.231Zm0,57v7.511h-8.231v-1.029h1.337a6.238,6.238,0,0,0,4.579-1.9,6.615,6.615,0,0,0,2.006-4.578Zm6.38,7.511h-6.688v-72.025h6.688Zm-.309-64.514v-7.511h8.231v1.028h-1.337a6.245,6.245,0,0,0-4.579,1.9,6.616,6.616,0,0,0-2.006,4.579Zm0,57h.309a6.607,6.607,0,0,0,2.006,4.578,6.234,6.234,0,0,0,4.579,1.9h1.337v1.029h-8.231Z" transform="translate(5966 -1288.001)" fill="#790e01"/>
    <path id="Path_767" data-name="Path 767" d="M1379.76,2382.29a18.481,18.481,0,0,0,3.138.824q2.108.412,4.682.72a39.865,39.865,0,0,0,4.733.309l-12.553,1.131Zm59.575,4.94H1379.76v-3.087h59.575Zm-52.475-.309v.309a6.247,6.247,0,0,0-4.322,1.851,5.873,5.873,0,0,0-1.749,4.322v1.749l-1.029.1v-8.334Zm19.652,61.839v7.511h-8.231v-1.029h1.337a6.238,6.238,0,0,0,4.579-1.9,6.624,6.624,0,0,0,2.006-4.578Zm6.38,7.511H1406.2v-71.716h6.688Zm-.309-7.511h.309a6.607,6.607,0,0,0,2.006,4.578,6.232,6.232,0,0,0,4.579,1.9h1.337v1.029h-8.231Zm26.752-66.47v2.984l-12.553-1.131a39.424,39.424,0,0,0,4.785-.309q2.518-.309,4.681-.72a15.361,15.361,0,0,0,3.087-.824m0,4.631v8.334l-1.029-.1V2393.4a5.793,5.793,0,0,0-1.8-4.322,6.323,6.323,0,0,0-4.27-1.851v-.309Z" transform="translate(5966 -1288.001)" fill="#790e01"/>
    <path id="Path_768" data-name="Path 768" d="M1452.917,2384.246v6.174h-.309a4.775,4.775,0,0,0-1.6-3.7,5.56,5.56,0,0,0-3.859-1.44h-1.646v-1.029Zm6.379,0v45.273a29.763,29.763,0,0,0,2.726,13.068,20.357,20.357,0,0,0,19.087,11.935,23.567,23.567,0,0,0,12.039-2.984,20.947,20.947,0,0,0,8.025-8.283,25.57,25.57,0,0,0,2.881-12.4v-46.61h4.836v46.61a27.777,27.777,0,0,1-3.447,14.046,24.269,24.269,0,0,1-9.723,9.414,30.236,30.236,0,0,1-14.611,3.4,32.007,32.007,0,0,1-14.971-3.345,24.342,24.342,0,0,1-9.98-9.363,27.126,27.126,0,0,1-3.55-14.045v-46.713Zm7.1,0v1.029h-1.646a5.555,5.555,0,0,0-3.859,1.44,4.767,4.767,0,0,0-1.594,3.7h-.206v-6.174Zm37.968,0v6.174h-.309a4.771,4.771,0,0,0-1.595-3.7,5.555,5.555,0,0,0-3.858-1.44h-1.646v-1.029Zm11.627,0v1.029h-1.646a5.553,5.553,0,0,0-3.859,1.44,4.768,4.768,0,0,0-1.595,3.7h-.2v-6.174Z" transform="translate(5966 -1288.001)" fill="#790e01"/>
    <path id="Path_769" data-name="Path 769" d="M1522.265,2382.29a18.481,18.481,0,0,0,3.138.824q2.108.412,4.682.72a39.865,39.865,0,0,0,4.733.309l-12.553,1.131Zm59.575,4.94h-59.575v-3.087h59.575Zm-52.475-.309v.309a6.247,6.247,0,0,0-4.322,1.851,5.873,5.873,0,0,0-1.749,4.322v1.749l-1.029.1v-8.334Zm19.652,61.839v7.511h-8.231v-1.029h1.337a6.238,6.238,0,0,0,4.579-1.9,6.624,6.624,0,0,0,2.006-4.578Zm6.38,7.511h-6.688v-71.716h6.688Zm-.309-7.511h.309a6.607,6.607,0,0,0,2.006,4.578,6.232,6.232,0,0,0,4.579,1.9h1.337v1.029h-8.231Zm26.752-66.47v2.984l-12.553-1.131a39.424,39.424,0,0,0,4.785-.309q2.518-.309,4.681-.72a15.361,15.361,0,0,0,3.087-.824m0,4.631v8.334l-1.029-.1V2393.4a5.793,5.793,0,0,0-1.8-4.322,6.323,6.323,0,0,0-4.27-1.851v-.309Z" transform="translate(5966 -1288.001)" fill="#790e01"/>
    <path id="Path_770" data-name="Path 770" d="M1597.273,2391.756h-.308a6.162,6.162,0,0,0-1.955-4.578,6.416,6.416,0,0,0-4.63-1.9h-1.234l-.1-1.029h8.231Zm0,57v7.511h-8.231v-1.029h1.338a6.239,6.239,0,0,0,4.578-1.9,6.623,6.623,0,0,0,2.007-4.579Zm6.38,7.511h-6.688v-72.025h6.688Zm27.781-68.835h-28.09v-3.19h28.09Zm-4.424,34.88h-23.665v-3.086h23.665Zm4.424,33.955h-28.09v-3.19h28.09Zm6.276-16.668-5.967,16.668h-17.081l3.7-3.189a20.179,20.179,0,0,0,8.9-1.7,14.6,14.6,0,0,0,5.607-4.785,37.5,37.5,0,0,0,3.807-7Zm-6.276-57.209v2.984l-12.553-1.132a39.452,39.452,0,0,0,4.786-.309q2.517-.308,4.68-.72a15.356,15.356,0,0,0,3.087-.823m-4.424,30.25v6.791h-5.968v-.205a5.052,5.052,0,0,0,3.5-1.595,4.933,4.933,0,0,0,1.441-3.55v-1.441Zm0,9.467v6.791h-1.029v-1.544a4.94,4.94,0,0,0-1.441-3.55,4.689,4.689,0,0,0-3.5-1.492v-.2Zm4.424-34.984v8.231h-1.029V2393.5a5.926,5.926,0,0,0-1.749-4.27,6.157,6.157,0,0,0-4.322-1.9v-.206Z" transform="translate(5966 -1288.001)" fill="#790e01"/>
    <g id="Group_2670" data-name="Group 2670" transform="translate(5966 -1288.001)">
      <g id="Group_2669" data-name="Group 2669" clip-path="url(#clip-path)">
        <g id="Group_2668" data-name="Group 2668">
          <g id="Group_2667" data-name="Group 2667" clip-path="url(#clip-path)">
            <path id="Path_771" data-name="Path 771" d="M977.37,2382.857c-.069,22.093.108,44.2-.092,66.281-.007.591-.023,1.182-.046,1.765l-2.187-.092c0-.929-.307-1.205-1.512-.852-3.806,1.128-7.658,2.126-11.495,3.185q-7.506,2.083-15.034,4.167l-.591-2.126a2.379,2.379,0,0,0,2.126-2.77c-.077-10.076-.039-20.16-.031-30.244v-28.118c0-4.612-.008-4.681-4.673-4.673-1.612,0-2.057-.522-2.049-2.088.023-4.6-.039-4.6-4.589-4.6-7.613,0-11.458,3.123-12.931,10.5-.146.736-.031,1.6-1.236,1.611-1.166.016-1.143-.767-1.3-1.542-1.5-7.429-5.326-10.567-12.877-10.567a19.961,19.961,0,0,1-2.348-.016,4.87,4.87,0,0,0-.622-.046l-.023-2.118c.99-.015,1.988-.023,2.985-.038,6.385-.085,11.189,2.133,14.159,8.556,3.039-6.676,8.089-8.656,14.6-8.564,12.455.184,24.9.092,37.358.015,1.864-.007,2.409.476,2.409,2.372m-4.19,64.9c1.55-.345,1.942-1.12,1.934-2.639-.069-10.015-.038-20.03-.038-30.037q0-15.126-.016-30.251c0-.7.392-1.6-.621-2.041-2.072-.914-3.737.138-3.753,2.386v.062l-2.156-.023c0-.077-.008-.161-.008-.246-.046-1.328-.038-2.325-1.865-2.3q-10.44.115-20.889.008c-1.949-.023-1.665,1.174-1.726,2.386-.069,1.343.184,2.111,1.826,2.057,3.477-.108,6.961-.031,10.437-.039,3.415,0,6.822-.076,10.23.039h.191l-.038,2.179h-.169c-1.987-.061-2.5.568-2.494,2.51.069,14.98.038,29.959.038,44.939,0,3.906.031,7.812-.015,11.718-.015,1.343.307,1.773,1.727,1.313,2.432-.783,4.911-1.458,7.4-2.019m-11.3-56.028c.008-2.041-.652-2.548-2.525-2.417a44.964,44.964,0,0,1-6.185-.008c-1.911-.13-2.571.453-2.548,2.471.1,9.938.046,19.876.046,29.821v23.429c0,2.418.031,4.835,0,7.245-.015,1.143.422,1.481,1.558,1.274,1.988-.353,2.924-1.1,2.909-3.446-.123-17.466-.062-34.932-.062-52.406,0-.637.015-1.274.015-1.911,0-.729.407-.982,1.082-.99s1.1.207,1.113.944c.016.637.031,1.274.031,1.918v42.6c0,3.269-.015,6.538.008,9.8.007.614-.223,1.366.475,1.742,1.175.637,4.014-1.167,4.022-2.548.015-3.691.007-7.382.007-11.074,0-15.486-.046-30.964.054-46.443" fill="#790e01"/>
            <path id="Path_772" data-name="Path 772" d="M975.045,2450.811l2.187.092c-.56,14.688-6.469,27.4-16.192,38.455-10.038,11.411-22.409,19.584-36.245,25.693a3.485,3.485,0,0,1-3.047.245c-17.55-7.8-32.837-18.441-43.458-34.832a59.44,59.44,0,0,1-9.631-33.068c.031-21.165,0-42.338.016-63.5,0-3.868-.376-3.354,3.461-3.354h1.105v2.126h-.131c-1.35.016-2.241.069-2.233,1.888q.091,30.563.015,61.132a1.684,1.684,0,0,0,1.451,1.934c2.548.652,5.1,1.281,7.6,2.1,1.734.568,2.026-.023,2.011-1.619-.046-9.439-.023-18.886-.023-28.325s-.023-18.886.023-28.333c.007-1.481-.284-2.148-1.98-2.141-4.282.016-4.566-.061-4.612-4.044l2.11-.023c0,1.3.4,1.934,1.995,1.88,3.331-.115,6.677-.038,10.015-.031,3.545,0,7.106-.076,10.652.031,1.642.054,1.9-.714,1.826-2.056-.061-1.213.215-2.41-1.734-2.387q-10.441.1-20.881-.008v-2.126c8.84.016,17.681.062,26.521-.023l.023,2.118c-1.419,0-1.788.86-1.757,2.472.092,4.2,0,4.289-4.259,4.2-1.827-.038-2.432.415-2.425,2.356q.114,30.344.015,60.7v.123l-1.972.054c0-.522-.215-1.128-.215-1.55.077-9.8.046-19.6.054-29.392,0-9.877-.054-19.746.038-29.614.015-1.965-.384-2.855-2.555-2.686a63.079,63.079,0,0,1-6.823.03c-1.3-.038-1.857.277-1.857,1.765q.081,29.078.008,58.162c-.008,1.389.591,1.942,1.35,2.18l-.56,2q-6.216-1.728-12.432-3.469c-1.619-.453-1.6.238-1.519,1.4a58.95,58.95,0,0,0,5.356,20.912c.714,1.566,1.435,1.85,3.055,1.4,10.114-2.863,20.259-5.61,30.389-8.411l.6,2.156q-14.712,4.076-29.423,8.158c-2.548.706-2.594.7-1.182,2.924,10.23,16.123,25.042,26.652,42.139,34.387a2.8,2.8,0,0,0,2.44-.115,101.158,101.158,0,0,0,9.531-4.765c13.1-7.452,24.458-16.791,32.523-29.745.975-1.558.922-2.141-1.013-2.663l.6-2.133c.537.145,1.066.291,1.6.445.868.245,1.267-.092,1.643-.852a56.961,56.961,0,0,0,5.794-21.864c.007-.138.015-.268.015-.391" fill="#790e01"/>
            <path id="Path_773" data-name="Path 773" d="M975.115,2445.117c.007,1.519-.384,2.3-1.935,2.64-2.493.56-4.972,1.235-7.4,2.018-1.42.461-1.742.031-1.727-1.312.045-3.906.014-7.812.014-11.718,0-14.98.031-29.96-.037-44.94-.008-1.941.505-2.571,2.494-2.509h.168c3.937.123,3.96-.031,4-4.06v-.061c.014-2.249,1.68-3.3,3.753-2.387,1.013.445.62,1.343.62,2.041q.035,15.126.016,30.252c0,10.007-.03,20.021.039,30.036" fill="#790e01"/>
            <path id="Path_774" data-name="Path 774" d="M968.53,2385.213l2.156.023c-.038,4.029-.061,4.182-4,4.06l.039-2.18c1.442,0,1.8-.644,1.8-1.9" fill="#790e01"/>
            <path id="Path_775" data-name="Path 775" d="M965.391,2475.606c1.935.522,1.988,1.1,1.013,2.663-8.065,12.954-19.422,22.293-32.523,29.745a101.04,101.04,0,0,1-9.531,4.765,2.8,2.8,0,0,1-2.44.115c-17.1-7.735-31.909-18.264-42.139-34.387-1.412-2.226-1.366-2.218,1.182-2.924q14.712-4.076,29.422-8.158l10.615-2.946c.682-.192,1.372-.353,2.018-.522,2.594.7,5.133,1.381,7.665,2.079,11.573,3.2,23.122,6.454,34.718,9.57" fill="#790e01"/>
            <path id="Path_776" data-name="Path 776" d="M965.99,2473.472l-.6,2.133c-11.595-3.115-23.145-6.369-34.717-9.569-2.533-.7-5.073-1.382-7.667-2.08-.644.169-1.335.33-2.018.522l-10.613,2.947-.6-2.157c2.717-.752,5.411-1.557,8.465-2.44a10.585,10.585,0,0,0-.99-.437l-18.326-5.065.6-2.157c7.421,1.957,14.8,4.029,22.193,6.094a4.865,4.865,0,0,0,2.709-.046c7.321-2.042,14.642-4.1,21.986-6.032l.591,2.125q-9.45,2.613-19.008,5.265c.322.291.368.368.422.384q18.786,5.261,37.572,10.513" fill="#790e01"/>
            <path id="Path_777" data-name="Path 777" d="M899.525,2455.17l-.6,2.156c-2.286-.637-4.581-1.273-6.868-1.91l.56-2.011a5.284,5.284,0,0,0,1.574.169c1.043-.023,1.3-.476,1.3-1.036l1.973-.054a2.346,2.346,0,0,0,2.064,2.686" fill="#790e01"/>
            <path id="Path_778" data-name="Path 778" d="M892.618,2453.405l-.56,2.011c-2.379-.653-4.75-1.313-7.129-1.98l.56-2a13.632,13.632,0,0,0,2.1.268c1.9.284,1.036-1.5,1.043-2.286.062-17.26.046-34.511.046-51.77,0-.637.016-1.274.023-1.918.016-.729.445-.952,1.121-.937s1.074.269,1.074.99c.008.637.023,1.282.023,1.919q0,26.521,0,53.043c0,1.458.514,2.318,1.7,2.663" fill="#790e01"/>
            <path id="Path_779" data-name="Path 779" d="M881.951,2448.1c.015,1.6-.276,2.187-2.011,1.619-2.494-.821-5.049-1.45-7.6-2.1a1.682,1.682,0,0,1-1.45-1.933q.045-30.562-.016-61.132c-.007-1.819.883-1.873,2.233-1.888h.131c1.328,0,2.095.246,2.11,1.942,0,.23.008.445.008.652.046,3.983.33,4.06,4.612,4.044,1.7-.007,1.988.66,1.98,2.141-.046,9.447-.023,18.886-.023,28.333s-.023,18.886.023,28.325" fill="#790e01"/>
            <path id="Path_780" data-name="Path 780" d="M879.342,2380.539v2.126c-1.834-.023-1.819.982-1.865,2.3,0,.092-.007.184-.007.269l-2.111.023c0-.208-.008-.423-.008-.653-.015-1.7-.782-1.941-2.11-1.941v-2.126c2.034-.008,4.067,0,6.1,0" fill="#790e01"/>
          </g>
        </g>
      </g>
    </g>
    <path id="Path_781" data-name="Path 781" d="M954.333,2376.091c-6.257,0-12.515.011-18.772-.008a20.817,20.817,0,0,0-5.9.752c-2.235.648-4.211,1.624-5.334,3.881a1.406,1.406,0,0,1-2.621.061c-1.231-2.507-3.458-3.438-5.918-4.087a22.085,22.085,0,0,0-5.708-.606q-19.2.019-38.4.007c-.64,0-1.279-.012-1.919-.023-.673-.013-1.051-.305-1.057-1.03-.007-.794.345-1.185,1.147-1.177.568.006,1.137-.01,1.706-.01q18.985,0,37.971,0c4.685,0,9.276.356,12.905,3.863.506.488.811.3,1.23-.106,3.085-2.968,7-3.707,11.031-3.73,13.51-.076,27.02-.036,40.531-.016.829,0,2.043-.4,2.052,1.1.01,1.526-1.224,1.1-2.038,1.1-6.968.032-13.937.018-20.9.017" transform="translate(5966 -1288.001)" fill="#790e01"/>
    <path id="Path_782" data-name="Path 782" d="M921.281,2414.83c-.4-.375-.7-.663-1.005-.952-.49-.465-.6-.461-1.063.016a3.65,3.65,0,0,1-1.38,1.017,2.173,2.173,0,0,1-2.375-.687c-.115-.14-.129-.226-.012-.364a2.583,2.583,0,0,0,.477-.937.5.5,0,0,0-.262-.682c-.3-.125-.488.026-.621.316-.959,2.08-4.249,2.911-5.957,1.524-.323-.262-.36-.422-.033-.722.509-.466.972-.989,1.455-1.487.224-.23.478-.461.259-.831s-.513-.234-.809-.1a5.624,5.624,0,0,1-3.435.533,2.888,2.888,0,0,1-2.073-1.6c-.166-.317-.082-.443.212-.553a10.93,10.93,0,0,0,2.446-1.2c.247-.172.518-.333.424-.721-.088-.36-.386-.38-.659-.406a7.924,7.924,0,0,1-1.749-.355,3.456,3.456,0,0,1-2.283-2.961c-.042-.224.012-.3.217-.293.091,0,.183,0,.274,0,2.839,0,5.679.019,8.517,0a5.427,5.427,0,0,1,4.253,1.91c.827.921,1.524,1.949,2.258,2.949a8.1,8.1,0,0,0,1.354,1.517,3.38,3.38,0,0,0,.83.51c.739.311.74.308.74,1.145v3.412" transform="translate(5966 -1288.001)" fill="#790e01"/>
    <path id="Path_783" data-name="Path 783" d="M924.764,2414.83c0-1.445,0-2.748,0-4.05,0-.213.052-.328.261-.369a3.858,3.858,0,0,0,2.172-1.528c.848-1.027,1.544-2.183,2.407-3.2a5.857,5.857,0,0,1,3.37-2.2,15.1,15.1,0,0,1,2.7-.1c2.382-.014,4.763,0,7.144-.014.394,0,.453.118.366.5a3.468,3.468,0,0,1-3.14,3c-.346.061-.7.1-1.043.148a.5.5,0,0,0-.479.384.556.556,0,0,0,.273.613,9.779,9.779,0,0,0,2.517,1.264c.448.155.435.358.227.721a3.17,3.17,0,0,1-3.374,1.531,6.332,6.332,0,0,1-2.109-.613c-.285-.131-.565-.212-.766.132-.188.32-.01.545.2.761.53.54,1.041,1.1,1.586,1.624.262.25.212.381-.035.588a3.358,3.358,0,0,1-3.162.637,6.309,6.309,0,0,1-2.393-1.283,1.648,1.648,0,0,1-.474-.82c-.11-.33-.323-.489-.636-.364-.292.117-.347.386-.258.689a2.247,2.247,0,0,0,.41.865c.2.232.179.373-.035.585a2.132,2.132,0,0,1-3,.169,8.516,8.516,0,0,1-.782-.75.473.473,0,0,0-.763-.032l-1.176,1.113" transform="translate(5966 -1288.001)" fill="#790e01"/>
    <path id="Path_784" data-name="Path 784" d="M915.314,2435.263a4.77,4.77,0,0,1,2.256-3.79,15.408,15.408,0,0,1,4.673-1.914,34.44,34.44,0,0,0,3.462-1.09,5.289,5.289,0,0,0,1.961-1.22,2.42,2.42,0,0,0,.755-2.28,2.19,2.19,0,0,0-1.123-1.353c-.417-.257-.46-.489-.143-.874a11.633,11.633,0,0,0,.723-1.069c.086-.133.16-.224.326-.107a4.813,4.813,0,0,1,2.244,2.894,4.745,4.745,0,0,1-1.3,4.358,7.988,7.988,0,0,1-3.249,1.926c-1.46.578-2.991.9-4.482,1.362a11.623,11.623,0,0,0-2.34.97,2.944,2.944,0,0,0-1.014,4.566c.431.657.431.656-.2,1.132-.287.215-.575.429-.859.649-.127.1-.208.119-.337-.035a6.286,6.286,0,0,1-1.35-4.125" transform="translate(5966 -1288.001)" fill="#790e01"/>
    <path id="Path_785" data-name="Path 785" d="M922.223,2417.063c0-3.647.006-7.295-.008-10.942,0-.422.07-.617.5-.487a1.285,1.285,0,0,0,.455.022c.651-.043.651-.046.651.636q0,10.6.007,21.2c0,.429-.08.664-.511.716-.356.044-.776.4-1.029.189-.218-.179-.063-.7-.063-1.077q-.008-5.128,0-10.258" transform="translate(5966 -1288.001)" fill="#790e01"/>
    <path id="Path_786" data-name="Path 786" d="M923.822,2443.864q0,5.03,0,10.058a8.869,8.869,0,0,1-.053,1.137c-.1.759-.36,1.17-.741,1.174s-.642-.4-.747-1.159a8.473,8.473,0,0,1-.054-1.135c0-6.546.007-13.092-.009-19.638,0-.787.095-1.175.473-1.273s.814-.8,1.066-.371a8.049,8.049,0,0,1,.066,2.2q0,4.5,0,9.005" transform="translate(5966 -1288.001)" fill="#790e01"/>
    <path id="Path_787" data-name="Path 787" d="M923.01,2404.638a2.509,2.509,0,1,1,2.373-2.492,2.44,2.44,0,0,1-2.373,2.492" transform="translate(5966 -1288.001)" fill="#790e01"/>
    <path id="Path_788" data-name="Path 788" d="M930.214,2437.233a5.877,5.877,0,0,1-1.371,3.339c-.113.159-.2.087-.3.01-.436-.328-.867-.665-1.312-.98-.225-.159-.1-.282-.007-.432a4.944,4.944,0,0,0,.827-1.562,2.76,2.76,0,0,0-.931-2.91c-.245-.205-.3-.334-.083-.6a11.439,11.439,0,0,0,.8-1.13c.157-.249.274-.265.5-.078a5.227,5.227,0,0,1,1.881,4.345" transform="translate(5966 -1288.001)" fill="#790e01"/>
    <path id="Path_789" data-name="Path 789" d="M915.492,2425.328a4.12,4.12,0,0,1,1.663-3.239c.868-.682.868-.682,1.472.231.592.893.592.893-.229,1.55a2.061,2.061,0,0,0-.16,3.169c.325.372.264.5-.115.694a8.685,8.685,0,0,0-1.062.669c-.228.162-.374.172-.557-.083a5.087,5.087,0,0,1-1.012-2.991" transform="translate(5966 -1288.001)" fill="#790e01"/>
    <path id="Path_790" data-name="Path 790" d="M920.853,2482.268h-4.166v7.3l2.365.818v1.354H912.21v-1.354l1.915-.786v-16.4l-1.886-.787v-1.353h12.809v5.067h-1.52l-.7-2.959h-6.137v6.987h4.194l.592-2.046h1.379v6.3h-1.379Z" transform="translate(5966 -1288.001)" fill="#f3f2ed"/>
    <path id="Path_791" data-name="Path 791" d="M933.55,2471.064v1.353l-1.915.787v16.4l1.887.786v1.354h-6.363v-1.354l1.915-.786v-16.4l-1.887-.787v-1.353Z" transform="translate(5966 -1288.001)" fill="#f3f2ed"/>
    <path id="Path_792" data-name="Path 792" d="M914.657,2494.724a4.189,4.189,0,0,1,.948-.108,1.53,1.53,0,0,1,1.168.415,1.5,1.5,0,0,1,.389,1.071,2.235,2.235,0,0,1-.22.968,4.614,4.614,0,0,1-.563.9q-.345.43-1.02,1.168-.308.339-.661.733t-.661.774h2.449l.256-1.045h.574v1.864h-4.048v-.717a5.519,5.519,0,0,1,.513-.8q.318-.42.861-1.066t.85-1.06a5.843,5.843,0,0,0,.523-.82,1.671,1.671,0,0,0,.215-.754.819.819,0,0,0-.266-.681,1.185,1.185,0,0,0-.748-.21c-.117,0-.236,0-.359.015s-.246.026-.369.046l-.379,1.056h-.543v-1.322a4.914,4.914,0,0,1,1.091-.425" transform="translate(5966 -1288.001)" fill="#f3f2ed"/>
    <path id="Path_793" data-name="Path 793" d="M918.515,2496.153A2.173,2.173,0,0,1,919.2,2495a1.964,1.964,0,0,1,1.281-.394,2,2,0,0,1,1.3.394,2.174,2.174,0,0,1,.687,1.153,7.583,7.583,0,0,1,.205,1.927,7.741,7.741,0,0,1-.205,1.952,2.145,2.145,0,0,1-.687,1.152,2.008,2.008,0,0,1-1.3.39,1.968,1.968,0,0,1-1.286-.39,2.158,2.158,0,0,1-.682-1.152,7.741,7.741,0,0,1-.205-1.952,7.583,7.583,0,0,1,.205-1.927m.861,3.6a1.678,1.678,0,0,0,.389.871.982.982,0,0,0,.718.261,1.006,1.006,0,0,0,.737-.261,1.661,1.661,0,0,0,.39-.866,8.882,8.882,0,0,0,.123-1.68,8.448,8.448,0,0,0-.128-1.655,1.674,1.674,0,0,0-.4-.871,1,1,0,0,0-.722-.262.979.979,0,0,0-.718.262,1.667,1.667,0,0,0-.389.865,8.766,8.766,0,0,0-.123,1.661,8.9,8.9,0,0,0,.123,1.675" transform="translate(5966 -1288.001)" fill="#f3f2ed"/>
    <path id="Path_794" data-name="Path 794" d="M923.987,2496.153a2.174,2.174,0,0,1,.687-1.153,1.964,1.964,0,0,1,1.281-.394,2,2,0,0,1,1.3.394,2.173,2.173,0,0,1,.687,1.153,7.583,7.583,0,0,1,.205,1.927,7.741,7.741,0,0,1-.205,1.952,2.144,2.144,0,0,1-.687,1.152,2.008,2.008,0,0,1-1.3.39,1.968,1.968,0,0,1-1.286-.39,2.158,2.158,0,0,1-.682-1.152,7.741,7.741,0,0,1-.205-1.952,7.583,7.583,0,0,1,.205-1.927m.861,3.6a1.677,1.677,0,0,0,.389.871.982.982,0,0,0,.718.261,1.006,1.006,0,0,0,.737-.261,1.661,1.661,0,0,0,.39-.866,8.881,8.881,0,0,0,.123-1.68,8.452,8.452,0,0,0-.128-1.655,1.674,1.674,0,0,0-.4-.871,1,1,0,0,0-.722-.262.979.979,0,0,0-.718.262,1.666,1.666,0,0,0-.389.865,8.76,8.76,0,0,0-.123,1.661,8.891,8.891,0,0,0,.123,1.675" transform="translate(5966 -1288.001)" fill="#f3f2ed"/>
    <path id="Path_795" data-name="Path 795" d="M932.984,2494.729v1.486h-.553l-.215-.666h-1.948v1.875a5.071,5.071,0,0,1,.943-.092,2.361,2.361,0,0,1,1.563.492,1.835,1.835,0,0,1,.589,1.5,2.7,2.7,0,0,1-.241,1.173,1.761,1.761,0,0,1-.707.784,2.187,2.187,0,0,1-1.132.276,3.516,3.516,0,0,1-.984-.138,5.851,5.851,0,0,1-1.086-.456v-1.445h.574l.369,1.159a1.534,1.534,0,0,0,.41.107,4.075,4.075,0,0,0,.481.026,1.479,1.479,0,0,0,.794-.19,1.075,1.075,0,0,0,.436-.512,1.958,1.958,0,0,0,.133-.753,1.141,1.141,0,0,0-.451-1.01,1.954,1.954,0,0,0-1.137-.312,3.342,3.342,0,0,0-.81.1l-.451-.194v-3.208Z" transform="translate(5966 -1288.001)" fill="#f3f2ed"/>
    <path id="Path_796" data-name="Path 796" d="M1008.474,2493.309v2.071h-3.15v-.284h.454a2.144,2.144,0,0,0,1.362-.468,1.923,1.923,0,0,0,.71-1.319Zm1.5-18.188h.283l.568,1.674-1.674,18.585h-1.532Zm-.681,18.642v.142a1.263,1.263,0,0,0,.326.837.992.992,0,0,0,.78.383h.426v.255H1009.1v-1.617Zm.964-18.642,8.172,17.677-.652,2.979-8.059-17.478Zm15.663,0,.227,1.9-7.122,15.861q-.426.964-.653,1.632a7.042,7.042,0,0,0-.312,1.262h-.283l-.4-1.787Zm.34,18.642h.2v1.617h-1.731v-.255h.426a.981.981,0,0,0,.794-.383,1.3,1.3,0,0,0,.312-.837v-.142Zm-.085-18.642,2.44,20.259h-2.213l-1.56-17.194,1.078-3.065Zm1.589,18.188h.6a2.027,2.027,0,0,0,.737,1.319,2.108,2.108,0,0,0,1.334.468h.454v.284h-3.121Z" transform="translate(5966 -1288.001)" fill="#790e01"/>
    <path id="Path_797" data-name="Path 797" d="M1035.287,2477.59h-.085a1.7,1.7,0,0,0-.539-1.263,1.77,1.77,0,0,0-1.277-.525h-.34l-.029-.283h2.27Zm0,15.719v2.071h-2.27v-.284h.369a1.722,1.722,0,0,0,1.263-.524,1.832,1.832,0,0,0,.553-1.263Zm1.759,2.071H1035.2v-19.862h1.844Zm7.661-18.982h-7.746v-.879h7.746Zm-1.22,9.619h-6.526v-.852h6.526Zm1.22,9.363h-7.746v-.879h7.746Zm1.731-4.6-1.646,4.6h-4.71l1.022-.879a5.553,5.553,0,0,0,2.454-.469,4.029,4.029,0,0,0,1.546-1.319,10.413,10.413,0,0,0,1.05-1.929Zm-1.731-15.776v.823l-3.462-.312a11.064,11.064,0,0,0,1.32-.085c.463-.058.894-.123,1.291-.2a4.226,4.226,0,0,0,.851-.227m-1.22,8.342v1.872h-1.646v-.057a1.39,1.39,0,0,0,.965-.439,1.359,1.359,0,0,0,.4-.979v-.4Zm0,2.61v1.873h-.284v-.426a1.362,1.362,0,0,0-.4-.979,1.292,1.292,0,0,0-.965-.411v-.057Zm1.22-9.647v2.27h-.284v-.511a1.634,1.634,0,0,0-.482-1.177,1.7,1.7,0,0,0-1.192-.526v-.056Z" transform="translate(5966 -1288.001)" fill="#790e01"/>
    <path id="Path_798" data-name="Path 798" d="M1051.375,2477.589h-.085a1.7,1.7,0,0,0-.539-1.263,1.773,1.773,0,0,0-1.277-.524h-.34l-.029-.284h2.27Zm0,15.719v2.072h-2.27v-.284h.369a1.723,1.723,0,0,0,1.263-.525,1.827,1.827,0,0,0,.553-1.263Zm1.759,2.072h-1.844v-19.862h1.844Zm5.59-19.862a11.019,11.019,0,0,1,5.32,1.234,8.968,8.968,0,0,1,3.575,3.476,11.172,11.172,0,0,1,0,10.427,9.09,9.09,0,0,1-3.575,3.476,10.925,10.925,0,0,1-5.32,1.249h-6.072l-.028-.851h6.1a7.791,7.791,0,0,0,4.242-1.136,7.669,7.669,0,0,0,2.809-3.177,11.788,11.788,0,0,0,0-9.534,7.642,7.642,0,0,0-2.823-3.178,7.818,7.818,0,0,0-4.228-1.135h-6.384v-.851Z" transform="translate(5966 -1288.001)" fill="#790e01"/>
    <path id="Path_799" data-name="Path 799" d="M1073.706,2477.59h-.086a1.823,1.823,0,0,0-.553-1.263,1.72,1.72,0,0,0-1.262-.525h-.369v-.283h2.27Zm0,15.719v2.071h-2.27v-.284h.369a1.718,1.718,0,0,0,1.262-.524,1.823,1.823,0,0,0,.553-1.263Zm1.758,2.071h-1.844v-19.862h1.844Zm-.084-17.79v-2.071h2.27v.283h-.369a1.726,1.726,0,0,0-1.264.525,1.832,1.832,0,0,0-.553,1.263Zm0,15.719h.084a1.832,1.832,0,0,0,.553,1.263,1.724,1.724,0,0,0,1.264.524h.369v.284h-2.27Z" transform="translate(5966 -1288.001)" fill="#790e01"/>
    <path id="Path_800" data-name="Path 800" d="M1098.9,2487.095l-.341,4.454a8.8,8.8,0,0,1-1.858,2.171,8.587,8.587,0,0,1-2.639,1.5,10.11,10.11,0,0,1-3.475.553,10.831,10.831,0,0,1-5.25-1.305,9.1,9.1,0,0,1-3.589-3.589,12.141,12.141,0,0,1-.014-10.868,9.066,9.066,0,0,1,3.589-3.6,10.966,10.966,0,0,1,5.434-1.292,12.108,12.108,0,0,1,6.724,1.93l.568,4h-.256a6.153,6.153,0,0,0-2.553-3.788,7.884,7.884,0,0,0-11.648,3.177,12.712,12.712,0,0,0,0,9.917,7.959,7.959,0,0,0,2.809,3.32,7.767,7.767,0,0,0,4.186,1.248,9.206,9.206,0,0,0,3.731-.751,6.725,6.725,0,0,0,2.88-2.47,10.087,10.087,0,0,0,1.475-4.61Z" transform="translate(5966 -1288.001)" fill="#790e01"/>
    <path id="Path_801" data-name="Path 801" d="M1104.405,2493.309a1.44,1.44,0,0,0-.056.964,1.162,1.162,0,0,0,.468.61,1.2,1.2,0,0,0,.666.213h.256v.284h-5.7v-.284h.255a2.65,2.65,0,0,0,1.348-.411,3.034,3.034,0,0,0,1.149-1.376Zm6.1-18.188.255,1.986-7.122,18.188h-1.7l7.263-17.251c.208-.472.384-.88.525-1.22s.265-.671.369-.993a2.611,2.611,0,0,0,.156-.71Zm4,13.364h-8.881v-.851h8.881Zm-4-13.364,8.4,20.089h-2.412l-6.554-17.393Zm5.277,18.188h2.327a2.841,2.841,0,0,0,1.135,1.376,2.717,2.717,0,0,0,1.362.411h.227v.284h-6.384v-.284h.255a1.28,1.28,0,0,0,.965-.468,1.225,1.225,0,0,0,.113-1.319" transform="translate(5966 -1288.001)" fill="#790e01"/>
    <path id="Path_802" data-name="Path 802" d="M1124.494,2477.589h-.085a1.831,1.831,0,0,0-.553-1.263,1.725,1.725,0,0,0-1.263-.524h-.369v-.284h2.27Zm0,15.719v2.072h-2.27v-.284h.369a1.722,1.722,0,0,0,1.263-.525,1.827,1.827,0,0,0,.553-1.263Zm1.759,2.072h-1.844v-19.862h1.844Zm-.085-17.791v-2.071h2.27v.284h-.369a1.721,1.721,0,0,0-1.262.524,1.827,1.827,0,0,0-.554,1.263Zm7.746,17.791h-7.746v-.879h7.746Zm1.731-4.6-1.646,4.6h-4.71l1.022-.88a5.567,5.567,0,0,0,2.454-.468,4.023,4.023,0,0,0,1.546-1.319,10.358,10.358,0,0,0,1.05-1.93Z" transform="translate(5966 -1288.001)" fill="#790e01"/>
    <path id="Path_803" data-name="Path 803" d="M1147.533,2477.59h-.085a1.828,1.828,0,0,0-.554-1.263,1.72,1.72,0,0,0-1.262-.525h-.369v-.283h2.27Zm0,15.719v2.071h-2.27v-.284h.369a1.719,1.719,0,0,0,1.262-.524,1.828,1.828,0,0,0,.554-1.263Zm1.759,2.071h-1.844v-19.862h1.844Zm3.632-19.861a6.878,6.878,0,0,1,2.312.368,4.582,4.582,0,0,1,2.838,2.738,6.086,6.086,0,0,1,.383,2.228,5.655,5.655,0,0,1-.639,2.61,5.55,5.55,0,0,1-1.731,2.029,4.121,4.121,0,0,1-2.454.78,3.191,3.191,0,0,1,1.05.809,14.827,14.827,0,0,1,.993,1.177q.766,1.107,1.348,1.9t1.177,1.561q.6.766,1.022,1.22a12.14,12.14,0,0,0,1.135,1.106,4.768,4.768,0,0,0,1.234.767,3.77,3.77,0,0,0,1.49.283v.284h-1.561a5.827,5.827,0,0,1-2.256-.4,5.658,5.658,0,0,1-1.6-.979,11.016,11.016,0,0,1-1.106-1.121c-.057-.075-.213-.293-.469-.652s-.558-.79-.907-1.291-.7-1-1.036-1.49-.634-.912-.88-1.262-.388-.554-.425-.611a9.845,9.845,0,0,0-1.192-1.3,2.068,2.068,0,0,0-1.419-.6v-.283q.879.027,1.5,0a8.821,8.821,0,0,0,1.617-.228,3.958,3.958,0,0,0,1.646-.822,3.847,3.847,0,0,0,1.163-1.9,5.579,5.579,0,0,0,.142-.78,5.107,5.107,0,0,0,.029-.922,4.8,4.8,0,0,0-.979-3.079,3.378,3.378,0,0,0-2.54-1.234q-.8-.057-1.631-.043t-1.972.014a1.734,1.734,0,0,0-.071-.241c-.048-.142-.118-.355-.213-.638Zm-3.717,17.79h.085a1.7,1.7,0,0,0,.539,1.263,1.766,1.766,0,0,0,1.277.524h.34v.284h-2.241Z" transform="translate(5966 -1288.001)" fill="#790e01"/>
    <path id="Path_804" data-name="Path 804" d="M1165.891,2477.59h-.085a1.7,1.7,0,0,0-.539-1.263,1.77,1.77,0,0,0-1.277-.525h-.34l-.029-.283h2.27Zm0,15.719v2.071h-2.27v-.284h.369a1.722,1.722,0,0,0,1.263-.524,1.832,1.832,0,0,0,.553-1.263Zm1.759,2.071h-1.844v-19.862h1.844Zm7.661-18.982h-7.746v-.879h7.746Zm-1.22,9.619h-6.526v-.852h6.526Zm1.22,9.363h-7.746v-.879h7.746Zm1.731-4.6-1.646,4.6h-4.71l1.022-.879a5.553,5.553,0,0,0,2.454-.469,4.029,4.029,0,0,0,1.546-1.319,10.413,10.413,0,0,0,1.05-1.929Zm-1.731-15.776v.823l-3.462-.312a11.064,11.064,0,0,0,1.32-.085c.463-.058.893-.123,1.291-.2a4.226,4.226,0,0,0,.851-.227m-1.22,8.342v1.872h-1.646v-.057a1.392,1.392,0,0,0,.965-.439,1.359,1.359,0,0,0,.4-.979v-.4Zm0,2.61v1.873h-.284v-.426a1.362,1.362,0,0,0-.4-.979,1.293,1.293,0,0,0-.965-.411v-.057Zm1.22-9.647v2.27h-.284v-.511a1.634,1.634,0,0,0-.482-1.177,1.7,1.7,0,0,0-1.192-.526v-.056Z" transform="translate(5966 -1288.001)" fill="#790e01"/>
    <path id="Path_805" data-name="Path 805" d="M1185.412,2475.121a9.073,9.073,0,0,1,.978.057q.525.057,1.022.156c.331.067.633.133.908.2a3.192,3.192,0,0,1,.638.213v3.15h-.255a2.64,2.64,0,0,0-.937-2.143,3.434,3.434,0,0,0-2.269-.78,3.392,3.392,0,0,0-2.526.979,3.155,3.155,0,0,0-.964,2.284,4.075,4.075,0,0,0,.241,1.263,3.316,3.316,0,0,0,.894,1.348l5.589,5.164a3.958,3.958,0,0,1,1.135,1.7,5.9,5.9,0,0,1,.284,1.759,5.268,5.268,0,0,1-1.433,3.831,5.151,5.151,0,0,1-3.873,1.475,10.678,10.678,0,0,1-1.6-.142,7.831,7.831,0,0,1-1.788-.5,4.307,4.307,0,0,1-1.432-.922,6.291,6.291,0,0,1-.086-1.135,9.578,9.578,0,0,1,.114-1.433,8.863,8.863,0,0,1,.312-1.377h.255a4.736,4.736,0,0,0,.369,2.526,3.569,3.569,0,0,0,1.49,1.631,4.053,4.053,0,0,0,2.227.5,4.242,4.242,0,0,0,2.682-1.093,3.463,3.463,0,0,0,1.12-2.709,3.775,3.775,0,0,0-.284-1.49,3.215,3.215,0,0,0-.822-1.149l-5.448-5.05a4.439,4.439,0,0,1-1.192-1.745,5.278,5.278,0,0,1-.34-1.774,4.981,4.981,0,0,1,.567-2.3,4.543,4.543,0,0,1,1.688-1.8,5.1,5.1,0,0,1,2.739-.695m3.546.88H1186.8v-.6h2.156Z" transform="translate(5966 -1288.001)" fill="#790e01"/>
    <path id="Path_806" data-name="Path 806" d="M1195.739,2477.59h-.085a1.7,1.7,0,0,0-.539-1.263,1.77,1.77,0,0,0-1.277-.525h-.34l-.029-.283h2.27Zm0,15.719v2.071h-2.27v-.284h.369a1.722,1.722,0,0,0,1.263-.524,1.832,1.832,0,0,0,.553-1.263Zm1.759,2.071h-1.844v-19.862h1.844Zm7.661-18.982h-7.746v-.879h7.746Zm-1.22,9.619h-6.526v-.852h6.526Zm1.22,9.363h-7.746v-.879h7.746Zm1.731-4.6-1.646,4.6h-4.71l1.022-.879a5.553,5.553,0,0,0,2.454-.469,4.03,4.03,0,0,0,1.546-1.319,10.405,10.405,0,0,0,1.05-1.929Zm-1.731-15.776v.823l-3.462-.312a11.064,11.064,0,0,0,1.32-.085c.463-.058.894-.123,1.291-.2a4.228,4.228,0,0,0,.851-.227m-1.22,8.342v1.872h-1.646v-.057a1.39,1.39,0,0,0,.965-.439,1.359,1.359,0,0,0,.4-.979v-.4Zm0,2.61v1.873h-.284v-.426a1.362,1.362,0,0,0-.4-.979,1.292,1.292,0,0,0-.965-.411v-.057Zm1.22-9.647v2.27h-.284v-.511a1.633,1.633,0,0,0-.482-1.177,1.7,1.7,0,0,0-1.192-.526v-.056Z" transform="translate(5966 -1288.001)" fill="#790e01"/>
    <path id="Path_807" data-name="Path 807" d="M1212.224,2493.309a1.441,1.441,0,0,0-.056.964,1.162,1.162,0,0,0,.468.61,1.2,1.2,0,0,0,.666.213h.256v.284h-5.7v-.284h.255a2.65,2.65,0,0,0,1.348-.411,3.035,3.035,0,0,0,1.149-1.376Zm6.1-18.188.255,1.986-7.122,18.188h-1.7l7.263-17.251c.208-.472.383-.88.525-1.22s.265-.671.369-.993a2.611,2.611,0,0,0,.156-.71Zm4,13.364h-8.881v-.851h8.881Zm-4-13.364,8.4,20.089h-2.412l-6.554-17.393Zm5.277,18.188h2.327a2.842,2.842,0,0,0,1.135,1.376,2.717,2.717,0,0,0,1.362.411h.227v.284h-6.384v-.284h.255a1.279,1.279,0,0,0,.965-.468,1.225,1.225,0,0,0,.113-1.319" transform="translate(5966 -1288.001)" fill="#790e01"/>
    <path id="Path_808" data-name="Path 808" d="M1232.313,2477.59h-.086a1.829,1.829,0,0,0-.554-1.263,1.72,1.72,0,0,0-1.262-.525h-.369v-.283h2.271Zm0,15.719v2.071h-2.271v-.284h.369a1.718,1.718,0,0,0,1.262-.524,1.828,1.828,0,0,0,.554-1.263Zm1.758,2.071h-1.844v-19.862h1.844Zm3.632-19.861a6.889,6.889,0,0,1,2.313.368,4.584,4.584,0,0,1,2.837,2.738,6.086,6.086,0,0,1,.383,2.228,5.657,5.657,0,0,1-.639,2.61,5.546,5.546,0,0,1-1.73,2.029,4.126,4.126,0,0,1-2.455.78,3.19,3.19,0,0,1,1.05.809,14.619,14.619,0,0,1,.993,1.177q.766,1.107,1.348,1.9t1.177,1.561q.6.766,1.022,1.22a12.17,12.17,0,0,0,1.135,1.106,4.789,4.789,0,0,0,1.234.767,3.774,3.774,0,0,0,1.49.283v.284H1246.3a5.827,5.827,0,0,1-2.256-.4,5.671,5.671,0,0,1-1.6-.979,11,11,0,0,1-1.106-1.121c-.057-.075-.213-.293-.468-.652s-.559-.79-.908-1.291-.7-1-1.036-1.49-.634-.912-.88-1.262-.388-.554-.425-.611a9.853,9.853,0,0,0-1.192-1.3,2.068,2.068,0,0,0-1.419-.6v-.283q.881.027,1.5,0a8.842,8.842,0,0,0,1.618-.228,3.962,3.962,0,0,0,1.645-.822,3.855,3.855,0,0,0,1.164-1.9,5.438,5.438,0,0,0,.141-.78,5.119,5.119,0,0,0,.029-.922,4.8,4.8,0,0,0-.979-3.079,3.376,3.376,0,0,0-2.54-1.234q-.793-.057-1.631-.043t-1.972.014a1.724,1.724,0,0,0-.071-.241q-.07-.213-.213-.638Zm-3.717,17.79h.085a1.7,1.7,0,0,0,.539,1.263,1.768,1.768,0,0,0,1.277.524h.34v.284h-2.241Z" transform="translate(5966 -1288.001)" fill="#790e01"/>
    <path id="Path_809" data-name="Path 809" d="M1266.417,2487.095l-.341,4.454a8.8,8.8,0,0,1-1.858,2.171,8.587,8.587,0,0,1-2.639,1.5,10.11,10.11,0,0,1-3.475.553,10.831,10.831,0,0,1-5.25-1.305,9.1,9.1,0,0,1-3.589-3.589,12.141,12.141,0,0,1-.014-10.868,9.066,9.066,0,0,1,3.589-3.6,10.966,10.966,0,0,1,5.434-1.292,12.108,12.108,0,0,1,6.724,1.93l.568,4h-.256a6.153,6.153,0,0,0-2.553-3.788,7.884,7.884,0,0,0-11.648,3.177,12.712,12.712,0,0,0,0,9.917,7.959,7.959,0,0,0,2.809,3.32,7.767,7.767,0,0,0,4.186,1.248,9.206,9.206,0,0,0,3.731-.751,6.725,6.725,0,0,0,2.88-2.47,10.086,10.086,0,0,0,1.475-4.61Z" transform="translate(5966 -1288.001)" fill="#790e01"/>
    <path id="Path_810" data-name="Path 810" d="M1271.808,2477.59h-.085a1.828,1.828,0,0,0-.554-1.263,1.722,1.722,0,0,0-1.262-.525h-.369v-.283h2.27Zm0,15.719v2.071h-2.27v-.284h.369a1.72,1.72,0,0,0,1.262-.524,1.828,1.828,0,0,0,.554-1.263Zm1.759,2.071h-1.844v-19.862h1.844Zm11.86-9.392h-12.144v-.851h12.144Zm-11.945-8.4v-2.071h2.27v.283h-.369a1.722,1.722,0,0,0-1.263.525,1.827,1.827,0,0,0-.553,1.263Zm0,15.719h.085a1.827,1.827,0,0,0,.553,1.263,1.72,1.72,0,0,0,1.263.524h.369v.284h-2.27Zm11.775-15.719h-.085a1.7,1.7,0,0,0-.539-1.263,1.77,1.77,0,0,0-1.277-.525h-.369v-.283h2.27Zm0,15.719v2.071h-2.27v-.284h.369a1.768,1.768,0,0,0,1.277-.524,1.7,1.7,0,0,0,.539-1.263Zm1.759,2.071h-1.844v-19.862h1.844Zm-.085-17.79v-2.071h2.27v.283h-.369a1.722,1.722,0,0,0-1.263.525,1.827,1.827,0,0,0-.553,1.263Zm0,15.719h.085a1.827,1.827,0,0,0,.553,1.263,1.72,1.72,0,0,0,1.263.524h.369v.284h-2.27Z" transform="translate(5966 -1288.001)" fill="#790e01"/>
    <path id="Path_811" data-name="Path 811" d="M1302.082,2493.309a1.44,1.44,0,0,0-.056.964,1.162,1.162,0,0,0,.468.61,1.2,1.2,0,0,0,.666.213h.256v.284h-5.7v-.284h.255a2.65,2.65,0,0,0,1.348-.411,3.034,3.034,0,0,0,1.149-1.376Zm6.1-18.188.255,1.986-7.122,18.188h-1.7l7.263-17.251c.208-.472.384-.88.525-1.22s.265-.671.369-.993a2.611,2.611,0,0,0,.156-.71Zm4,13.364H1303.3v-.851h8.881Zm-4-13.364,8.4,20.089h-2.412l-6.554-17.393Zm5.277,18.188h2.327a2.841,2.841,0,0,0,1.135,1.376,2.717,2.717,0,0,0,1.362.411h.227v.284h-6.384v-.284h.255a1.28,1.28,0,0,0,.965-.468,1.225,1.225,0,0,0,.113-1.319" transform="translate(5966 -1288.001)" fill="#790e01"/>
    <path id="Path_812" data-name="Path 812" d="M1321.83,2493.365v2.015h-2.355v-.284h.539a1.743,1.743,0,0,0,1.731-1.731Zm-.056-18.273,1.248,1.589.029,18.7h-1.306v-16.741a30.211,30.211,0,0,0-.255-3.547Zm0,0,16.485,17.592.255,3.093-16.485-17.564Zm1.277,18.273a1.743,1.743,0,0,0,1.73,1.731h.539v.284h-2.355v-2.015Zm11.888-17.847h2.355v2.015h-.057a1.777,1.777,0,0,0-.525-1.234,1.671,1.671,0,0,0-1.234-.5h-.539Zm3.575,0v16.627q0,.907.057,1.745t.2,1.887h-.256l-1.277-1.5v-18.755Zm2.27,0v.284h-.511a1.686,1.686,0,0,0-1.22.5,1.752,1.752,0,0,0-.539,1.234h-.085v-2.015Z" transform="translate(5966 -1288.001)" fill="#790e01"/>
    <path id="Path_813" data-name="Path 813" d="M1345.749,2477.589h-.085a1.7,1.7,0,0,0-.539-1.263,1.773,1.773,0,0,0-1.277-.524h-.34l-.029-.284h2.27Zm0,15.719v2.072h-2.27v-.284h.369a1.722,1.722,0,0,0,1.263-.525,1.826,1.826,0,0,0,.553-1.263Zm1.759,2.072h-1.844v-19.862h1.844Zm5.59-19.862a11.019,11.019,0,0,1,5.32,1.234,8.969,8.969,0,0,1,3.575,3.476,11.172,11.172,0,0,1,0,10.427,9.091,9.091,0,0,1-3.575,3.476,10.925,10.925,0,0,1-5.32,1.249h-6.072l-.028-.851h6.1a7.791,7.791,0,0,0,4.242-1.136,7.669,7.669,0,0,0,2.809-3.177,11.788,11.788,0,0,0,0-9.534,7.642,7.642,0,0,0-2.823-3.178,7.818,7.818,0,0,0-4.228-1.135h-6.384v-.851Z" transform="translate(5966 -1288.001)" fill="#790e01"/>
    <path id="Path_814" data-name="Path 814" d="M1372.619,2474.979a5.053,5.053,0,0,0,.865.227q.582.114,1.291.2a10.784,10.784,0,0,0,1.3.085l-3.461.313Zm16.428,1.362h-16.428v-.852h16.428Zm-14.471-.085v.085a1.72,1.72,0,0,0-1.191.511,1.616,1.616,0,0,0-.482,1.191v.483l-.284.028v-2.3Zm5.42,17.052v2.072h-2.27v-.284h.369a1.724,1.724,0,0,0,1.263-.525,1.827,1.827,0,0,0,.553-1.263Zm1.759,2.072h-1.844V2475.6h1.844Zm-.085-2.072h.085a1.827,1.827,0,0,0,.553,1.263,1.722,1.722,0,0,0,1.263.525h.369v.284h-2.27Zm7.377-18.329v.823l-3.461-.313a10.668,10.668,0,0,0,1.319-.085q.695-.084,1.291-.2a4.21,4.21,0,0,0,.851-.227m0,1.277v2.3l-.284-.028v-.483a1.6,1.6,0,0,0-.5-1.191,1.742,1.742,0,0,0-1.178-.511v-.085Z" transform="translate(5966 -1288.001)" fill="#790e01"/>
    <path id="Path_815" data-name="Path 815" d="M1393.558,2477.59h-.085a1.828,1.828,0,0,0-.554-1.263,1.72,1.72,0,0,0-1.262-.525h-.369v-.283h2.27Zm0,15.719v2.071h-2.27v-.284h.369a1.718,1.718,0,0,0,1.262-.524,1.828,1.828,0,0,0,.554-1.263Zm1.759,2.071h-1.844v-19.862h1.844Zm3.632-19.861a6.878,6.878,0,0,1,2.312.368,4.582,4.582,0,0,1,2.838,2.738,6.086,6.086,0,0,1,.383,2.228,5.655,5.655,0,0,1-.639,2.61,5.55,5.55,0,0,1-1.731,2.029,4.121,4.121,0,0,1-2.454.78,3.18,3.18,0,0,1,1.05.809,14.827,14.827,0,0,1,.993,1.177q.766,1.107,1.348,1.9t1.178,1.561q.6.766,1.021,1.22a12.14,12.14,0,0,0,1.135,1.106,4.786,4.786,0,0,0,1.234.767,3.771,3.771,0,0,0,1.49.283v.284h-1.561a5.826,5.826,0,0,1-2.256-.4,5.657,5.657,0,0,1-1.6-.979,11,11,0,0,1-1.106-1.121c-.057-.075-.213-.293-.469-.652s-.558-.79-.907-1.291-.7-1-1.036-1.49-.634-.912-.88-1.262-.388-.554-.425-.611a9.845,9.845,0,0,0-1.192-1.3,2.068,2.068,0,0,0-1.419-.6v-.283q.879.027,1.5,0a8.821,8.821,0,0,0,1.617-.228,3.958,3.958,0,0,0,1.646-.822,3.855,3.855,0,0,0,1.164-1.9,5.725,5.725,0,0,0,.141-.78,5.009,5.009,0,0,0,.029-.922,4.805,4.805,0,0,0-.979-3.079,3.378,3.378,0,0,0-2.539-1.234q-.8-.057-1.632-.043t-1.972.014a1.734,1.734,0,0,0-.071-.241c-.048-.142-.118-.355-.213-.638Zm-3.717,17.79h.085a1.7,1.7,0,0,0,.539,1.263,1.767,1.767,0,0,0,1.277.524h.34v.284h-2.241Z" transform="translate(5966 -1288.001)" fill="#790e01"/>
    <path id="Path_816" data-name="Path 816" d="M1412.028,2493.309a1.448,1.448,0,0,0-.057.964,1.176,1.176,0,0,0,.47.61,1.2,1.2,0,0,0,.667.213h.255v.284h-5.7v-.284h.255a2.649,2.649,0,0,0,1.347-.411,3.028,3.028,0,0,0,1.149-1.376Zm6.1-18.188.255,1.986-7.123,18.188h-1.7l7.262-17.251c.208-.472.384-.88.526-1.22s.265-.671.369-.993a2.611,2.611,0,0,0,.156-.71Zm4,13.364h-8.881v-.851h8.881Zm-4-13.364,8.4,20.089h-2.412l-6.553-17.393Zm5.276,18.188h2.328a2.836,2.836,0,0,0,1.135,1.376,2.71,2.71,0,0,0,1.361.411h.228v.284h-6.385v-.284h.255a1.273,1.273,0,0,0,.964-.468,1.219,1.219,0,0,0,.114-1.319" transform="translate(5966 -1288.001)" fill="#790e01"/>
    <path id="Path_817" data-name="Path 817" d="M1432.117,2477.59h-.085a1.828,1.828,0,0,0-.554-1.263,1.72,1.72,0,0,0-1.262-.525h-.369v-.283h2.27Zm0,15.719v2.071h-2.27v-.284h.369a1.718,1.718,0,0,0,1.262-.524,1.828,1.828,0,0,0,.554-1.263Zm1.759,2.071h-1.844v-19.862h1.844Zm-.085-17.79v-2.071h2.27v.283h-.369a1.723,1.723,0,0,0-1.263.525,1.827,1.827,0,0,0-.553,1.263Zm0,15.719h.085a1.827,1.827,0,0,0,.553,1.263,1.721,1.721,0,0,0,1.263.524h.369v.284h-2.27Z" transform="translate(5966 -1288.001)" fill="#790e01"/>
    <path id="Path_818" data-name="Path 818" d="M1441.366,2493.365v2.015h-2.355v-.284h.54a1.743,1.743,0,0,0,1.73-1.731Zm-.056-18.273,1.248,1.589.029,18.7h-1.306v-16.741a30.211,30.211,0,0,0-.255-3.547Zm0,0,16.485,17.592.255,3.093-16.485-17.564Zm1.277,18.273a1.743,1.743,0,0,0,1.73,1.731h.539v.284H1442.5v-2.015Zm11.888-17.847h2.355v2.015h-.056a1.783,1.783,0,0,0-.526-1.234,1.671,1.671,0,0,0-1.234-.5h-.539Zm3.575,0v16.627q0,.907.057,1.745t.2,1.887h-.256l-1.276-1.5v-18.755Zm2.27,0v.284h-.51a1.687,1.687,0,0,0-1.221.5,1.752,1.752,0,0,0-.539,1.234h-.085v-2.015Z" transform="translate(5966 -1288.001)" fill="#790e01"/>
    <path id="Path_819" data-name="Path 819" d="M1465.286,2477.59h-.085a1.829,1.829,0,0,0-.554-1.263,1.72,1.72,0,0,0-1.262-.525h-.369v-.283h2.27Zm0,15.719v2.071h-2.27v-.284h.369a1.718,1.718,0,0,0,1.262-.524,1.828,1.828,0,0,0,.554-1.263Zm1.759,2.071H1465.2v-19.862h1.844Zm-.085-17.79v-2.071h2.27v.283h-.369a1.722,1.722,0,0,0-1.263.525,1.827,1.827,0,0,0-.553,1.263Zm0,15.719h.085a1.827,1.827,0,0,0,.553,1.263,1.72,1.72,0,0,0,1.263.524h.369v.284h-2.27Z" transform="translate(5966 -1288.001)" fill="#790e01"/>
    <path id="Path_820" data-name="Path 820" d="M1474.536,2493.365v2.015h-2.356v-.284h.54a1.743,1.743,0,0,0,1.73-1.731Zm-.057-18.273,1.248,1.589.029,18.7h-1.306v-16.741a30.211,30.211,0,0,0-.255-3.547Zm0,0,16.485,17.592.255,3.093-16.485-17.564Zm1.277,18.273a1.743,1.743,0,0,0,1.73,1.731h.539v.284h-2.355v-2.015Zm11.888-17.847H1490v2.015h-.056a1.782,1.782,0,0,0-.526-1.234,1.67,1.67,0,0,0-1.234-.5h-.539Zm3.575,0v16.627q0,.907.057,1.745t.2,1.887h-.256l-1.276-1.5v-18.755Zm2.27,0v.284h-.51a1.687,1.687,0,0,0-1.221.5,1.752,1.752,0,0,0-.539,1.234h-.085v-2.015Z" transform="translate(5966 -1288.001)" fill="#790e01"/>
    <path id="Path_821" data-name="Path 821" d="M1514.315,2487.435v4.682a9.482,9.482,0,0,1-4.469,3.106,11.524,11.524,0,0,1-3.759.554,10.859,10.859,0,0,1-5.306-1.32,9.2,9.2,0,0,1-3.59-3.6,12,12,0,0,1,0-10.825,9.175,9.175,0,0,1,3.59-3.617,10.643,10.643,0,0,1,5.306-1.291,14.11,14.11,0,0,1,2.809.255,11.263,11.263,0,0,1,2.255.7,12.51,12.51,0,0,1,1.831.979l.567,4h-.256a6.657,6.657,0,0,0-1.4-2.767,6.377,6.377,0,0,0-2.454-1.717,8.886,8.886,0,0,0-3.348-.6,7.483,7.483,0,0,0-4.2,1.192,8.018,8.018,0,0,0-2.837,3.32,12.585,12.585,0,0,0,0,9.931,7.907,7.907,0,0,0,2.837,3.3,7.716,7.716,0,0,0,4.2,1.207,9.5,9.5,0,0,0,2.4-.3,9.612,9.612,0,0,0,2.171-.85,8.353,8.353,0,0,0,1.816-1.32l.028-5.022q0-1.278-1.447-1.277h-.454v-.284h5.561v.284h-.425q-1.476,0-1.419,1.277" transform="translate(5966 -1288.001)" fill="#790e01"/>
    <path id="Path_822" data-name="Path 822" d="M1544.079,2487.095l-.34,4.454a8.806,8.806,0,0,1-1.859,2.171,8.573,8.573,0,0,1-2.639,1.5,10.11,10.11,0,0,1-3.475.553,10.829,10.829,0,0,1-5.25-1.305,9.1,9.1,0,0,1-3.589-3.589,12.141,12.141,0,0,1-.014-10.868,9.066,9.066,0,0,1,3.589-3.6,10.966,10.966,0,0,1,5.434-1.292,12.124,12.124,0,0,1,3.788.554,12.247,12.247,0,0,1,2.937,1.376l.567,4h-.255a6.159,6.159,0,0,0-2.554-3.788,7.882,7.882,0,0,0-11.647,3.177,12.7,12.7,0,0,0,0,9.917,7.945,7.945,0,0,0,2.809,3.32,7.763,7.763,0,0,0,4.185,1.248,9.2,9.2,0,0,0,3.731-.751,6.717,6.717,0,0,0,2.879-2.47,10.075,10.075,0,0,0,1.476-4.61Z" transform="translate(5966 -1288.001)" fill="#790e01"/>
    <path id="Path_823" data-name="Path 823" d="M1549.47,2477.59h-.085a1.7,1.7,0,0,0-.539-1.263,1.77,1.77,0,0,0-1.277-.525h-.341l-.028-.283h2.27Zm0,15.719v2.071h-2.27v-.284h.369a1.719,1.719,0,0,0,1.262-.524,1.833,1.833,0,0,0,.554-1.263Zm1.759,2.071h-1.844v-19.862h1.844Zm7.661-18.982h-7.746v-.879h7.746Zm-1.22,9.619h-6.526v-.852h6.526Zm1.22,9.363h-7.746v-.879h7.746Zm1.731-4.6-1.646,4.6h-4.71l1.021-.879a5.554,5.554,0,0,0,2.455-.469,4.029,4.029,0,0,0,1.546-1.319,10.406,10.406,0,0,0,1.05-1.929Zm-1.731-15.776v.823l-3.462-.312a11.066,11.066,0,0,0,1.32-.085c.463-.058.894-.123,1.291-.2a4.226,4.226,0,0,0,.851-.227m-1.22,8.342v1.872h-1.646v-.057a1.392,1.392,0,0,0,.965-.439,1.363,1.363,0,0,0,.4-.979v-.4Zm0,2.61v1.873h-.284v-.426a1.366,1.366,0,0,0-.4-.979,1.293,1.293,0,0,0-.965-.411v-.057Zm1.22-9.647v2.27h-.284v-.511a1.634,1.634,0,0,0-.482-1.177,1.7,1.7,0,0,0-1.192-.526v-.056Z" transform="translate(5966 -1288.001)" fill="#790e01"/>
    <path id="Path_824" data-name="Path 824" d="M1565.218,2493.365v2.015h-2.356v-.284h.539a1.743,1.743,0,0,0,1.731-1.731Zm-.057-18.273,1.248,1.589.029,18.7h-1.306v-16.741a30.211,30.211,0,0,0-.255-3.547Zm0,0,16.485,17.592.255,3.093-16.485-17.564Zm1.277,18.273a1.743,1.743,0,0,0,1.729,1.731h.54v.284h-2.355v-2.015Zm11.888-17.847h2.355v2.015h-.056a1.786,1.786,0,0,0-.526-1.234,1.67,1.67,0,0,0-1.234-.5h-.539Zm3.575,0v16.627q0,.907.057,1.745t.2,1.887h-.255l-1.276-1.5v-18.755Zm2.27,0v.284h-.51a1.687,1.687,0,0,0-1.221.5,1.748,1.748,0,0,0-.539,1.234h-.085v-2.015Z" transform="translate(5966 -1288.001)" fill="#790e01"/>
    <path id="Path_825" data-name="Path 825" d="M1586.015,2474.979a5.053,5.053,0,0,0,.865.227q.582.114,1.291.2a10.784,10.784,0,0,0,1.3.085l-3.461.313Zm16.428,1.362h-16.428v-.852h16.428Zm-14.471-.085v.085a1.72,1.72,0,0,0-1.191.511,1.616,1.616,0,0,0-.482,1.191v.483l-.284.028v-2.3Zm5.42,17.052v2.072h-2.27v-.284h.369a1.724,1.724,0,0,0,1.263-.525,1.827,1.827,0,0,0,.553-1.263Zm1.759,2.072h-1.844V2475.6h1.844Zm-.085-2.072h.085a1.827,1.827,0,0,0,.553,1.263,1.722,1.722,0,0,0,1.263.525h.369v.284h-2.27Zm7.377-18.329v.823l-3.461-.313a10.668,10.668,0,0,0,1.319-.085q.695-.084,1.291-.2a4.21,4.21,0,0,0,.851-.227m0,1.277v2.3l-.284-.028v-.483a1.594,1.594,0,0,0-.5-1.191,1.742,1.742,0,0,0-1.178-.511v-.085Z" transform="translate(5966 -1288.001)" fill="#790e01"/>
    <path id="Path_826" data-name="Path 826" d="M1606.954,2477.59h-.085a1.828,1.828,0,0,0-.554-1.263,1.72,1.72,0,0,0-1.262-.525h-.369v-.283h2.27Zm0,15.719v2.071h-2.27v-.284h.369a1.718,1.718,0,0,0,1.262-.524,1.828,1.828,0,0,0,.554-1.263Zm1.759,2.071h-1.844v-19.862h1.844Zm3.632-19.861a6.878,6.878,0,0,1,2.312.368,4.582,4.582,0,0,1,2.838,2.738,6.086,6.086,0,0,1,.383,2.228,5.655,5.655,0,0,1-.639,2.61,5.55,5.55,0,0,1-1.731,2.029,4.121,4.121,0,0,1-2.454.78,3.18,3.18,0,0,1,1.05.809,14.827,14.827,0,0,1,.993,1.177q.766,1.107,1.348,1.9t1.178,1.561q.6.766,1.021,1.22a12.14,12.14,0,0,0,1.135,1.106,4.786,4.786,0,0,0,1.234.767,3.771,3.771,0,0,0,1.49.283v.284h-1.561a5.826,5.826,0,0,1-2.256-.4,5.657,5.657,0,0,1-1.6-.979,11,11,0,0,1-1.106-1.121c-.057-.075-.213-.293-.469-.652s-.558-.79-.907-1.291-.7-1-1.036-1.49-.634-.912-.88-1.262-.388-.554-.425-.611a9.845,9.845,0,0,0-1.192-1.3,2.068,2.068,0,0,0-1.419-.6v-.283q.879.027,1.5,0a8.821,8.821,0,0,0,1.617-.228,3.958,3.958,0,0,0,1.646-.822,3.855,3.855,0,0,0,1.164-1.9,5.725,5.725,0,0,0,.141-.78,5.009,5.009,0,0,0,.029-.922,4.805,4.805,0,0,0-.979-3.079,3.378,3.378,0,0,0-2.539-1.234q-.8-.057-1.632-.043t-1.972.014a1.734,1.734,0,0,0-.071-.241c-.048-.142-.118-.355-.213-.638Zm-3.717,17.79h.085a1.7,1.7,0,0,0,.539,1.263,1.767,1.767,0,0,0,1.277.524h.34v.284h-2.241Z" transform="translate(5966 -1288.001)" fill="#790e01"/>
    <path id="Path_827" data-name="Path 827" d="M1625.312,2477.59h-.085a1.7,1.7,0,0,0-.539-1.263,1.77,1.77,0,0,0-1.277-.525h-.341l-.028-.283h2.27Zm0,15.719v2.071h-2.27v-.284h.369a1.718,1.718,0,0,0,1.262-.524,1.833,1.833,0,0,0,.554-1.263Zm1.759,2.071h-1.844v-19.862h1.844Zm7.661-18.982h-7.746v-.879h7.746Zm-1.22,9.619h-6.526v-.852h6.526Zm1.22,9.363h-7.746v-.879h7.746Zm1.731-4.6-1.646,4.6h-4.71l1.021-.879a5.554,5.554,0,0,0,2.455-.469,4.03,4.03,0,0,0,1.546-1.319,10.405,10.405,0,0,0,1.05-1.929Zm-1.731-15.776v.823l-3.462-.312a11.064,11.064,0,0,0,1.32-.085c.463-.058.893-.123,1.291-.2a4.228,4.228,0,0,0,.851-.227m-1.22,8.342v1.872h-1.646v-.057a1.392,1.392,0,0,0,.965-.439,1.363,1.363,0,0,0,.4-.979v-.4Zm0,2.61v1.873h-.284v-.426a1.366,1.366,0,0,0-.4-.979,1.293,1.293,0,0,0-.965-.411v-.057Zm1.22-9.647v2.27h-.284v-.511a1.633,1.633,0,0,0-.482-1.177,1.7,1.7,0,0,0-1.192-.526v-.056Z" transform="translate(5966 -1288.001)" fill="#790e01"/>
  </g>
</svg>
