<svg id="Group_2800" data-name="Group 2800" xmlns="http://www.w3.org/2000/svg" xmlns:xlink="http://www.w3.org/1999/xlink" width="434.541" height="118.248" viewBox="0 0 434.541 118.248">
  <defs>
    <clipPath id="clip-path">
      <rect id="Rectangle_1744" data-name="Rectangle 1744" width="434.541" height="118.248" fill="none"/>
    </clipPath>
    <clipPath id="clip-path-2">
      <rect id="Rectangle_1743" data-name="Rectangle 1743" width="79.799" height="99.148" fill="none"/>
    </clipPath>
  </defs>
  <g id="Group_2799" data-name="Group 2799" clip-path="url(#clip-path)">
    <text id="FI_GROUP" data-name="FI GROUP" transform="translate(98.293 60.827)" fill="#790e01" font-size="72" font-family="SegoeUI, Segoe UI"><tspan x="0" y="0" letter-spacing="-0.008em">FI</tspan><tspan y="0" letter-spacing="-0.009em"> </tspan><tspan y="0" letter-spacing="-0.033em">G</tspan><tspan y="0" letter-spacing="-0.053em">R</tspan><tspan y="0" letter-spacing="-0.023em">O</tspan><tspan y="0" letter-spacing="-0.021em">U</tspan><tspan y="0">P</tspan></text>
    <g id="Group_2798" data-name="Group 2798" transform="translate(0.141 12.161)">
      <g id="Group_2797" data-name="Group 2797" clip-path="url(#clip-path-2)">
        <g id="Group_2796" data-name="Group 2796">
          <g id="Group_2795" data-name="Group 2795" clip-path="url(#clip-path-2)">
            <path id="Path_921" data-name="Path 921" d="M142.336,25.318c-.051,16.217.079,32.434-.068,48.65-.006.429-.011.857-.034,1.285l-1.606-.068c0-.676-.231-.879-1.109-.62-2.794.834-5.622,1.56-8.438,2.343-.558.152-1.109.31-1.667.462L129,75.9c.9-.3,1.915-1.155,1.921-1.859.017-2.709.006-5.418.006-8.128,0-11.345-.034-22.689.039-34.039l1.572.006c.051,10.995.028,21.99.028,32.991,0,2.867.023,5.729-.011,8.6-.011.986.225,1.3,1.273.969,1.78-.58,3.6-1.076,5.43-1.481,1.138-.253,1.425-.822,1.419-1.943-.051-7.351-.028-14.7-.028-22.047,0-7.4.011-14.8-.011-22.2,0-.518.287-1.177-.456-1.5a2.621,2.621,0,0,0-1.048-.242l-.011-1.436c.479-.006.963-.006,1.442-.011,1.369-.006,1.769.355,1.769,1.746" transform="translate(-62.542 -23.564)" fill="#790e01"/>
            <path id="Path_922" data-name="Path 922" d="M78.36,75.206l1.605.068c-.405,10.787-4.748,20.115-11.885,28.232-7.367,8.376-16.448,14.375-26.6,18.859a2.58,2.58,0,0,1-2.237.186c-12.882-5.729-24.1-13.541-31.9-25.567A43.641,43.641,0,0,1,.273,72.711C.3,57.17.273,41.635.284,26.094c0-2.839-.276-2.456,2.54-2.462,8.258-.017,16.51.062,24.762-.017l.017,1.555c-1.048,0-1.318.625-1.3,1.814.068,3.087,0,3.149-3.126,3.081-1.341-.028-1.785.31-1.78,1.729q.085,22.281.011,44.555v.1l-1.448.039c0-.383-.157-.828-.157-1.138.056-7.193.039-14.386.039-21.579,0-7.244-.039-14.493.028-21.737.011-1.442-.282-2.1-1.87-1.966a46.526,46.526,0,0,1-5.014.017c-.957-.028-1.363.208-1.363,1.3q.059,21.342.006,42.685c0,1.082.49,1.47,1.093,1.628l-.411,1.476Q7.7,75.888,3.089,74.592c-1.188-.332-1.171.174-1.115,1.037A43.232,43.232,0,0,0,5.906,90.972C6.43,92.122,6.964,92.33,8.147,92c7.424-2.1,14.871-4.117,22.306-6.174l.439,1.583q-10.8,3-21.6,5.988c-1.87.518-1.9.513-.867,2.146,7.508,11.834,18.38,19.562,30.935,25.24a2.049,2.049,0,0,0,1.786-.085,71.69,71.69,0,0,0,7-3.5c9.615-5.469,17.952-12.325,23.872-21.827.715-1.149.676-1.572-.744-1.955l.439-1.572c.394.113.783.22,1.178.332.637.174.929-.068,1.206-.625a41.847,41.847,0,0,0,4.253-16.048c.006-.107.011-.209.011-.3M23.373,28.465c1.206.034,1.391-.529,1.341-1.515-.045-.884.157-1.769-1.273-1.752q-7.664.085-15.327-.005c-1.346-.011-1.335.721-1.369,1.69-.04,1.087.208,1.622,1.459,1.577,2.445-.085,4.9-.023,7.351-.023,2.6,0,5.215-.056,7.818.028M8.553,74.412c1.273.422,1.487-.017,1.476-1.183-.034-6.934-.017-13.862-.017-20.8s-.017-13.862.017-20.8c.005-1.087-.209-1.577-1.453-1.572-3.307.011-3.363-.051-3.391-3.447-.011-1.285-.614-1.431-1.645-1.42-.991.011-1.639.045-1.639,1.381q.067,22.432.011,44.87a1.23,1.23,0,0,0,1.065,1.42c1.87.479,3.746.941,5.576,1.543" transform="translate(-0.273 -23.585)" fill="#790e01"/>
            <path id="Path_923" data-name="Path 923" d="M144,72.368c.006,1.121-.282,1.69-1.419,1.943-1.831.406-3.65.9-5.43,1.481-1.048.332-1.285.017-1.273-.969.034-2.867.011-5.729.011-8.6,0-11,.023-22-.028-32.991-.006-1.419.372-1.887,1.83-1.842,3.031.1,3.036.017,3.059-3.019.011-1.25.709-2,1.707-2a2.632,2.632,0,0,1,1.048.242c.743.327.456.986.456,1.5.022,7.4.011,14.8.011,22.2,0,7.351-.022,14.7.028,22.047" transform="translate(-65.857 -24.92)" fill="#790e01"/>
            <path id="Path_924" data-name="Path 924" d="M102.447,23.575l.011,1.436c-1,0-1.7.75-1.707,2-.022,3.036-.028,3.115-3.058,3.019-1.459-.045-1.836.422-1.831,1.842l-1.572-.006v-.051c.006-1.5-.479-1.864-1.853-1.774a32.9,32.9,0,0,1-4.54,0c-1.4-.1-1.887.327-1.87,1.809.073,7.294.034,14.594.034,21.889v17.2c0,1.769.023,3.543,0,5.312v.039l-1.566.006c-.051-7.379-.028-14.758-.022-22.137V33.528c0-3.385,0-3.436-3.431-3.436-1.183,0-1.51-.383-1.5-1.532.017-3.374-.028-3.374-3.368-3.374-5.582,0-8.4,2.292-9.491,7.711-.107.535-.023,1.166-.907,1.177-.856.011-.839-.563-.951-1.127-1.1-5.458-3.909-7.756-9.452-7.762a13.512,13.512,0,0,1-1.724-.011,3.309,3.309,0,0,0-.45-.034l-.017-1.555c.726-.006,1.459-.011,2.185-.023,4.686-.062,8.218,1.561,10.393,6.281,2.23-4.906,5.937-6.359,10.719-6.286,8.657.13,17.315.073,25.972.017M97.7,28.431c1.25.045,1.5-.5,1.459-1.577-.034-.969-.028-1.7-1.369-1.69q-7.664.093-15.332.006c-1.431-.017-1.223.867-1.267,1.752-.051.986.135,1.549,1.34,1.51,2.552-.079,5.109-.023,7.661-.023,2.507,0,5.007-.062,7.508.023" transform="translate(-25.864 -23.556)" fill="#790e01"/>
            <path id="Path_925" data-name="Path 925" d="M78.278,150.8c1.419.383,1.459.805.743,1.955-5.92,9.5-14.257,16.357-23.872,21.827a71.742,71.742,0,0,1-7,3.5,2.047,2.047,0,0,1-1.786.084c-12.555-5.678-23.427-13.406-30.935-25.24-1.03-1.633-1-1.628.868-2.146q10.8-2.982,21.6-5.987l7.79-2.163c.5-.135,1.008-.259,1.481-.383,1.9.518,3.768,1.014,5.627,1.532,8.494,2.349,16.977,4.731,25.483,7.024" transform="translate(-7.277 -80.967)" fill="#790e01"/>
            <path id="Path_926" data-name="Path 926" d="M87.8,101.661l-.439,1.572c-8.506-2.293-16.989-4.675-25.482-7.024-1.859-.518-3.723-1.014-5.627-1.532-.473.124-.98.248-1.481.383l-7.79,2.163-.439-1.583c1.994-.546,3.971-1.144,6.219-1.791-.451-.2-.586-.276-.732-.315l-18.493-5.12.411-1.482a3.882,3.882,0,0,0,1.155.124c.766-.017.952-.35.952-.755l1.448-.04a1.723,1.723,0,0,0,1.515,1.972c5.447,1.431,10.866,2.952,16.29,4.467a3.564,3.564,0,0,0,1.989-.034c5.373-1.5,10.747-3.008,16.138-4.427A1.744,1.744,0,0,0,75,86.21v-.068l1.566-.006c0,.805.327,1.048,1.149.9,1.453-.259,2.14-.817,2.129-2.535-.09-12.82-.045-25.64-.045-38.461,0-.473.011-.941.011-1.408,0-.535.3-.716.795-.727s.811.158.817.693c.011.473.022.941.022,1.408V77.282c0,2.394-.006,4.794.006,7.193.006.445-.163,1,.35,1.273a1.356,1.356,0,0,0,1.03-.011l.411,1.47c-7.728,2.14-15.456,4.281-23.32,6.461.236.214.271.265.31.276q13.789,3.861,27.578,7.717" transform="translate(-16.364 -33.401)" fill="#790e01"/>
            <path id="Path_927" data-name="Path 927" d="M29.142,86.932l-.411,1.481Q26.162,87.7,23.6,86.988l.411-1.476a13.688,13.688,0,0,0,1.442.169c1.391.209.76-1.1.766-1.678.045-12.668.034-25.331.034-38,0-.468.011-.935.017-1.4.011-.541.327-.7.822-.693s.788.2.794.732c0,.468.011.935.011,1.4V84.977c0,1.07.377,1.7,1.245,1.955" transform="translate(-11.556 -33.401)" fill="#790e01"/>
            <path id="Path_928" data-name="Path 928" d="M11.553,74.712c.011,1.166-.2,1.605-1.476,1.183-1.83-.6-3.706-1.065-5.576-1.543a1.23,1.23,0,0,1-1.065-1.42q.043-22.433-.011-44.87c0-1.335.648-1.369,1.639-1.38C6.1,26.67,6.7,26.816,6.709,28.1c.028,3.4.085,3.459,3.391,3.447,1.245-.006,1.459.484,1.453,1.572-.034,6.934-.017,13.868-.017,20.8s-.017,13.862.017,20.8" transform="translate(-1.797 -25.068)" fill="#790e01"/>
          </g>
        </g>
      </g>
    </g>
    <path id="Path_929" data-name="Path 929" d="M63.187,15.765c-4.593,0-9.186.008-13.779-.006a15.3,15.3,0,0,0-4.333.552,5.715,5.715,0,0,0-3.915,2.849,1.032,1.032,0,0,1-1.924.045c-.9-1.84-2.539-2.523-4.343-3a16.243,16.243,0,0,0-4.191-.445q-14.091.015-28.184,0c-.47,0-.939-.008-1.409-.016-.494-.009-.771-.224-.775-.756-.005-.583.253-.87.842-.864.417,0,.835-.007,1.252-.007q13.936,0,27.871,0c3.439,0,6.808.261,9.472,2.835.371.359.6.218.9-.077,2.264-2.179,5.134-2.721,8.1-2.738,9.916-.057,19.833-.026,29.75-.012.608,0,1.5-.3,1.507.812s-.9.807-1.5.81c-5.115.023-10.23.013-15.344.012" transform="translate(-0.162 -6.818)" fill="#790e01"/>
    <path id="Path_930" data-name="Path 930" d="M62.393,64.53l-.738-.7c-.36-.341-.443-.338-.78.012a2.672,2.672,0,0,1-1.012.746,1.6,1.6,0,0,1-1.743-.5c-.085-.1-.095-.166-.009-.267a1.9,1.9,0,0,0,.35-.688.364.364,0,0,0-.192-.5c-.218-.092-.358.019-.456.232A3.1,3.1,0,0,1,53.44,63.98c-.237-.193-.264-.31-.024-.53.374-.342.713-.726,1.068-1.091.164-.169.351-.339.19-.61s-.377-.172-.594-.075a4.128,4.128,0,0,1-2.522.391,2.117,2.117,0,0,1-1.521-1.176c-.122-.232-.06-.326.155-.406a8.016,8.016,0,0,0,1.8-.878c.181-.126.38-.244.311-.529-.064-.265-.283-.279-.484-.3a5.846,5.846,0,0,1-1.283-.261,2.536,2.536,0,0,1-1.675-2.173c-.031-.165.008-.224.158-.216.067,0,.135,0,.2,0,2.084,0,4.168.014,6.252,0a3.982,3.982,0,0,1,3.121,1.4c.608.676,1.119,1.431,1.657,2.164a5.951,5.951,0,0,0,.994,1.114,2.489,2.489,0,0,0,.609.374c.543.228.543.226.543.841v2.5" transform="translate(-23.628 -27.15)" fill="#790e01"/>
    <path id="Path_931" data-name="Path 931" d="M80.036,64.525c0-1.06,0-2.017,0-2.973,0-.156.038-.241.192-.271a2.827,2.827,0,0,0,1.594-1.121c.623-.754,1.134-1.6,1.767-2.349A4.3,4.3,0,0,1,86.058,56.2a11.123,11.123,0,0,1,1.979-.074c1.748-.01,3.5,0,5.243-.01.289,0,.332.086.269.366a2.546,2.546,0,0,1-2.305,2.2c-.254.044-.511.07-.766.108a.367.367,0,0,0-.351.282.407.407,0,0,0,.2.45,7.154,7.154,0,0,0,1.847.928c.329.114.319.263.167.529A2.328,2.328,0,0,1,89.866,62.1a4.648,4.648,0,0,1-1.548-.45c-.209-.1-.415-.155-.562.1-.138.235-.007.4.148.559.389.4.764.808,1.164,1.192.192.184.155.28-.026.432a2.467,2.467,0,0,1-2.321.468,4.635,4.635,0,0,1-1.756-.942,1.207,1.207,0,0,1-.347-.6c-.082-.243-.237-.359-.467-.267s-.256.283-.19.505a1.661,1.661,0,0,0,.3.635c.149.17.132.274-.025.429a1.566,1.566,0,0,1-2.2.124,6.27,6.27,0,0,1-.574-.551.348.348,0,0,0-.561-.024l-.863.817" transform="translate(-38.714 -27.144)" fill="#790e01"/>
    <path id="Path_932" data-name="Path 932" d="M66.6,92a3.5,3.5,0,0,1,1.656-2.782,11.319,11.319,0,0,1,3.43-1.405,25.379,25.379,0,0,0,2.541-.8,3.871,3.871,0,0,0,1.439-.9,1.776,1.776,0,0,0,.554-1.674,1.608,1.608,0,0,0-.825-.992c-.306-.189-.337-.359-.1-.642a8.629,8.629,0,0,0,.53-.785c.064-.1.117-.165.239-.079a3.532,3.532,0,0,1,1.648,2.124,3.486,3.486,0,0,1-.955,3.2,5.867,5.867,0,0,1-2.385,1.414c-1.071.424-2.2.659-3.29,1a8.542,8.542,0,0,0-1.717.712,2.161,2.161,0,0,0-.745,3.352c.317.482.317.482-.148.831-.211.158-.422.315-.63.477-.094.073-.153.087-.248-.026A4.62,4.62,0,0,1,66.6,92" transform="translate(-32.217 -39.619)" fill="#790e01"/>
    <path id="Path_933" data-name="Path 933" d="M76.39,67.692c0-2.677,0-5.354-.006-8.031,0-.31.051-.453.368-.357a.964.964,0,0,0,.334.016c.478-.031.478-.034.478.467q0,7.781.005,15.561c0,.315-.058.487-.375.526-.261.032-.57.291-.755.138-.16-.132-.046-.517-.046-.79q-.005-3.764,0-7.529" transform="translate(-36.934 -28.672)" fill="#790e01"/>
    <path id="Path_934" data-name="Path 934" d="M77.595,105.881q0,3.692,0,7.383a6.516,6.516,0,0,1-.039.834c-.075.557-.264.859-.544.862s-.471-.295-.548-.851a6.232,6.232,0,0,1-.04-.834c0-4.8.005-9.61-.007-14.414,0-.577.07-.863.347-.934s.6-.586.783-.272a5.9,5.9,0,0,1,.048,1.616q0,3.3,0,6.609" transform="translate(-36.964 -47.189)" fill="#790e01"/>
    <path id="Path_935" data-name="Path 935" d="M75.927,54.468a1.842,1.842,0,1,1,1.742-1.829,1.791,1.791,0,0,1-1.742,1.829" transform="translate(-35.893 -24.569)" fill="#790e01"/>
    <path id="Path_936" data-name="Path 936" d="M85.506,101.18a4.311,4.311,0,0,1-1.006,2.45c-.083.117-.146.065-.221.008-.32-.241-.637-.488-.963-.719-.166-.117-.076-.208-.006-.317a3.659,3.659,0,0,0,.608-1.147,2.027,2.027,0,0,0-.684-2.136c-.18-.151-.223-.245-.061-.442a8.412,8.412,0,0,0,.586-.83c.116-.182.2-.194.367-.057a3.839,3.839,0,0,1,1.381,3.19" transform="translate(-40.184 -47.355)" fill="#790e01"/>
    <path id="Path_937" data-name="Path 937" d="M66.855,84.766a3.026,3.026,0,0,1,1.22-2.378c.637-.5.637-.5,1.081.17s.434.655-.169,1.137a1.513,1.513,0,0,0-.117,2.326c.238.273.193.367-.085.509a6.442,6.442,0,0,0-.779.491c-.167.119-.275.126-.409-.06a3.736,3.736,0,0,1-.742-2.2" transform="translate(-32.339 -39.681)" fill="#790e01"/>
    <path id="Path_938" data-name="Path 938" d="M68.533,160.576H65.476v5.359l1.736.6v.994H62.19v-.994l1.405-.577V153.923l-1.385-.577v-.993h9.4v3.719H70.5l-.516-2.171H65.476v5.128h3.079l.434-1.5H70v4.62H68.988Z" transform="translate(-30.083 -73.696)" fill="#f3f2ed"/>
    <path id="Path_939" data-name="Path 939" d="M88.134,152.352v.993l-1.405.577v12.035l1.385.577v.994h-4.67v-.994l1.405-.577V153.923l-1.385-.577v-.993Z" transform="translate(-40.363 -73.696)" fill="#f3f2ed"/>
    <path id="Path_940" data-name="Path 940" d="M64.714,185.916a3.078,3.078,0,0,1,.7-.078,1.122,1.122,0,0,1,.858.3,1.1,1.1,0,0,1,.286.786,1.644,1.644,0,0,1-.162.711,3.379,3.379,0,0,1-.414.658q-.252.317-.748.858-.225.249-.485.537t-.485.568h1.8l.188-.767h.421v1.369H63.695v-.526a4.017,4.017,0,0,1,.376-.587q.233-.309.632-.782t.624-.779a4.114,4.114,0,0,0,.384-.6,1.219,1.219,0,0,0,.158-.552.6.6,0,0,0-.2-.5.868.868,0,0,0-.549-.154c-.086,0-.173,0-.263.011s-.181.019-.271.034l-.278.775h-.4v-.971a3.684,3.684,0,0,1,.8-.312" transform="translate(-30.811 -89.894)" fill="#f3f2ed"/>
    <path id="Path_941" data-name="Path 941" d="M71.013,186.959a1.6,1.6,0,0,1,.5-.847,1.441,1.441,0,0,1,.94-.289,1.466,1.466,0,0,1,.956.289,1.6,1.6,0,0,1,.5.847,5.553,5.553,0,0,1,.15,1.414,5.673,5.673,0,0,1-.15,1.433,1.575,1.575,0,0,1-.5.846,1.477,1.477,0,0,1-.956.286,1.448,1.448,0,0,1-.944-.286,1.587,1.587,0,0,1-.5-.846,5.673,5.673,0,0,1-.15-1.433,5.553,5.553,0,0,1,.15-1.414m.632,2.644a1.224,1.224,0,0,0,.286.639.718.718,0,0,0,.526.192.741.741,0,0,0,.542-.192,1.218,1.218,0,0,0,.286-.635,6.553,6.553,0,0,0,.09-1.234,6.193,6.193,0,0,0-.094-1.214,1.23,1.23,0,0,0-.293-.64.734.734,0,0,0-.531-.192.718.718,0,0,0-.526.192,1.222,1.222,0,0,0-.286.636,6.4,6.4,0,0,0-.09,1.218,6.517,6.517,0,0,0,.09,1.23" transform="translate(-34.278 -89.887)" fill="#f3f2ed"/>
    <path id="Path_942" data-name="Path 942" d="M78.792,186.959a1.6,1.6,0,0,1,.5-.847,1.441,1.441,0,0,1,.94-.289,1.466,1.466,0,0,1,.956.289,1.6,1.6,0,0,1,.5.847,5.553,5.553,0,0,1,.15,1.414,5.673,5.673,0,0,1-.15,1.433,1.575,1.575,0,0,1-.5.846,1.477,1.477,0,0,1-.956.286,1.448,1.448,0,0,1-.944-.286,1.587,1.587,0,0,1-.5-.846,5.673,5.673,0,0,1-.15-1.433,5.553,5.553,0,0,1,.15-1.414m.632,2.644a1.224,1.224,0,0,0,.286.639.718.718,0,0,0,.526.192.741.741,0,0,0,.542-.192,1.218,1.218,0,0,0,.285-.635,6.553,6.553,0,0,0,.09-1.234,6.193,6.193,0,0,0-.094-1.214,1.23,1.23,0,0,0-.293-.64.734.734,0,0,0-.531-.192.718.718,0,0,0-.526.192,1.222,1.222,0,0,0-.286.636,6.4,6.4,0,0,0-.09,1.218,6.517,6.517,0,0,0,.09,1.23" transform="translate(-38.041 -89.887)" fill="#f3f2ed"/>
    <path id="Path_943" data-name="Path 943" d="M89.132,186v1.09h-.406l-.158-.489H87.138v1.376a3.773,3.773,0,0,1,.692-.068,1.735,1.735,0,0,1,1.147.361,1.35,1.35,0,0,1,.433,1.1,1.986,1.986,0,0,1-.177.861,1.3,1.3,0,0,1-.519.576,1.6,1.6,0,0,1-.831.2,2.6,2.6,0,0,1-.722-.1,4.289,4.289,0,0,1-.8-.335v-1.06h.421l.271.849a1.111,1.111,0,0,0,.3.079,3.045,3.045,0,0,0,.354.019,1.082,1.082,0,0,0,.582-.139.793.793,0,0,0,.32-.376,1.443,1.443,0,0,0,.1-.553.838.838,0,0,0-.331-.741,1.434,1.434,0,0,0-.835-.23,2.421,2.421,0,0,0-.594.076l-.331-.143V186Z" transform="translate(-41.776 -89.971)" fill="#f3f2ed"/>
    <text id="OF_INSTITUTIONS" data-name="OF INSTITUTIONS" transform="translate(101.322 104.283)" fill="#790e01" font-size="37" font-family="SegoeUI, Segoe UI"><tspan x="0" y="0" letter-spacing="-0.02em">O</tspan><tspan y="0">F INSTITUT</tspan><tspan y="0" letter-spacing="-0.019em">IO</tspan><tspan y="0">NS</tspan></text>
  </g>
</svg>
