<svg id="Group_2723" data-name="Group 2723" xmlns="http://www.w3.org/2000/svg" xmlns:xlink="http://www.w3.org/1999/xlink" width="211.806" height="47.057" viewBox="0 0 211.806 47.057">
  <defs>
    <clipPath id="clip-path">
      <rect id="Rectangle_1713" data-name="Rectangle 1713" width="211.806" height="47.057" fill="none"/>
    </clipPath>
    <clipPath id="clip-path-2">
      <rect id="Rectangle_1712" data-name="Rectangle 1712" width="29.686" height="36.884" fill="none"/>
    </clipPath>
  </defs>
  <g id="Group_2702" data-name="Group 2702">
    <g id="Group_2701" data-name="Group 2701" clip-path="url(#clip-path)">
      <text id="FI_GROUP" data-name="FI GROUP" transform="translate(37.308 18.044)" fill="#f3f2ed" font-size="22" font-family="SegoeUI, Segoe UI"><tspan x="0" y="0" letter-spacing="-0.008em">FI </tspan><tspan y="0" letter-spacing="-0.033em">G</tspan><tspan y="0" letter-spacing="-0.053em">R</tspan><tspan y="0" letter-spacing="-0.023em">O</tspan><tspan y="0" letter-spacing="-0.021em">U</tspan><tspan y="0">P</tspan></text>
      <text id="OF_INSTITUTIONS" data-name="OF INSTITUTIONS" transform="translate(36.745 39.032)" fill="#f3f2ed" font-size="19" font-family="SegoeUI, Segoe UI"><tspan x="0" y="0" letter-spacing="-0.019em">O</tspan><tspan y="0">F INSTITUT</tspan><tspan y="0" letter-spacing="-0.02em">I</tspan><tspan y="0" letter-spacing="-0.019em">O</tspan><tspan y="0">NS</tspan></text>
      <g id="Group_2700" data-name="Group 2700" transform="translate(0.052 3.856)">
        <g id="Group_2699" data-name="Group 2699" clip-path="url(#clip-path-2)">
          <g id="Group_2698" data-name="Group 2698">
            <g id="Group_2697" data-name="Group 2697" clip-path="url(#clip-path-2)">
              <path id="Path_901" data-name="Path 901" d="M133.963,20.741c-.019,6.033.029,12.066-.025,18.1,0,.159,0,.319-.012.478l-.6-.025c0-.251-.086-.327-.413-.23-1.039.31-2.091.58-3.139.872l-.62.172L129,39.559c.335-.111.713-.43.715-.692.006-1.008,0-2.016,0-3.024,0-4.22-.013-8.441.015-12.663l.585,0c.019,4.09.01,8.18.01,12.273,0,1.067.008,2.131,0,3.2,0,.367.084.484.473.361.662-.216,1.339-.4,2.02-.551.423-.094.53-.306.528-.723-.019-2.735-.01-5.467-.01-8.2,0-2.754,0-5.507,0-8.258,0-.193.107-.438-.17-.559a.975.975,0,0,0-.39-.09l0-.534.536,0c.509,0,.658.132.658.65" transform="translate(-104.279 -20.089)" fill="#f3f2ed"/>
              <path id="Path_902" data-name="Path 902" d="M29.322,39.327l.6.025a16.575,16.575,0,0,1-4.421,10.5,27.875,27.875,0,0,1-9.9,7.016.96.96,0,0,1-.832.069C9.977,54.809,5.8,51.9,2.9,47.429A16.235,16.235,0,0,1,.273,38.4c.008-5.781,0-11.561,0-17.342,0-1.056-.1-.914.945-.916,3.072-.006,6.142.023,9.212-.006l.006.578c-.39,0-.49.233-.482.675.025,1.148,0,1.171-1.163,1.146-.5-.011-.664.115-.662.643q.032,8.288,0,16.575v.036L7.6,39.8c0-.143-.059-.308-.059-.423.021-2.676.015-5.352.015-8.028,0-2.695-.015-5.392.011-8.086,0-.536-.1-.78-.7-.731A17.308,17.308,0,0,1,5,22.541c-.356-.011-.507.077-.507.484q.022,7.94,0,15.879c0,.4.182.547.407.606l-.153.549q-1.716-.478-3.432-.96c-.442-.124-.436.065-.415.386a16.083,16.083,0,0,0,1.463,5.708c.195.428.394.505.834.381,2.762-.782,5.532-1.532,8.3-2.3l.163.589Q7.647,44.982,3.63,46.094c-.7.193-.706.191-.323.8,2.793,4.4,6.837,7.277,11.508,9.39a.762.762,0,0,0,.664-.031,26.671,26.671,0,0,0,2.6-1.3,24.1,24.1,0,0,0,8.881-8.12c.266-.427.251-.585-.277-.727l.163-.585.438.124c.237.065.346-.025.448-.233a15.568,15.568,0,0,0,1.582-5.97c0-.04,0-.078,0-.111M8.866,21.939c.448.013.518-.2.5-.564-.017-.329.059-.658-.474-.652q-2.851.032-5.7,0c-.5,0-.5.268-.509.629-.015.4.077.6.543.587.909-.031,1.823-.008,2.735-.008.968,0,1.94-.021,2.908.01M3.353,39.032c.474.157.553-.006.549-.44-.013-2.58-.006-5.157-.006-7.736S3.89,25.7,3.9,23.119c0-.4-.078-.587-.541-.585-1.23,0-1.251-.019-1.261-1.282,0-.478-.229-.532-.612-.528s-.61.017-.61.514Q.9,29.582.883,37.93a.457.457,0,0,0,.4.528c.7.178,1.393.35,2.074.574" transform="translate(-0.273 -20.124)" fill="#f3f2ed"/>
              <path id="Path_903" data-name="Path 903" d="M138.884,40c0,.417-.1.629-.528.723-.681.151-1.358.335-2.02.551-.39.124-.478.006-.474-.36.013-1.067,0-2.131,0-3.2,0-4.092.008-8.183-.01-12.273,0-.528.138-.7.681-.685,1.127.036,1.13.006,1.138-1.123,0-.465.264-.744.635-.744a.979.979,0,0,1,.39.09c.277.122.17.367.17.559.008,2.751,0,5.5,0,8.258,0,2.735-.008,5.467.011,8.2" transform="translate(-109.816 -22.354)" fill="#f3f2ed"/>
              <path id="Path_904" data-name="Path 904" d="M71.506,20.083l0,.534c-.371,0-.631.279-.635.744-.008,1.129-.01,1.159-1.138,1.123-.543-.017-.683.157-.681.685l-.585,0v-.019c0-.557-.178-.694-.689-.66a12.239,12.239,0,0,1-1.689,0c-.522-.038-.7.122-.7.673.027,2.713.012,5.429.012,8.143v6.4c0,.658.008,1.318,0,1.976v.015l-.583,0c-.019-2.745-.01-5.49-.008-8.235V23.786c0-1.259,0-1.278-1.276-1.278-.44,0-.562-.143-.559-.57.006-1.255-.01-1.255-1.253-1.255A3.125,3.125,0,0,0,58.2,23.551c-.04.2-.008.434-.337.438s-.312-.21-.354-.419a3.128,3.128,0,0,0-3.516-2.887,5.026,5.026,0,0,1-.641,0,1.231,1.231,0,0,0-.167-.013l-.006-.578c.27,0,.543,0,.813-.008a3.766,3.766,0,0,1,3.866,2.336,3.816,3.816,0,0,1,3.988-2.338c3.221.048,6.441.027,9.662.006m-1.764,1.806c.465.017.557-.184.543-.587-.013-.36-.011-.633-.509-.629q-2.851.035-5.7,0c-.532-.006-.455.323-.472.652-.019.367.05.576.5.562.949-.029,1.9-.008,2.85-.008.932,0,1.863-.023,2.793.008" transform="translate(-43.016 -20.076)" fill="#f3f2ed"/>
              <path id="Path_905" data-name="Path 905" d="M38.385,141.946c.528.143.543.3.277.727a24.1,24.1,0,0,1-8.881,8.12,26.693,26.693,0,0,1-2.6,1.3.761.761,0,0,1-.664.031c-4.671-2.112-8.715-4.987-11.508-9.39-.383-.608-.373-.606.323-.8q4.017-1.109,8.034-2.227l2.9-.8c.186-.05.375-.1.551-.143.708.193,1.4.377,2.093.57,3.16.874,6.316,1.76,9.48,2.613" transform="translate(-11.971 -115.968)" fill="#f3f2ed"/>
              <path id="Path_906" data-name="Path 906" d="M53.726,61.913l-.163.585c-3.164-.853-6.32-1.739-9.48-2.613-.692-.193-1.385-.377-2.093-.57-.176.046-.365.092-.551.143l-2.9.8-.163-.589c.742-.2,1.477-.425,2.313-.666-.168-.073-.218-.1-.272-.117l-6.879-1.9.153-.551a1.444,1.444,0,0,0,.43.046c.285-.006.354-.13.354-.281l.539-.015a.641.641,0,0,0,.564.733c2.026.532,4.042,1.1,6.06,1.662a1.326,1.326,0,0,0,.74-.013c2-.557,4-1.119,6-1.647a.649.649,0,0,0,.58-.754V56.14l.583,0c0,.3.122.39.428.335a.8.8,0,0,0,.792-.943c-.034-4.769-.017-9.539-.017-14.308,0-.176,0-.35,0-.524,0-.2.111-.266.3-.27s.3.059.3.258c0,.176.008.35.008.524V52.843c0,.891,0,1.783,0,2.676,0,.166-.061.371.13.473a.5.5,0,0,0,.383,0l.153.547-8.675,2.4c.088.08.1.1.115.1q5.13,1.436,10.259,2.871" transform="translate(-27.149 -36.519)" fill="#f3f2ed"/>
              <path id="Path_907" data-name="Path 907" d="M25.661,56.433l-.153.551-1.909-.53.153-.549a5.091,5.091,0,0,0,.536.063c.518.078.283-.409.285-.624.017-4.713.012-9.423.012-14.136,0-.174,0-.348.006-.522,0-.2.122-.26.306-.258s.293.073.3.272c0,.174,0,.348,0,.522V55.706c0,.4.14.633.463.727" transform="translate(-19.119 -36.519)" fill="#f3f2ed"/>
              <path id="Path_908" data-name="Path 908" d="M6.449,41.068c0,.434-.075.6-.549.44-.681-.224-1.379-.4-2.074-.574a.458.458,0,0,1-.4-.528q.016-8.345,0-16.692c0-.5.241-.509.61-.513s.608.05.612.528c.011,1.264.031,1.287,1.261,1.282.463,0,.543.18.541.585-.012,2.58-.006,5.159-.006,7.736s-.006,5.157.006,7.736" transform="translate(-2.82 -22.6)" fill="#f3f2ed"/>
            </g>
          </g>
        </g>
      </g>
      <path id="Path_909" data-name="Path 909" d="M23.717,11.236c-1.709,0-3.417,0-5.126,0a5.684,5.684,0,0,0-1.612.205,2.126,2.126,0,0,0-1.456,1.06.384.384,0,0,1-.716.017A2.229,2.229,0,0,0,13.191,11.4a6.042,6.042,0,0,0-1.559-.166q-5.242.005-10.485,0c-.175,0-.349,0-.524-.006s-.287-.083-.288-.281c0-.217.094-.324.313-.321.155,0,.311,0,.466,0q5.184,0,10.368,0a4.7,4.7,0,0,1,3.524,1.055c.138.133.221.081.336-.029a4.146,4.146,0,0,1,3.012-1.019c3.689-.021,7.378-.01,11.067,0,.226,0,.558-.11.56.3s-.334.3-.557.3c-1.9.009-3.806,0-5.708,0" transform="translate(-0.271 -8.576)" fill="#f3f2ed"/>
      <path id="Path_910" data-name="Path 910" d="M53.886,55.773l-.274-.26c-.134-.127-.165-.126-.29,0a.994.994,0,0,1-.377.278.593.593,0,0,1-.649-.187c-.031-.038-.035-.062,0-.1a.706.706,0,0,0,.13-.256.136.136,0,0,0-.071-.186c-.081-.034-.133.007-.17.086a1.152,1.152,0,0,1-1.627.416c-.088-.072-.1-.115-.009-.2.139-.127.265-.27.4-.406.061-.063.13-.126.071-.227s-.14-.064-.221-.028a1.536,1.536,0,0,1-.938.145.788.788,0,0,1-.566-.437c-.045-.086-.022-.121.058-.151a2.982,2.982,0,0,0,.668-.327c.067-.047.141-.091.116-.2s-.105-.1-.18-.111a2.175,2.175,0,0,1-.477-.1.943.943,0,0,1-.623-.808c-.012-.061,0-.083.059-.08.025,0,.05,0,.075,0,.775,0,1.551.005,2.326,0a1.481,1.481,0,0,1,1.161.522c.226.251.416.532.617.805a2.214,2.214,0,0,0,.37.414.926.926,0,0,0,.227.139c.2.085.2.084.2.313v.931" transform="translate(-39.465 -42.535)" fill="#f3f2ed"/>
      <path id="Path_911" data-name="Path 911" d="M80.034,55.764c0-.394,0-.75,0-1.106,0-.058.014-.09.071-.1a1.052,1.052,0,0,0,.593-.417c.232-.28.422-.6.657-.874a1.6,1.6,0,0,1,.92-.6,4.138,4.138,0,0,1,.736-.028c.65,0,1.3,0,1.951,0,.108,0,.124.032.1.136a.947.947,0,0,1-.858.818c-.094.017-.19.026-.285.04a.136.136,0,0,0-.131.1.152.152,0,0,0,.075.167,2.661,2.661,0,0,0,.687.345c.122.042.119.1.062.2a.866.866,0,0,1-.921.418,1.729,1.729,0,0,1-.576-.167c-.078-.036-.154-.058-.209.036s0,.149.055.208c.145.148.284.3.433.443.071.069.058.1-.01.161a.918.918,0,0,1-.864.174,1.724,1.724,0,0,1-.653-.351.449.449,0,0,1-.129-.224c-.03-.09-.088-.134-.174-.1s-.1.105-.071.188a.618.618,0,0,0,.112.236c.055.063.049.1-.009.16a.582.582,0,0,1-.82.046,2.332,2.332,0,0,1-.213-.2.13.13,0,0,0-.209-.009l-.321.3" transform="translate(-64.662 -42.527)" fill="#f3f2ed"/>
      <path id="Path_912" data-name="Path 912" d="M66.6,82.178a1.3,1.3,0,0,1,.616-1.035,4.211,4.211,0,0,1,1.276-.523,9.441,9.441,0,0,0,.945-.3,1.44,1.44,0,0,0,.535-.333.661.661,0,0,0,.206-.623A.6.6,0,0,0,69.875,79c-.114-.07-.125-.134-.039-.239a3.209,3.209,0,0,0,.2-.292c.024-.036.044-.061.089-.029a1.314,1.314,0,0,1,.613.79,1.3,1.3,0,0,1-.355,1.19,2.183,2.183,0,0,1-.887.526c-.4.158-.817.245-1.224.372a3.178,3.178,0,0,0-.639.265.8.8,0,0,0-.277,1.247c.118.179.118.179-.055.309-.078.059-.157.117-.234.177-.035.027-.057.032-.092-.01a1.719,1.719,0,0,1-.369-1.126" transform="translate(-53.811 -63.361)" fill="#f3f2ed"/>
      <path id="Path_913" data-name="Path 913" d="M76.367,58.926c0-1,0-1.992,0-2.988,0-.115.019-.168.137-.133a.359.359,0,0,0,.124.006c.178-.012.178-.012.178.174q0,2.894,0,5.789c0,.117-.022.181-.139.2-.1.012-.212.108-.281.051s-.017-.192-.017-.294q0-1.4,0-2.8" transform="translate(-61.689 -45.078)" fill="#f3f2ed"/>
      <path id="Path_914" data-name="Path 914" d="M76.854,97.171q0,1.373,0,2.746a2.424,2.424,0,0,1-.014.31c-.028.207-.1.32-.2.321s-.175-.11-.2-.317a2.319,2.319,0,0,1-.015-.31c0-1.787,0-3.575,0-5.362,0-.215.026-.321.129-.347s.222-.218.291-.1a2.195,2.195,0,0,1,.018.6q0,1.229,0,2.459" transform="translate(-61.739 -76.006)" fill="#f3f2ed"/>
      <path id="Path_915" data-name="Path 915" d="M74.844,48.678a.685.685,0,1,1,.648-.68.666.666,0,0,1-.648.68" transform="translate(-59.951 -38.224)" fill="#f3f2ed"/>
      <path id="Path_916" data-name="Path 916" d="M83.978,95.639a1.6,1.6,0,0,1-.374.912c-.031.044-.054.024-.082,0-.119-.089-.237-.182-.358-.267-.062-.044-.028-.077,0-.118a1.361,1.361,0,0,0,.226-.427.754.754,0,0,0-.254-.795c-.067-.056-.083-.091-.023-.165a3.1,3.1,0,0,0,.218-.308c.043-.068.075-.072.136-.021a1.428,1.428,0,0,1,.514,1.187" transform="translate(-67.117 -76.284)" fill="#f3f2ed"/>
      <path id="Path_917" data-name="Path 917" d="M66.855,79.569a1.126,1.126,0,0,1,.454-.885c.237-.186.237-.186.4.063s.161.244-.063.423a.563.563,0,0,0-.043.865c.089.1.072.136-.032.189a2.4,2.4,0,0,0-.29.183c-.062.044-.1.047-.152-.022a1.39,1.39,0,0,1-.276-.817" transform="translate(-54.015 -63.465)" fill="#f3f2ed"/>
      <path id="Path_918" data-name="Path 918" d="M64.55,151.931H63.412v1.994l.646.223v.37H62.19v-.37l.523-.215v-4.477l-.515-.215v-.37h3.5v1.384H65.28l-.192-.808H63.412v1.908h1.145l.162-.559H65.1v1.719h-.377Z" transform="translate(-50.246 -120.279)" fill="#790e01"/>
      <path id="Path_919" data-name="Path 919" d="M85.188,148.872v.37l-.523.215v4.477l.515.215v.37H83.443v-.37l.523-.215v-4.477l-.515-.215v-.37Z" transform="translate(-67.416 -120.279)" fill="#790e01"/>
    </g>
  </g>
  <text id="_2005" data-name="2005" transform="translate(12.177 35.78)" fill="#790e01" font-size="1" font-family="SegoeUI, Segoe UI"><tspan x="0" y="0">2005</tspan></text>
</svg>
