<svg xmlns="http://www.w3.org/2000/svg" xmlns:xlink="http://www.w3.org/1999/xlink" width="769.052" height="141.735" viewBox="0 0 769.052 141.735">
  <defs>
    <clipPath id="clip-path">
      <rect id="Rectangle_1700" data-name="Rectangle 1700" width="108.718" height="135.084" transform="translate(870.865 2915.674)" fill="none"/>
    </clipPath>
  </defs>
  <g id="Group_2697" data-name="Group 2697" transform="translate(-6836.865 -1621.022)">
    <g id="Group_2675" data-name="Group 2675">
      <path id="Path_828" data-name="Path 828" d="M1017.008,2922.68h-.308a6.165,6.165,0,0,0-1.955-4.578,6.416,6.416,0,0,0-4.63-1.9h-1.235l-.1-1.029h8.231Zm0,57v7.511h-8.231v-1.029h1.338a6.239,6.239,0,0,0,4.578-1.9,6.624,6.624,0,0,0,2.007-4.579Zm6.38,7.511H1016.7v-72.025h6.688Zm27.781-68.835h-28.09v-3.19h28.09Zm-4.424,34.88H1023.08v-3.086h23.665Zm-23.666,26.444h.309a6.61,6.61,0,0,0,2.006,4.579,6.236,6.236,0,0,0,4.579,1.9h1.338v1.029h-8.232Zm28.09-66.366v2.984l-12.553-1.132a39.443,39.443,0,0,0,4.784-.309q2.522-.308,4.682-.72a15.359,15.359,0,0,0,3.087-.823m-4.424,30.25v6.791h-5.968v-.2a5.052,5.052,0,0,0,3.5-1.595,4.933,4.933,0,0,0,1.441-3.55v-1.441Zm0,9.467v6.791h-1.029v-1.544a4.94,4.94,0,0,0-1.441-3.55,4.689,4.689,0,0,0-3.5-1.492v-.205Zm4.424-34.984v6.894h-1.029V2923.4a5.1,5.1,0,0,0-5.042-5.042v-.309Z" transform="translate(5966 -1288.001)" fill="#f3f2ed"/>
      <path id="Path_829" data-name="Path 829" d="M1071.746,2922.681h-.309a6.624,6.624,0,0,0-2.006-4.579,6.25,6.25,0,0,0-4.579-1.9h-1.337v-1.028h8.231Zm0,57v7.511h-8.231v-1.029h1.337a6.238,6.238,0,0,0,4.579-1.9,6.616,6.616,0,0,0,2.006-4.578Zm6.379,7.511h-6.688V2915.17h6.688Zm-.308-64.514v-7.511h8.231v1.028h-1.337a6.243,6.243,0,0,0-4.579,1.9,6.621,6.621,0,0,0-2.007,4.579Zm0,57h.308a6.613,6.613,0,0,0,2.007,4.578,6.232,6.232,0,0,0,4.579,1.9h1.337v1.029h-8.231Z" transform="translate(5966 -1288.001)" fill="#f3f2ed"/>
      <path id="Path_830" data-name="Path 830" d="M1130.4,2922.681h-.309a6.624,6.624,0,0,0-2.006-4.579,6.249,6.249,0,0,0-4.579-1.9h-1.337v-1.028h8.231Zm0,57v7.511h-8.231v-1.029h1.337a6.238,6.238,0,0,0,4.579-1.9,6.616,6.616,0,0,0,2.006-4.578Zm6.38,7.511h-6.688V2915.17h6.688Zm-.309-64.514v-7.511h8.231v1.028h-1.337a6.243,6.243,0,0,0-4.579,1.9,6.615,6.615,0,0,0-2.006,4.579Zm0,57h.309a6.607,6.607,0,0,0,2.006,4.578,6.232,6.232,0,0,0,4.579,1.9h1.337v1.029h-8.231Z" transform="translate(5966 -1288.001)" fill="#f3f2ed"/>
      <path id="Path_831" data-name="Path 831" d="M1163.011,2979.89v7.305h-8.539v-1.029h1.955a6.322,6.322,0,0,0,6.276-6.276Zm-.2-66.264,4.526,5.762.1,67.807H1162.7v-60.707a109.321,109.321,0,0,0-.926-12.862Zm0,0,59.781,63.794.926,11.216-59.781-63.691Zm4.63,66.264a6.322,6.322,0,0,0,6.276,6.276h1.954v1.029h-8.539v-7.305Zm43.111-64.72h8.541v7.305h-.207a6.461,6.461,0,0,0-1.9-4.476,6.081,6.081,0,0,0-4.475-1.8h-1.956Zm12.966,0v60.3q0,3.294.2,6.328t.72,6.843h-.925l-4.632-5.453V2915.17Zm8.231,0v1.029h-1.853a6.126,6.126,0,0,0-4.423,1.8,6.349,6.349,0,0,0-1.955,4.476h-.31v-7.305Z" transform="translate(5966 -1288.001)" fill="#f3f2ed"/>
      <path id="Path_832" data-name="Path 832" d="M1261.274,2913.729a33.27,33.27,0,0,1,3.55.206q1.9.207,3.7.566t3.292.72a11.386,11.386,0,0,1,2.315.772v11.421h-.926a9.568,9.568,0,0,0-3.4-7.768,12.433,12.433,0,0,0-8.232-2.83,12.281,12.281,0,0,0-9.157,3.55,11.43,11.43,0,0,0-3.5,8.283,14.785,14.785,0,0,0,.874,4.578,12.054,12.054,0,0,0,3.241,4.888l20.27,18.726a14.4,14.4,0,0,1,4.116,6.174,21.381,21.381,0,0,1,1.029,6.38q0,8.541-5.2,13.89t-14.045,5.35a39.076,39.076,0,0,1-5.814-.514,28.4,28.4,0,0,1-6.482-1.8,15.566,15.566,0,0,1-5.2-3.344,22.85,22.85,0,0,1-.309-4.116,34.776,34.776,0,0,1,.412-5.2,32.234,32.234,0,0,1,1.132-4.99h.926a17.164,17.164,0,0,0,1.337,9.158,12.967,12.967,0,0,0,5.4,5.916,14.72,14.72,0,0,0,8.077,1.8,15.373,15.373,0,0,0,9.724-3.962,12.556,12.556,0,0,0,4.064-9.827,13.685,13.685,0,0,0-1.029-5.4,11.66,11.66,0,0,0-2.984-4.167l-19.755-18.315a16.078,16.078,0,0,1-4.322-6.328,19.146,19.146,0,0,1-1.235-6.431,18.027,18.027,0,0,1,2.058-8.334,16.436,16.436,0,0,1,6.122-6.534,18.494,18.494,0,0,1,9.93-2.521m12.861,3.19h-7.82v-2.161h7.82Z" transform="translate(5966 -1288.001)" fill="#f3f2ed"/>
      <path id="Path_833" data-name="Path 833" d="M1285.453,2913.214a18.5,18.5,0,0,0,3.138.824q2.108.412,4.682.72a39.877,39.877,0,0,0,4.733.309l-12.553,1.131Zm59.575,4.94h-59.575v-3.087h59.575Zm-52.476-.309v.309a6.249,6.249,0,0,0-4.321,1.851,5.873,5.873,0,0,0-1.749,4.322v1.749l-1.029.1v-8.334Zm19.653,61.839v7.511h-8.231v-1.029h1.337a6.238,6.238,0,0,0,4.579-1.9,6.624,6.624,0,0,0,2.006-4.578Zm6.38,7.511H1311.9v-71.716h6.688Zm-.309-7.511h.309a6.608,6.608,0,0,0,2.006,4.578,6.232,6.232,0,0,0,4.579,1.9h1.337v1.029h-8.231Zm26.752-66.47v2.984l-12.553-1.131a39.422,39.422,0,0,0,4.785-.309q2.52-.309,4.681-.72a15.378,15.378,0,0,0,3.087-.824m0,4.631v8.334l-1.029-.1v-1.749a5.793,5.793,0,0,0-1.8-4.322,6.325,6.325,0,0,0-4.27-1.851v-.309Z" transform="translate(5966 -1288.001)" fill="#f3f2ed"/>
      <path id="Path_834" data-name="Path 834" d="M1360.461,2922.681h-.309a6.623,6.623,0,0,0-2.006-4.579,6.25,6.25,0,0,0-4.579-1.9h-1.337v-1.028h8.231Zm0,57v7.511h-8.231v-1.029h1.337a6.238,6.238,0,0,0,4.579-1.9,6.616,6.616,0,0,0,2.006-4.578Zm6.38,7.511h-6.688V2915.17h6.688Zm-.309-64.514v-7.511h8.232v1.028h-1.338a6.243,6.243,0,0,0-4.579,1.9,6.615,6.615,0,0,0-2.006,4.579Zm0,57h.309a6.607,6.607,0,0,0,2.006,4.578,6.232,6.232,0,0,0,4.579,1.9h1.338v1.029h-8.232Z" transform="translate(5966 -1288.001)" fill="#f3f2ed"/>
      <path id="Path_835" data-name="Path 835" d="M1381.966,2913.214a18.51,18.51,0,0,0,3.138.824q2.108.412,4.682.72a39.862,39.862,0,0,0,4.733.309l-12.553,1.131Zm59.575,4.94h-59.575v-3.087h59.575Zm-52.475-.309v.309a6.247,6.247,0,0,0-4.322,1.851,5.873,5.873,0,0,0-1.749,4.322v1.749l-1.029.1v-8.334Zm19.652,61.839v7.511h-8.231v-1.029h1.337a6.238,6.238,0,0,0,4.579-1.9,6.625,6.625,0,0,0,2.006-4.578Zm6.38,7.511h-6.688v-71.716h6.688Zm-.309-7.511h.309a6.607,6.607,0,0,0,2.006,4.578,6.232,6.232,0,0,0,4.579,1.9h1.337v1.029h-8.231Zm26.752-66.47v2.984l-12.553-1.131a39.422,39.422,0,0,0,4.785-.309q2.519-.309,4.681-.72a15.38,15.38,0,0,0,3.087-.824m0,4.631v8.334l-1.029-.1v-1.749a5.793,5.793,0,0,0-1.8-4.322,6.323,6.323,0,0,0-4.27-1.851v-.309Z" transform="translate(5966 -1288.001)" fill="#f3f2ed"/>
      <path id="Path_836" data-name="Path 836" d="M1455.123,2915.17v6.174h-.309a4.775,4.775,0,0,0-1.595-3.705,5.558,5.558,0,0,0-3.858-1.44h-1.647v-1.029Zm6.379,0v45.273a29.749,29.749,0,0,0,2.727,13.068,20.354,20.354,0,0,0,19.086,11.935,23.567,23.567,0,0,0,12.039-2.984,20.949,20.949,0,0,0,8.025-8.283,25.572,25.572,0,0,0,2.881-12.4v-46.61h4.836v46.61a27.785,27.785,0,0,1-3.446,14.046,24.279,24.279,0,0,1-9.724,9.414,30.24,30.24,0,0,1-14.611,3.4,32.006,32.006,0,0,1-14.971-3.345,24.343,24.343,0,0,1-9.98-9.363,27.126,27.126,0,0,1-3.55-14.045V2915.17Zm7.1,0v1.029h-1.647a5.551,5.551,0,0,0-3.858,1.44,4.765,4.765,0,0,0-1.6,3.705h-.206v-6.174Zm37.967,0v6.174h-.309a4.774,4.774,0,0,0-1.594-3.705,5.561,5.561,0,0,0-3.859-1.44h-1.646v-1.029Zm11.627,0v1.029h-1.646a5.554,5.554,0,0,0-3.859,1.44,4.768,4.768,0,0,0-1.6,3.705h-.2v-6.174Z" transform="translate(5966 -1288.001)" fill="#f3f2ed"/>
      <path id="Path_837" data-name="Path 837" d="M1524.471,2913.214a18.51,18.51,0,0,0,3.138.824q2.108.412,4.682.72a39.862,39.862,0,0,0,4.733.309l-12.553,1.131Zm59.575,4.94h-59.575v-3.087h59.575Zm-52.475-.309v.309a6.247,6.247,0,0,0-4.322,1.851,5.873,5.873,0,0,0-1.749,4.322v1.749l-1.029.1v-8.334Zm19.652,61.839v7.511h-8.231v-1.029h1.337a6.238,6.238,0,0,0,4.579-1.9,6.624,6.624,0,0,0,2.006-4.578Zm6.38,7.511h-6.688v-71.716h6.688Zm-.309-7.511h.309a6.607,6.607,0,0,0,2.006,4.578,6.232,6.232,0,0,0,4.579,1.9h1.337v1.029h-8.231Zm26.752-66.47v2.984l-12.553-1.131a39.422,39.422,0,0,0,4.785-.309q2.519-.309,4.681-.72a15.38,15.38,0,0,0,3.087-.824m0,4.631v8.334l-1.029-.1v-1.749a5.793,5.793,0,0,0-1.8-4.322,6.323,6.323,0,0,0-4.27-1.851v-.309Z" transform="translate(5966 -1288.001)" fill="#f3f2ed"/>
      <path id="Path_838" data-name="Path 838" d="M1599.48,2922.68h-.308a6.165,6.165,0,0,0-1.955-4.578,6.416,6.416,0,0,0-4.63-1.9h-1.235l-.1-1.029h8.231Zm0,57v7.511h-8.231v-1.029h1.338a6.239,6.239,0,0,0,4.578-1.9,6.624,6.624,0,0,0,2.007-4.579Zm6.38,7.511h-6.688v-72.025h6.688Zm27.781-68.835h-28.09v-3.19h28.09Zm-4.424,34.88h-23.665v-3.086h23.665Zm4.424,33.955h-28.09V2984h28.09Zm6.276-16.668-5.967,16.668h-17.081l3.7-3.189a20.179,20.179,0,0,0,8.9-1.7,14.6,14.6,0,0,0,5.607-4.785,37.544,37.544,0,0,0,3.807-7Zm-6.276-57.209v2.984l-12.553-1.132a39.473,39.473,0,0,0,4.785-.309q2.518-.308,4.681-.72a15.358,15.358,0,0,0,3.087-.823m-4.424,30.25v6.791h-5.968v-.2a5.052,5.052,0,0,0,3.5-1.595,4.933,4.933,0,0,0,1.441-3.55v-1.441Zm0,9.467v6.791h-1.029v-1.544a4.939,4.939,0,0,0-1.441-3.55,4.689,4.689,0,0,0-3.5-1.492v-.205Zm4.424-34.984v8.231h-1.029v-1.852a5.927,5.927,0,0,0-1.749-4.27,6.159,6.159,0,0,0-4.322-1.9v-.206Z" transform="translate(5966 -1288.001)" fill="#f3f2ed"/>
      <g id="Group_2674" data-name="Group 2674" transform="translate(5966 -1288.001)">
        <g id="Group_2673" data-name="Group 2673" clip-path="url(#clip-path)">
          <g id="Group_2672" data-name="Group 2672">
            <g id="Group_2671" data-name="Group 2671" clip-path="url(#clip-path)">
              <path id="Path_839" data-name="Path 839" d="M979.576,2918.064c-.069,22.093.108,44.2-.092,66.281-.007.591-.023,1.182-.046,1.765l-2.187-.092c0-.929-.307-1.205-1.512-.852-3.806,1.128-7.658,2.126-11.495,3.185q-7.506,2.083-15.034,4.167l-.591-2.126a2.379,2.379,0,0,0,2.126-2.77c-.077-10.076-.039-20.16-.031-30.244V2929.26c0-4.612-.008-4.681-4.673-4.673-1.612,0-2.057-.522-2.049-2.088.023-4.6-.039-4.6-4.589-4.6-7.613,0-11.458,3.123-12.931,10.5-.146.736-.031,1.6-1.236,1.611-1.166.016-1.143-.767-1.3-1.542-1.5-7.429-5.326-10.567-12.877-10.567a19.961,19.961,0,0,1-2.348-.016,4.87,4.87,0,0,0-.622-.046l-.023-2.118c.99-.015,1.988-.023,2.985-.038,6.385-.085,11.189,2.133,14.159,8.556,3.039-6.676,8.089-8.656,14.6-8.564,12.455.184,24.9.092,37.358.015,1.864-.007,2.409.476,2.409,2.372m-4.19,64.9c1.55-.345,1.942-1.12,1.934-2.639-.069-10.015-.038-20.03-.038-30.037q0-15.126-.016-30.251c0-.7.392-1.6-.621-2.041-2.072-.914-3.737.138-3.753,2.386v.062l-2.156-.023c0-.077-.008-.161-.008-.246-.046-1.327-.038-2.325-1.865-2.3q-10.44.115-20.889.008c-1.949-.023-1.665,1.174-1.726,2.386-.069,1.343.184,2.111,1.826,2.057,3.477-.108,6.961-.031,10.437-.038,3.415,0,6.822-.077,10.23.038h.191l-.038,2.179h-.169c-1.987-.061-2.5.568-2.494,2.51.069,14.98.038,29.959.038,44.939,0,3.906.031,7.812-.015,11.718-.015,1.343.307,1.773,1.727,1.313,2.432-.783,4.911-1.458,7.4-2.019m-11.3-56.028c.008-2.041-.652-2.548-2.525-2.417a44.964,44.964,0,0,1-6.185-.008c-1.911-.13-2.571.453-2.548,2.471.1,9.938.046,19.876.046,29.822v23.428c0,2.418.031,4.835,0,7.245-.015,1.143.422,1.481,1.558,1.274,1.988-.353,2.924-1.1,2.909-3.446-.123-17.466-.062-34.932-.062-52.406,0-.637.015-1.274.015-1.911,0-.729.407-.982,1.082-.99s1.1.207,1.113.944c.016.637.031,1.274.031,1.918v42.6c0,3.269-.015,6.539.008,9.8.007.614-.223,1.366.475,1.742,1.175.637,4.014-1.166,4.022-2.548.015-3.691.007-7.382.007-11.073,0-15.487-.046-30.965.054-46.444" fill="#f3f2ed"/>
              <path id="Path_840" data-name="Path 840" d="M977.251,2986.018l2.187.092c-.56,14.688-6.469,27.4-16.192,38.455-10.038,11.411-22.409,19.584-36.245,25.693a3.487,3.487,0,0,1-3.047.245c-17.55-7.8-32.837-18.441-43.458-34.832a59.439,59.439,0,0,1-9.631-33.068c.031-21.165,0-42.338.016-63.5,0-3.868-.376-3.354,3.461-3.354h1.105v2.126h-.131c-1.35.016-2.241.069-2.233,1.888q.091,30.563.015,61.132a1.684,1.684,0,0,0,1.451,1.934c2.548.652,5.1,1.281,7.6,2.1,1.734.568,2.026-.023,2.011-1.619-.046-9.439-.023-18.886-.023-28.325s-.023-18.886.023-28.333c.007-1.481-.284-2.148-1.98-2.141-4.282.016-4.566-.061-4.612-4.044l2.11-.023c0,1.3.4,1.934,1.995,1.88,3.331-.115,6.677-.038,10.015-.031,3.545,0,7.106-.076,10.652.031,1.642.054,1.9-.714,1.826-2.056-.061-1.213.215-2.41-1.734-2.387q-10.441.1-20.881-.008v-2.126c8.84.016,17.681.062,26.521-.023l.023,2.119c-1.419,0-1.788.859-1.757,2.471.092,4.2,0,4.289-4.259,4.2-1.827-.038-2.433.415-2.425,2.356q.114,30.344.015,60.7v.123l-1.972.054c0-.522-.215-1.128-.215-1.55.077-9.8.046-19.6.054-29.392,0-9.877-.054-19.746.038-29.614.015-1.965-.384-2.855-2.555-2.686a63.079,63.079,0,0,1-6.823.03c-1.3-.038-1.857.277-1.857,1.765q.081,29.078.008,58.162c-.008,1.389.591,1.942,1.35,2.18l-.56,2q-6.216-1.728-12.432-3.469c-1.619-.453-1.6.238-1.519,1.4a58.95,58.95,0,0,0,5.356,20.912c.714,1.566,1.435,1.85,3.055,1.4,10.114-2.863,20.259-5.61,30.389-8.411l.6,2.156q-14.712,4.076-29.423,8.158c-2.548.706-2.594.7-1.182,2.924,10.23,16.123,25.041,26.652,42.139,34.387a2.8,2.8,0,0,0,2.44-.115,101.164,101.164,0,0,0,9.531-4.765c13.1-7.452,24.458-16.791,32.523-29.745.975-1.558.921-2.141-1.013-2.663l.6-2.133c.537.145,1.066.291,1.6.445.868.245,1.267-.092,1.643-.852a56.961,56.961,0,0,0,5.794-21.864c.007-.138.015-.268.015-.391" fill="#f3f2ed"/>
              <path id="Path_841" data-name="Path 841" d="M977.32,2980.323c.008,1.519-.384,2.295-1.934,2.64-2.494.56-4.973,1.235-7.4,2.018-1.42.461-1.742.031-1.727-1.312.046-3.906.015-7.812.015-11.718,0-14.98.031-29.96-.038-44.94-.008-1.941.506-2.571,2.494-2.509h.169c3.937.123,3.96-.031,4-4.06v-.061c.015-2.249,1.681-3.3,3.753-2.387,1.013.445.621,1.343.621,2.041q.035,15.126.016,30.252c0,10.007-.031,20.021.038,30.036" fill="#f3f2ed"/>
              <path id="Path_842" data-name="Path 842" d="M970.736,2920.42l2.156.023c-.038,4.029-.061,4.182-4,4.06l.039-2.18c1.442,0,1.8-.644,1.8-1.9" fill="#f3f2ed"/>
              <path id="Path_843" data-name="Path 843" d="M967.6,3010.812c1.934.522,1.988,1.1,1.013,2.663-8.065,12.954-19.423,22.293-32.523,29.745a101.164,101.164,0,0,1-9.531,4.765,2.8,2.8,0,0,1-2.44.115c-17.1-7.735-31.909-18.264-42.139-34.387-1.412-2.226-1.366-2.218,1.182-2.924q14.712-4.076,29.422-8.158l10.614-2.946c.683-.192,1.373-.353,2.018-.522,2.594.7,5.134,1.381,7.666,2.079,11.573,3.2,23.122,6.454,34.718,9.57" fill="#f3f2ed"/>
              <path id="Path_844" data-name="Path 844" d="M968.2,3008.679l-.6,2.133c-11.595-3.115-23.145-6.369-34.717-9.569-2.533-.7-5.073-1.382-7.667-2.08-.644.169-1.335.33-2.018.522l-10.613,2.947-.6-2.157c2.717-.752,5.411-1.557,8.465-2.44a10.617,10.617,0,0,0-.99-.437l-18.326-5.065.6-2.157c7.421,1.957,14.8,4.029,22.193,6.094a4.856,4.856,0,0,0,2.709-.047c7.321-2.041,14.642-4.1,21.986-6.031l.591,2.125q-9.45,2.613-19.008,5.265c.322.291.368.368.422.384q18.786,5.261,37.572,10.513" fill="#f3f2ed"/>
              <path id="Path_845" data-name="Path 845" d="M901.731,2990.376l-.6,2.156c-2.286-.637-4.581-1.273-6.868-1.91l.56-2.011a5.3,5.3,0,0,0,1.574.169c1.043-.023,1.3-.476,1.3-1.036l1.973-.054a2.346,2.346,0,0,0,2.064,2.686" fill="#f3f2ed"/>
              <path id="Path_846" data-name="Path 846" d="M894.824,2988.611l-.56,2.011c-2.379-.653-4.75-1.313-7.129-1.98l.56-2a13.6,13.6,0,0,0,2.1.268c1.9.284,1.036-1.5,1.043-2.287.062-17.259.046-34.51.046-51.769,0-.637.016-1.274.023-1.918.016-.729.445-.952,1.121-.937s1.074.269,1.074.99c.008.637.023,1.282.023,1.919q0,26.521,0,53.043c0,1.458.514,2.318,1.7,2.663" fill="#f3f2ed"/>
              <path id="Path_847" data-name="Path 847" d="M884.157,2983.309c.015,1.6-.276,2.187-2.011,1.619-2.494-.821-5.049-1.45-7.6-2.1a1.683,1.683,0,0,1-1.45-1.934q.045-30.562-.016-61.132c-.007-1.819.883-1.873,2.233-1.888h.131c1.327,0,2.095.246,2.11,1.942,0,.23.008.445.008.652.046,3.983.33,4.06,4.612,4.044,1.7-.007,1.988.66,1.98,2.141-.046,9.447-.023,18.886-.023,28.333s-.023,18.886.023,28.325" fill="#f3f2ed"/>
              <path id="Path_848" data-name="Path 848" d="M881.548,2915.746v2.126c-1.834-.023-1.819.982-1.865,2.3,0,.092-.007.184-.007.269l-2.111.023c0-.208-.008-.423-.008-.653-.015-1.7-.782-1.941-2.11-1.941v-2.126c2.034-.008,4.067,0,6.1,0" fill="#f3f2ed"/>
            </g>
          </g>
        </g>
      </g>
      <path id="Path_849" data-name="Path 849" d="M956.538,2911.3c-6.257,0-12.515.011-18.772-.008a20.809,20.809,0,0,0-5.9.752c-2.235.648-4.211,1.624-5.334,3.881a1.406,1.406,0,0,1-2.621.061c-1.231-2.507-3.458-3.438-5.917-4.087a22.1,22.1,0,0,0-5.709-.606q-19.2.019-38.4.007c-.64,0-1.279-.012-1.919-.023-.672-.013-1.051-.3-1.057-1.03-.007-.794.345-1.185,1.147-1.177.568.006,1.137-.01,1.706-.01q18.986,0,37.971,0c4.685,0,9.276.356,12.905,3.863.506.488.811.3,1.23-.106,3.085-2.968,7-3.707,11.031-3.73,13.51-.076,27.02-.036,40.531-.016.829,0,2.043-.4,2.052,1.1.01,1.526-1.224,1.1-2.038,1.1-6.968.032-13.936.018-20.9.017" transform="translate(5966 -1288.001)" fill="#f3f2ed"/>
      <path id="Path_850" data-name="Path 850" d="M923.487,2950.036c-.4-.375-.7-.663-1.005-.952-.49-.465-.6-.461-1.063.016a3.657,3.657,0,0,1-1.38,1.017,2.173,2.173,0,0,1-2.375-.687c-.115-.14-.13-.226-.013-.364a2.569,2.569,0,0,0,.478-.937.5.5,0,0,0-.262-.682c-.3-.125-.488.026-.622.316-.959,2.08-4.248,2.911-5.956,1.524-.323-.262-.36-.422-.034-.722.51-.466.973-.989,1.456-1.487.224-.23.478-.461.258-.831s-.513-.234-.808-.1a5.624,5.624,0,0,1-3.435.533,2.884,2.884,0,0,1-2.073-1.6c-.166-.317-.083-.443.212-.553a10.9,10.9,0,0,0,2.445-1.2c.247-.171.518-.332.424-.72-.088-.361-.385-.381-.658-.407a7.912,7.912,0,0,1-1.749-.355,3.456,3.456,0,0,1-2.283-2.961c-.042-.224.012-.3.216-.293.092,0,.183,0,.274,0,2.84,0,5.68.019,8.518,0a5.429,5.429,0,0,1,4.253,1.91c.827.921,1.523,1.949,2.258,2.949a8.1,8.1,0,0,0,1.354,1.517,3.362,3.362,0,0,0,.83.51c.739.311.74.308.74,1.145v3.412" transform="translate(5966 -1288.001)" fill="#f3f2ed"/>
      <path id="Path_851" data-name="Path 851" d="M926.97,2950.037c0-1.445,0-2.748,0-4.05,0-.213.052-.328.261-.369a3.858,3.858,0,0,0,2.172-1.528c.848-1.027,1.544-2.183,2.407-3.2a5.857,5.857,0,0,1,3.37-2.2,15.1,15.1,0,0,1,2.7-.1c2.382-.014,4.763,0,7.144-.014.394,0,.453.118.366.5a3.468,3.468,0,0,1-3.14,3c-.346.061-.7.1-1.043.148a.5.5,0,0,0-.479.384.556.556,0,0,0,.273.613,9.771,9.771,0,0,0,2.517,1.264c.448.154.435.358.227.721a3.17,3.17,0,0,1-3.374,1.531,6.337,6.337,0,0,1-2.109-.613c-.285-.131-.565-.212-.766.132-.188.32-.01.545.2.761.53.54,1.041,1.1,1.586,1.624.262.25.212.381-.035.588a3.359,3.359,0,0,1-3.162.637,6.31,6.31,0,0,1-2.393-1.283,1.648,1.648,0,0,1-.474-.82c-.11-.33-.323-.489-.636-.364-.292.117-.347.386-.258.689a2.247,2.247,0,0,0,.41.865c.2.232.179.373-.035.585a2.132,2.132,0,0,1-3,.169,8.524,8.524,0,0,1-.782-.75.473.473,0,0,0-.763-.032l-1.176,1.113" transform="translate(5966 -1288.001)" fill="#f3f2ed"/>
      <path id="Path_852" data-name="Path 852" d="M917.52,2970.47a4.77,4.77,0,0,1,2.256-3.79,15.408,15.408,0,0,1,4.673-1.914,34.5,34.5,0,0,0,3.462-1.09,5.289,5.289,0,0,0,1.961-1.22,2.42,2.42,0,0,0,.755-2.28,2.19,2.19,0,0,0-1.123-1.353c-.417-.257-.46-.489-.143-.874a11.6,11.6,0,0,0,.723-1.069c.086-.133.16-.224.326-.107a4.809,4.809,0,0,1,2.244,2.894,4.745,4.745,0,0,1-1.3,4.358,7.986,7.986,0,0,1-3.249,1.926c-1.46.578-2.991.9-4.482,1.362a11.609,11.609,0,0,0-2.34.97,2.944,2.944,0,0,0-1.014,4.566c.431.657.431.656-.2,1.132-.287.215-.575.429-.859.649-.127.1-.208.119-.337-.035a6.286,6.286,0,0,1-1.35-4.125" transform="translate(5966 -1288.001)" fill="#f3f2ed"/>
      <path id="Path_853" data-name="Path 853" d="M924.428,2952.27c0-3.647.006-7.295-.008-10.942,0-.422.07-.617.5-.487a1.307,1.307,0,0,0,.455.022c.651-.043.651-.046.651.636q0,10.6.007,21.2c0,.429-.08.664-.511.716-.356.044-.776.4-1.029.189-.218-.179-.063-.705-.063-1.077q-.008-5.129,0-10.258" transform="translate(5966 -1288.001)" fill="#f3f2ed"/>
      <path id="Path_854" data-name="Path 854" d="M926.028,2979.071q0,5.03,0,10.058a8.859,8.859,0,0,1-.053,1.137c-.1.759-.36,1.17-.741,1.174s-.642-.4-.747-1.159a8.477,8.477,0,0,1-.054-1.135c0-6.546.007-13.092-.009-19.638,0-.787.1-1.175.473-1.273s.814-.8,1.066-.371a8.049,8.049,0,0,1,.066,2.2q0,4.5,0,9.005" transform="translate(5966 -1288.001)" fill="#f3f2ed"/>
      <path id="Path_855" data-name="Path 855" d="M925.216,2939.845a2.509,2.509,0,1,1,2.373-2.492,2.44,2.44,0,0,1-2.373,2.492" transform="translate(5966 -1288.001)" fill="#f3f2ed"/>
      <path id="Path_856" data-name="Path 856" d="M932.419,2972.44a5.877,5.877,0,0,1-1.371,3.339c-.113.159-.2.087-.3.01-.436-.328-.867-.665-1.312-.98-.225-.159-.1-.282-.007-.432a4.944,4.944,0,0,0,.827-1.562,2.759,2.759,0,0,0-.931-2.91c-.245-.205-.3-.334-.083-.6a11.439,11.439,0,0,0,.8-1.13c.157-.249.274-.265.5-.078a5.227,5.227,0,0,1,1.881,4.345" transform="translate(5966 -1288.001)" fill="#f3f2ed"/>
      <path id="Path_857" data-name="Path 857" d="M917.7,2960.534a4.121,4.121,0,0,1,1.663-3.239c.868-.682.868-.682,1.472.231.592.893.592.893-.229,1.55a2.061,2.061,0,0,0-.16,3.169c.325.372.264.5-.115.694a8.679,8.679,0,0,0-1.062.669c-.228.162-.374.172-.557-.083a5.086,5.086,0,0,1-1.012-2.991" transform="translate(5966 -1288.001)" fill="#f3f2ed"/>
      <path id="Path_858" data-name="Path 858" d="M923.058,3017.475h-4.166v7.3l2.365.818v1.354h-6.842v-1.354l1.915-.786v-16.4l-1.886-.787v-1.353h12.809v5.067h-1.52l-.7-2.959h-6.137v6.987h4.194l.592-2.046h1.379v6.295h-1.379Z" transform="translate(5966 -1288.001)" fill="#790e01"/>
      <path id="Path_859" data-name="Path 859" d="M935.755,3006.271v1.353l-1.915.787v16.4l1.887.786v1.354h-6.363v-1.354l1.915-.786v-16.4l-1.887-.787v-1.353Z" transform="translate(5966 -1288.001)" fill="#790e01"/>
      <path id="Path_860" data-name="Path 860" d="M916.863,3029.932a4.2,4.2,0,0,1,.948-.108,1.53,1.53,0,0,1,1.168.415,1.5,1.5,0,0,1,.389,1.071,2.235,2.235,0,0,1-.22.968,4.614,4.614,0,0,1-.563.9q-.345.43-1.02,1.168-.308.339-.661.733t-.661.774h2.449l.256-1.045h.574v1.864h-4.048v-.717a5.525,5.525,0,0,1,.513-.8q.318-.42.861-1.066t.85-1.06a5.838,5.838,0,0,0,.523-.82,1.671,1.671,0,0,0,.215-.754.815.815,0,0,0-.267-.681,1.18,1.18,0,0,0-.747-.21c-.117,0-.236,0-.359.015s-.246.026-.369.046l-.379,1.056h-.543v-1.322a4.928,4.928,0,0,1,1.091-.425" transform="translate(5966 -1288.001)" fill="#790e01"/>
      <path id="Path_861" data-name="Path 861" d="M920.721,3031.361a2.173,2.173,0,0,1,.687-1.153,1.964,1.964,0,0,1,1.281-.394,2,2,0,0,1,1.3.394,2.174,2.174,0,0,1,.687,1.153,7.583,7.583,0,0,1,.205,1.927,7.741,7.741,0,0,1-.205,1.952,2.145,2.145,0,0,1-.687,1.152,2.008,2.008,0,0,1-1.3.39,1.968,1.968,0,0,1-1.286-.39,2.158,2.158,0,0,1-.682-1.152,7.741,7.741,0,0,1-.205-1.952,7.583,7.583,0,0,1,.205-1.927m.861,3.6a1.678,1.678,0,0,0,.389.871.982.982,0,0,0,.718.261,1.006,1.006,0,0,0,.737-.261,1.661,1.661,0,0,0,.39-.866,8.882,8.882,0,0,0,.123-1.68,8.447,8.447,0,0,0-.128-1.655,1.674,1.674,0,0,0-.4-.871,1,1,0,0,0-.722-.262.979.979,0,0,0-.718.262,1.667,1.667,0,0,0-.389.865,8.766,8.766,0,0,0-.123,1.661,8.9,8.9,0,0,0,.123,1.675" transform="translate(5966 -1288.001)" fill="#790e01"/>
      <path id="Path_862" data-name="Path 862" d="M926.193,3031.361a2.174,2.174,0,0,1,.687-1.153,1.964,1.964,0,0,1,1.281-.394,2,2,0,0,1,1.3.394,2.173,2.173,0,0,1,.687,1.153,7.583,7.583,0,0,1,.205,1.927,7.741,7.741,0,0,1-.205,1.952,2.144,2.144,0,0,1-.687,1.152,2.008,2.008,0,0,1-1.3.39,1.968,1.968,0,0,1-1.286-.39,2.158,2.158,0,0,1-.682-1.152,7.741,7.741,0,0,1-.205-1.952,7.583,7.583,0,0,1,.205-1.927m.861,3.6a1.677,1.677,0,0,0,.389.871.982.982,0,0,0,.718.261,1.006,1.006,0,0,0,.737-.261,1.662,1.662,0,0,0,.39-.866,8.888,8.888,0,0,0,.123-1.68,8.452,8.452,0,0,0-.128-1.655,1.674,1.674,0,0,0-.4-.871,1,1,0,0,0-.722-.262.979.979,0,0,0-.718.262,1.666,1.666,0,0,0-.389.865,8.761,8.761,0,0,0-.123,1.661,8.894,8.894,0,0,0,.123,1.675" transform="translate(5966 -1288.001)" fill="#790e01"/>
      <path id="Path_863" data-name="Path 863" d="M935.19,3029.937v1.486h-.553l-.215-.666h-1.948v1.875a5.072,5.072,0,0,1,.943-.092,2.361,2.361,0,0,1,1.563.492,1.835,1.835,0,0,1,.589,1.5,2.7,2.7,0,0,1-.241,1.173,1.766,1.766,0,0,1-.707.784,2.187,2.187,0,0,1-1.132.276,3.552,3.552,0,0,1-.984-.138,5.851,5.851,0,0,1-1.086-.456v-1.445h.574l.369,1.159a1.534,1.534,0,0,0,.41.107,4.128,4.128,0,0,0,.481.026,1.479,1.479,0,0,0,.794-.19,1.075,1.075,0,0,0,.436-.512,1.958,1.958,0,0,0,.133-.753,1.141,1.141,0,0,0-.451-1.01,1.952,1.952,0,0,0-1.137-.312,3.342,3.342,0,0,0-.81.1l-.451-.194v-3.208Z" transform="translate(5966 -1288.001)" fill="#790e01"/>
      <path id="Path_864" data-name="Path 864" d="M1010.68,3028.514v2.071h-3.149v-.284h.453a2.144,2.144,0,0,0,1.362-.468,1.924,1.924,0,0,0,.711-1.319Zm1.505-18.188h.282l.568,1.674-1.673,18.585h-1.533Zm-.682,18.642v.142a1.269,1.269,0,0,0,.326.837,1,1,0,0,0,.78.383h.426v.255h-1.73v-1.617Zm.964-18.642,8.172,17.677-.652,2.979-8.059-17.478Zm15.663,0,.228,1.9-7.123,15.861q-.426.965-.653,1.632a7.049,7.049,0,0,0-.311,1.262h-.284l-.4-1.787Zm.34,18.642h.2v1.617h-1.731v-.255h.427a.98.98,0,0,0,.793-.383,1.3,1.3,0,0,0,.312-.837v-.142Zm-.085-18.642,2.44,20.259h-2.213l-1.56-17.2,1.078-3.064Zm1.589,18.188h.6a2.031,2.031,0,0,0,.737,1.319,2.109,2.109,0,0,0,1.334.468h.454v.284h-3.121Z" transform="translate(5966 -1288.001)" fill="#f3f2ed"/>
      <path id="Path_865" data-name="Path 865" d="M1037.493,3012.795h-.085a1.7,1.7,0,0,0-.539-1.263,1.769,1.769,0,0,0-1.277-.525h-.34l-.029-.283h2.27Zm0,15.719v2.071h-2.27v-.284h.369a1.723,1.723,0,0,0,1.263-.524,1.831,1.831,0,0,0,.553-1.263Zm1.759,2.071h-1.844v-19.862h1.844Zm7.661-18.982h-7.746v-.879h7.746Zm-1.22,9.619h-6.526v-.852h6.526Zm1.22,9.363h-7.746v-.879h7.746Zm1.731-4.6-1.646,4.6h-4.71l1.022-.879a5.553,5.553,0,0,0,2.454-.469,4.031,4.031,0,0,0,1.546-1.319,10.405,10.405,0,0,0,1.05-1.929Zm-1.731-15.776v.823l-3.462-.312a11.017,11.017,0,0,0,1.32-.085c.463-.058.894-.123,1.291-.2a4.191,4.191,0,0,0,.851-.227m-1.22,8.342v1.873h-1.646v-.058a1.389,1.389,0,0,0,.965-.439,1.358,1.358,0,0,0,.4-.979v-.4Zm0,2.61v1.873h-.284v-.426a1.361,1.361,0,0,0-.4-.979,1.291,1.291,0,0,0-.965-.411v-.057Zm1.22-9.647v2.27h-.284v-.511a1.633,1.633,0,0,0-.482-1.177,1.7,1.7,0,0,0-1.192-.526v-.056Z" transform="translate(5966 -1288.001)" fill="#f3f2ed"/>
      <path id="Path_866" data-name="Path 866" d="M1053.581,3012.795h-.085a1.7,1.7,0,0,0-.539-1.263,1.773,1.773,0,0,0-1.277-.524h-.34l-.029-.284h2.27Zm0,15.719v2.072h-2.27v-.284h.369a1.722,1.722,0,0,0,1.263-.525,1.827,1.827,0,0,0,.553-1.263Zm1.759,2.072H1053.5v-19.862h1.844Zm5.59-19.862a11.019,11.019,0,0,1,5.32,1.234,8.969,8.969,0,0,1,3.575,3.476,11.172,11.172,0,0,1,0,10.427,9.09,9.09,0,0,1-3.575,3.476,10.923,10.923,0,0,1-5.32,1.249h-6.072l-.028-.851h6.1a7.791,7.791,0,0,0,4.242-1.136,7.669,7.669,0,0,0,2.809-3.177,11.786,11.786,0,0,0,0-9.534,7.639,7.639,0,0,0-2.823-3.178,7.818,7.818,0,0,0-4.228-1.135h-6.384v-.851Z" transform="translate(5966 -1288.001)" fill="#f3f2ed"/>
      <path id="Path_867" data-name="Path 867" d="M1075.912,3012.795h-.085a1.828,1.828,0,0,0-.554-1.263,1.719,1.719,0,0,0-1.262-.525h-.369v-.283h2.27Zm0,15.719v2.071h-2.27v-.284h.369a1.719,1.719,0,0,0,1.262-.524,1.828,1.828,0,0,0,.554-1.263Zm1.759,2.071h-1.844v-19.862h1.844Zm-.085-17.79v-2.071h2.27v.283h-.369a1.721,1.721,0,0,0-1.263.525,1.827,1.827,0,0,0-.553,1.263Zm0,15.719h.085a1.827,1.827,0,0,0,.553,1.263,1.721,1.721,0,0,0,1.263.524h.369v.284h-2.27Z" transform="translate(5966 -1288.001)" fill="#f3f2ed"/>
      <path id="Path_868" data-name="Path 868" d="M1101.107,3022.3l-.341,4.454a8.793,8.793,0,0,1-1.858,2.171,8.579,8.579,0,0,1-2.639,1.5,10.105,10.105,0,0,1-3.475.553,10.843,10.843,0,0,1-5.25-1.3,9.1,9.1,0,0,1-3.589-3.589,12.14,12.14,0,0,1-.014-10.868,9.066,9.066,0,0,1,3.589-3.6,10.969,10.969,0,0,1,5.434-1.292,12.106,12.106,0,0,1,6.724,1.93l.568,4H1100a6.153,6.153,0,0,0-2.553-3.788,7.884,7.884,0,0,0-11.648,3.177,12.712,12.712,0,0,0,0,9.917,7.962,7.962,0,0,0,2.809,3.32,7.766,7.766,0,0,0,4.186,1.248,9.2,9.2,0,0,0,3.731-.751,6.73,6.73,0,0,0,2.88-2.469,10.093,10.093,0,0,0,1.475-4.611Z" transform="translate(5966 -1288.001)" fill="#f3f2ed"/>
      <path id="Path_869" data-name="Path 869" d="M1106.611,3028.514a1.434,1.434,0,0,0-.055.964,1.161,1.161,0,0,0,.468.61,1.2,1.2,0,0,0,.665.213h.257v.284h-5.7v-.284h.255a2.647,2.647,0,0,0,1.347-.411,3.033,3.033,0,0,0,1.15-1.376Zm6.1-18.188.255,1.986-7.123,18.188h-1.7l7.262-17.251c.209-.472.385-.88.526-1.22s.265-.671.369-.993a2.607,2.607,0,0,0,.156-.71Zm4,13.364h-8.881v-.851h8.881Zm-4-13.364,8.4,20.089H1118.7l-6.553-17.393Zm5.277,18.188h2.327a2.834,2.834,0,0,0,1.135,1.376,2.708,2.708,0,0,0,1.361.411h.228v.284h-6.385v-.284h.255a1.276,1.276,0,0,0,.965-.468,1.223,1.223,0,0,0,.114-1.319" transform="translate(5966 -1288.001)" fill="#f3f2ed"/>
      <path id="Path_870" data-name="Path 870" d="M1126.7,3012.795h-.085a1.831,1.831,0,0,0-.553-1.263,1.725,1.725,0,0,0-1.263-.524h-.369v-.284h2.27Zm0,15.719v2.072h-2.27v-.284h.369a1.722,1.722,0,0,0,1.263-.525,1.827,1.827,0,0,0,.553-1.263Zm1.759,2.072h-1.844v-19.862h1.844Zm-.085-17.791v-2.071h2.27v.284h-.369a1.722,1.722,0,0,0-1.262.524,1.828,1.828,0,0,0-.554,1.263Zm7.746,17.791h-7.746v-.879h7.746Zm1.731-4.6-1.646,4.6h-4.71l1.022-.88a5.566,5.566,0,0,0,2.454-.468,4.022,4.022,0,0,0,1.546-1.319,10.351,10.351,0,0,0,1.05-1.93Z" transform="translate(5966 -1288.001)" fill="#f3f2ed"/>
      <path id="Path_871" data-name="Path 871" d="M1149.739,3012.795h-.085a1.828,1.828,0,0,0-.554-1.263,1.719,1.719,0,0,0-1.262-.525h-.369v-.283h2.27Zm0,15.719v2.071h-2.27v-.284h.369a1.719,1.719,0,0,0,1.262-.524,1.829,1.829,0,0,0,.554-1.263Zm1.759,2.071h-1.844v-19.862h1.844Zm3.632-19.861a6.873,6.873,0,0,1,2.312.368,4.582,4.582,0,0,1,2.838,2.738,6.086,6.086,0,0,1,.383,2.228,5.658,5.658,0,0,1-.639,2.61,5.546,5.546,0,0,1-1.73,2.029,4.126,4.126,0,0,1-2.455.78,3.176,3.176,0,0,1,1.05.809,14.912,14.912,0,0,1,.993,1.177q.766,1.107,1.348,1.9t1.177,1.561q.6.766,1.022,1.22a12.2,12.2,0,0,0,1.135,1.106,4.772,4.772,0,0,0,1.234.767,3.77,3.77,0,0,0,1.49.283v.284h-1.561a5.832,5.832,0,0,1-2.256-.4,5.677,5.677,0,0,1-1.6-.979,10.981,10.981,0,0,1-1.106-1.121c-.057-.075-.213-.293-.468-.652s-.559-.79-.908-1.291-.7-1-1.036-1.49-.634-.912-.88-1.262-.388-.554-.425-.611a9.853,9.853,0,0,0-1.192-1.3,2.068,2.068,0,0,0-1.419-.6v-.283q.881.027,1.5,0a8.926,8.926,0,0,0,1.618-.228,3.962,3.962,0,0,0,1.645-.822,3.855,3.855,0,0,0,1.164-1.9,5.719,5.719,0,0,0,.141-.781,5.1,5.1,0,0,0,.029-.921,4.8,4.8,0,0,0-.979-3.079,3.376,3.376,0,0,0-2.54-1.234q-.793-.057-1.631-.043t-1.972.014a1.713,1.713,0,0,0-.071-.241q-.07-.213-.213-.638Zm-3.717,17.79h.085a1.7,1.7,0,0,0,.539,1.263,1.768,1.768,0,0,0,1.277.524h.341v.284h-2.242Z" transform="translate(5966 -1288.001)" fill="#f3f2ed"/>
      <path id="Path_872" data-name="Path 872" d="M1168.1,3012.795h-.085a1.7,1.7,0,0,0-.539-1.263,1.769,1.769,0,0,0-1.277-.525h-.34l-.029-.283h2.27Zm0,15.719v2.071h-2.27v-.284h.369a1.723,1.723,0,0,0,1.263-.524,1.831,1.831,0,0,0,.553-1.263Zm1.759,2.071h-1.844v-19.862h1.844Zm7.661-18.982h-7.746v-.879h7.746Zm-1.22,9.619h-6.526v-.852h6.526Zm1.22,9.363h-7.746v-.879h7.746Zm1.731-4.6-1.646,4.6h-4.71l1.022-.879a5.553,5.553,0,0,0,2.454-.469,4.029,4.029,0,0,0,1.546-1.319,10.4,10.4,0,0,0,1.05-1.929Zm-1.731-15.776v.823l-3.461-.312a11.014,11.014,0,0,0,1.319-.085c.463-.058.894-.123,1.291-.2a4.191,4.191,0,0,0,.851-.227m-1.22,8.342v1.873h-1.646v-.058a1.389,1.389,0,0,0,.965-.439,1.358,1.358,0,0,0,.4-.979v-.4Zm0,2.61v1.873h-.284v-.426a1.361,1.361,0,0,0-.4-.979,1.291,1.291,0,0,0-.965-.411v-.057Zm1.22-9.647v2.27h-.284v-.511a1.633,1.633,0,0,0-.482-1.177,1.7,1.7,0,0,0-1.192-.526v-.056Z" transform="translate(5966 -1288.001)" fill="#f3f2ed"/>
      <path id="Path_873" data-name="Path 873" d="M1187.618,3010.327a9.354,9.354,0,0,1,.979.056c.349.038.69.091,1.021.156s.634.133.908.2a3.192,3.192,0,0,1,.638.213v3.149h-.255a2.64,2.64,0,0,0-.936-2.142,3.431,3.431,0,0,0-2.27-.78,3.387,3.387,0,0,0-2.526.979,3.154,3.154,0,0,0-.964,2.284,4.074,4.074,0,0,0,.241,1.263,3.333,3.333,0,0,0,.894,1.348l5.59,5.163a3.967,3.967,0,0,1,1.134,1.7,5.887,5.887,0,0,1,.284,1.759,5.266,5.266,0,0,1-1.433,3.83,5.148,5.148,0,0,1-3.873,1.476,10.814,10.814,0,0,1-1.6-.142,7.81,7.81,0,0,1-1.787-.5,4.274,4.274,0,0,1-1.433-.922,6.285,6.285,0,0,1-.085-1.135,9.557,9.557,0,0,1,.113-1.433,8.948,8.948,0,0,1,.312-1.376h.256a4.735,4.735,0,0,0,.368,2.526,3.573,3.573,0,0,0,1.49,1.631,4.068,4.068,0,0,0,2.227.5,4.242,4.242,0,0,0,2.682-1.093,3.461,3.461,0,0,0,1.12-2.709,3.787,3.787,0,0,0-.283-1.49,3.233,3.233,0,0,0-.823-1.149l-5.448-5.051a4.435,4.435,0,0,1-1.192-1.745,5.272,5.272,0,0,1-.34-1.773,4.976,4.976,0,0,1,.567-2.3,4.546,4.546,0,0,1,1.689-1.8,5.111,5.111,0,0,1,2.738-.694m3.546.879h-2.156v-.6h2.156Z" transform="translate(5966 -1288.001)" fill="#f3f2ed"/>
      <path id="Path_874" data-name="Path 874" d="M1197.945,3012.795h-.085a1.7,1.7,0,0,0-.539-1.263,1.769,1.769,0,0,0-1.277-.525h-.34l-.029-.283h2.27Zm0,15.719v2.071h-2.27v-.284h.369a1.723,1.723,0,0,0,1.263-.524,1.832,1.832,0,0,0,.553-1.263Zm1.759,2.071h-1.844v-19.862h1.844Zm7.661-18.982h-7.746v-.879h7.746Zm-1.22,9.619h-6.526v-.852h6.526Zm1.22,9.363h-7.746v-.879h7.746Zm1.731-4.6-1.646,4.6h-4.71l1.022-.879a5.552,5.552,0,0,0,2.454-.469,4.029,4.029,0,0,0,1.546-1.319,10.4,10.4,0,0,0,1.05-1.929Zm-1.731-15.776v.823l-3.462-.312a11.017,11.017,0,0,0,1.32-.085c.463-.058.894-.123,1.291-.2a4.194,4.194,0,0,0,.851-.227m-1.22,8.342v1.873H1204.5v-.058a1.391,1.391,0,0,0,.965-.439,1.358,1.358,0,0,0,.4-.979v-.4Zm0,2.61v1.873h-.284v-.426a1.361,1.361,0,0,0-.4-.979,1.292,1.292,0,0,0-.965-.411v-.057Zm1.22-9.647v2.27h-.284v-.511a1.633,1.633,0,0,0-.482-1.177,1.7,1.7,0,0,0-1.192-.526v-.056Z" transform="translate(5966 -1288.001)" fill="#f3f2ed"/>
      <path id="Path_875" data-name="Path 875" d="M1214.43,3028.514a1.441,1.441,0,0,0-.056.964,1.161,1.161,0,0,0,.468.61,1.2,1.2,0,0,0,.666.213h.256v.284h-5.7v-.284h.255a2.648,2.648,0,0,0,1.348-.411,3.031,3.031,0,0,0,1.149-1.376Zm6.1-18.188.255,1.986-7.122,18.188h-1.7l7.263-17.251c.208-.472.383-.88.525-1.22s.265-.671.369-.993a2.607,2.607,0,0,0,.156-.71Zm4,13.364h-8.881v-.851h8.881Zm-4-13.364,8.4,20.089h-2.412l-6.554-17.393Zm5.277,18.188h2.327a2.839,2.839,0,0,0,1.135,1.376,2.714,2.714,0,0,0,1.362.411h.227v.284h-6.384v-.284h.255a1.279,1.279,0,0,0,.965-.468,1.225,1.225,0,0,0,.113-1.319" transform="translate(5966 -1288.001)" fill="#f3f2ed"/>
      <path id="Path_876" data-name="Path 876" d="M1234.519,3012.795h-.085a1.828,1.828,0,0,0-.554-1.263,1.719,1.719,0,0,0-1.262-.525h-.369v-.283h2.27Zm0,15.719v2.071h-2.27v-.284h.369a1.719,1.719,0,0,0,1.262-.524,1.828,1.828,0,0,0,.554-1.263Zm1.759,2.071h-1.844v-19.862h1.844Zm3.632-19.861a6.873,6.873,0,0,1,2.312.368,4.582,4.582,0,0,1,2.838,2.738,6.088,6.088,0,0,1,.383,2.228,5.656,5.656,0,0,1-.639,2.61,5.554,5.554,0,0,1-1.73,2.029,4.126,4.126,0,0,1-2.455.78,3.184,3.184,0,0,1,1.05.809,14.889,14.889,0,0,1,.993,1.177q.766,1.107,1.348,1.9t1.177,1.561q.6.766,1.022,1.22a12.186,12.186,0,0,0,1.135,1.106,4.772,4.772,0,0,0,1.234.767,3.77,3.77,0,0,0,1.49.283v.284h-1.561a5.831,5.831,0,0,1-2.256-.4,5.679,5.679,0,0,1-1.6-.979,10.991,10.991,0,0,1-1.106-1.121c-.057-.075-.213-.293-.468-.652s-.559-.79-.908-1.291-.7-1-1.036-1.49-.634-.912-.88-1.262-.388-.554-.425-.611a9.852,9.852,0,0,0-1.192-1.3,2.068,2.068,0,0,0-1.419-.6v-.283q.881.027,1.5,0a8.928,8.928,0,0,0,1.618-.228,3.96,3.96,0,0,0,1.645-.822,3.856,3.856,0,0,0,1.164-1.9,5.719,5.719,0,0,0,.141-.781,5.091,5.091,0,0,0,.029-.921,4.8,4.8,0,0,0-.979-3.079,3.377,3.377,0,0,0-2.54-1.234q-.794-.057-1.631-.043t-1.972.014a1.724,1.724,0,0,0-.071-.241q-.07-.213-.213-.638Zm-3.717,17.79h.085a1.7,1.7,0,0,0,.539,1.263,1.768,1.768,0,0,0,1.277.524h.34v.284h-2.241Z" transform="translate(5966 -1288.001)" fill="#f3f2ed"/>
      <path id="Path_877" data-name="Path 877" d="M1268.623,3022.3l-.341,4.454a8.793,8.793,0,0,1-1.858,2.171,8.579,8.579,0,0,1-2.639,1.5,10.1,10.1,0,0,1-3.475.553,10.842,10.842,0,0,1-5.25-1.3,9.1,9.1,0,0,1-3.589-3.589,12.141,12.141,0,0,1-.014-10.868,9.066,9.066,0,0,1,3.589-3.6,10.969,10.969,0,0,1,5.434-1.292,12.106,12.106,0,0,1,6.724,1.93l.568,4h-.256a6.153,6.153,0,0,0-2.553-3.788,7.884,7.884,0,0,0-11.648,3.177,12.712,12.712,0,0,0,0,9.917,7.963,7.963,0,0,0,2.809,3.32,7.766,7.766,0,0,0,4.186,1.248,9.2,9.2,0,0,0,3.731-.751,6.729,6.729,0,0,0,2.88-2.469,10.093,10.093,0,0,0,1.475-4.611Z" transform="translate(5966 -1288.001)" fill="#f3f2ed"/>
      <path id="Path_878" data-name="Path 878" d="M1274.014,3012.795h-.085a1.828,1.828,0,0,0-.554-1.263,1.721,1.721,0,0,0-1.262-.525h-.368v-.283h2.269Zm0,15.719v2.071h-2.269v-.284h.368a1.721,1.721,0,0,0,1.262-.524,1.828,1.828,0,0,0,.554-1.263Zm1.759,2.071h-1.844v-19.862h1.844Zm11.86-9.392H1275.49v-.851h12.143Zm-11.945-8.4v-2.071h2.27v.283h-.369a1.721,1.721,0,0,0-1.263.525,1.827,1.827,0,0,0-.553,1.263Zm0,15.719h.085a1.827,1.827,0,0,0,.553,1.263,1.721,1.721,0,0,0,1.263.524h.369v.284h-2.27Zm11.776-15.719h-.086a1.7,1.7,0,0,0-.539-1.263,1.768,1.768,0,0,0-1.276-.525h-.37v-.283h2.271Zm0,15.719v2.071h-2.271v-.284h.37a1.769,1.769,0,0,0,1.276-.524,1.7,1.7,0,0,0,.539-1.263Zm1.758,2.071h-1.844v-19.862h1.844Zm-.085-17.79v-2.071h2.27v.283h-.369a1.723,1.723,0,0,0-1.263.525,1.827,1.827,0,0,0-.553,1.263Zm0,15.719h.085a1.827,1.827,0,0,0,.553,1.263,1.723,1.723,0,0,0,1.263.524h.369v.284h-2.27Z" transform="translate(5966 -1288.001)" fill="#f3f2ed"/>
      <path id="Path_879" data-name="Path 879" d="M1304.288,3028.514a1.441,1.441,0,0,0-.056.964,1.162,1.162,0,0,0,.468.61,1.2,1.2,0,0,0,.666.213h.256v.284h-5.7v-.284h.255a2.648,2.648,0,0,0,1.348-.411,3.031,3.031,0,0,0,1.149-1.376Zm6.1-18.188.255,1.986-7.122,18.188h-1.7l7.263-17.251c.208-.472.383-.88.525-1.22s.265-.671.369-.993a2.607,2.607,0,0,0,.156-.71Zm4,13.364h-8.881v-.851h8.881Zm-4-13.364,8.4,20.089h-2.412l-6.554-17.393Zm5.277,18.188h2.327a2.839,2.839,0,0,0,1.135,1.376,2.714,2.714,0,0,0,1.362.411h.227v.284h-6.384v-.284h.255a1.279,1.279,0,0,0,.965-.468,1.225,1.225,0,0,0,.113-1.319" transform="translate(5966 -1288.001)" fill="#f3f2ed"/>
      <path id="Path_880" data-name="Path 880" d="M1324.036,3028.571v2.015h-2.355v-.284h.539a1.743,1.743,0,0,0,1.731-1.731Zm-.056-18.273,1.248,1.589.029,18.7h-1.306v-16.741a30.234,30.234,0,0,0-.255-3.547Zm0,0,16.485,17.592.255,3.093-16.485-17.564Zm1.277,18.273a1.743,1.743,0,0,0,1.73,1.731h.539v.284h-2.355v-2.015Zm11.888-17.847h2.355v2.015h-.057a1.78,1.78,0,0,0-.525-1.235,1.675,1.675,0,0,0-1.234-.5h-.539Zm3.575,0v16.627q0,.907.057,1.745t.2,1.887h-.256l-1.277-1.5v-18.755Zm2.27,0v.284h-.511a1.69,1.69,0,0,0-1.22.5,1.755,1.755,0,0,0-.539,1.235h-.085v-2.015Z" transform="translate(5966 -1288.001)" fill="#f3f2ed"/>
      <path id="Path_881" data-name="Path 881" d="M1347.955,3012.795h-.085a1.7,1.7,0,0,0-.539-1.263,1.773,1.773,0,0,0-1.277-.524h-.34l-.029-.284h2.27Zm0,15.719v2.072h-2.27v-.284h.369a1.722,1.722,0,0,0,1.263-.525,1.827,1.827,0,0,0,.553-1.263Zm1.759,2.072h-1.844v-19.862h1.844Zm5.59-19.862a11.02,11.02,0,0,1,5.32,1.234,8.969,8.969,0,0,1,3.575,3.476,11.172,11.172,0,0,1,0,10.427,9.09,9.09,0,0,1-3.575,3.476,10.923,10.923,0,0,1-5.32,1.249h-6.072l-.028-.851h6.1a7.791,7.791,0,0,0,4.242-1.136,7.67,7.67,0,0,0,2.809-3.177,11.786,11.786,0,0,0,0-9.534,7.64,7.64,0,0,0-2.823-3.178,7.818,7.818,0,0,0-4.228-1.135h-6.384v-.851Z" transform="translate(5966 -1288.001)" fill="#f3f2ed"/>
      <path id="Path_882" data-name="Path 882" d="M1374.825,3010.185a5.082,5.082,0,0,0,.865.227q.582.114,1.291.2a10.786,10.786,0,0,0,1.305.085l-3.461.313Zm16.428,1.362h-16.428v-.852h16.428Zm-14.471-.085v.085a1.719,1.719,0,0,0-1.191.511,1.616,1.616,0,0,0-.482,1.191v.483l-.284.028v-2.3Zm5.42,17.052v2.072h-2.27v-.284h.369a1.724,1.724,0,0,0,1.263-.525,1.827,1.827,0,0,0,.553-1.263Zm1.759,2.072h-1.844v-19.777h1.844Zm-.085-2.072h.085a1.826,1.826,0,0,0,.553,1.263,1.722,1.722,0,0,0,1.263.525h.369v.284h-2.27Zm7.377-18.329v.823l-3.461-.313a10.667,10.667,0,0,0,1.319-.085q.695-.084,1.291-.2a4.228,4.228,0,0,0,.851-.227m0,1.277v2.3l-.284-.028v-.483a1.6,1.6,0,0,0-.5-1.191,1.741,1.741,0,0,0-1.178-.511v-.085Z" transform="translate(5966 -1288.001)" fill="#f3f2ed"/>
      <path id="Path_883" data-name="Path 883" d="M1395.764,3012.795h-.085a1.828,1.828,0,0,0-.554-1.263,1.719,1.719,0,0,0-1.262-.525h-.369v-.283h2.27Zm0,15.719v2.071h-2.27v-.284h.369a1.719,1.719,0,0,0,1.262-.524,1.828,1.828,0,0,0,.554-1.263Zm1.759,2.071h-1.844v-19.862h1.844Zm3.632-19.861a6.873,6.873,0,0,1,2.312.368,4.582,4.582,0,0,1,2.838,2.738,6.086,6.086,0,0,1,.383,2.228,5.656,5.656,0,0,1-.639,2.61,5.547,5.547,0,0,1-1.731,2.029,4.121,4.121,0,0,1-2.454.78,3.174,3.174,0,0,1,1.05.809,14.889,14.889,0,0,1,.993,1.177q.766,1.107,1.348,1.9t1.178,1.561q.6.766,1.021,1.22a12.186,12.186,0,0,0,1.135,1.106,4.772,4.772,0,0,0,1.234.767,3.77,3.77,0,0,0,1.49.283v.284h-1.561a5.831,5.831,0,0,1-2.256-.4,5.666,5.666,0,0,1-1.6-.979,10.991,10.991,0,0,1-1.106-1.121c-.057-.075-.213-.293-.469-.652s-.558-.79-.907-1.291-.7-1-1.036-1.49-.634-.912-.88-1.262-.388-.554-.425-.611a9.852,9.852,0,0,0-1.192-1.3,2.068,2.068,0,0,0-1.419-.6v-.283q.879.027,1.5,0a8.9,8.9,0,0,0,1.617-.228,3.958,3.958,0,0,0,1.646-.822,3.855,3.855,0,0,0,1.164-1.9,5.719,5.719,0,0,0,.141-.781,5.1,5.1,0,0,0,.029-.921,4.806,4.806,0,0,0-.979-3.079,3.378,3.378,0,0,0-2.539-1.234c-.531-.038-1.074-.053-1.632-.043s-1.216.014-1.972.014a1.724,1.724,0,0,0-.071-.241c-.048-.142-.118-.355-.213-.638Zm-3.717,17.79h.085a1.7,1.7,0,0,0,.539,1.263,1.768,1.768,0,0,0,1.277.524h.34v.284h-2.241Z" transform="translate(5966 -1288.001)" fill="#f3f2ed"/>
      <path id="Path_884" data-name="Path 884" d="M1414.235,3028.514a1.449,1.449,0,0,0-.057.964,1.168,1.168,0,0,0,.469.61,1.2,1.2,0,0,0,.667.213h.255v.284h-5.7v-.284h.255a2.648,2.648,0,0,0,1.348-.411,3.032,3.032,0,0,0,1.149-1.376Zm6.1-18.188.255,1.986-7.122,18.188h-1.7l7.263-17.251c.208-.472.383-.88.526-1.22s.264-.671.368-.993a2.607,2.607,0,0,0,.156-.71Zm4,13.364h-8.881v-.851h8.881Zm-4-13.364,8.4,20.089h-2.412l-6.554-17.393Zm5.277,18.188h2.327a2.84,2.84,0,0,0,1.135,1.376,2.715,2.715,0,0,0,1.362.411h.227v.284h-6.384v-.284h.255a1.276,1.276,0,0,0,.964-.468,1.223,1.223,0,0,0,.114-1.319" transform="translate(5966 -1288.001)" fill="#f3f2ed"/>
      <path id="Path_885" data-name="Path 885" d="M1434.323,3012.795h-.085a1.828,1.828,0,0,0-.554-1.263,1.719,1.719,0,0,0-1.262-.525h-.369v-.283h2.27Zm0,15.719v2.071h-2.27v-.284h.369a1.719,1.719,0,0,0,1.262-.524,1.828,1.828,0,0,0,.554-1.263Zm1.759,2.071h-1.844v-19.862h1.844Zm-.085-17.79v-2.071h2.27v.283h-.369a1.721,1.721,0,0,0-1.263.525,1.827,1.827,0,0,0-.553,1.263Zm0,15.719h.085a1.827,1.827,0,0,0,.553,1.263,1.721,1.721,0,0,0,1.263.524h.369v.284H1436Z" transform="translate(5966 -1288.001)" fill="#f3f2ed"/>
      <path id="Path_886" data-name="Path 886" d="M1443.573,3028.571v2.015h-2.355v-.284h.539a1.745,1.745,0,0,0,1.731-1.731Zm-.057-18.273,1.248,1.589.029,18.7h-1.3v-16.741a30.262,30.262,0,0,0-.256-3.547Zm0,0L1460,3027.89l.255,3.093-16.485-17.564Zm1.277,18.273a1.745,1.745,0,0,0,1.73,1.731h.539v.284h-2.355v-2.015Zm11.888-17.847h2.355v2.015h-.056a1.784,1.784,0,0,0-.525-1.235,1.677,1.677,0,0,0-1.235-.5h-.539Zm3.575,0v16.627q0,.907.057,1.745t.2,1.887h-.256l-1.276-1.5v-18.755Zm2.27,0v.284h-.51a1.69,1.69,0,0,0-1.221.5,1.755,1.755,0,0,0-.539,1.235h-.085v-2.015Z" transform="translate(5966 -1288.001)" fill="#f3f2ed"/>
      <path id="Path_887" data-name="Path 887" d="M1467.492,3012.795h-.085a1.828,1.828,0,0,0-.554-1.263,1.719,1.719,0,0,0-1.262-.525h-.369v-.283h2.27Zm0,15.719v2.071h-2.27v-.284h.369a1.719,1.719,0,0,0,1.262-.524,1.828,1.828,0,0,0,.554-1.263Zm1.759,2.071h-1.844v-19.862h1.844Zm-.085-17.79v-2.071h2.27v.283h-.369a1.722,1.722,0,0,0-1.263.525,1.827,1.827,0,0,0-.553,1.263Zm0,15.719h.085a1.827,1.827,0,0,0,.553,1.263,1.722,1.722,0,0,0,1.263.524h.369v.284h-2.27Z" transform="translate(5966 -1288.001)" fill="#f3f2ed"/>
      <path id="Path_888" data-name="Path 888" d="M1476.742,3028.571v2.015h-2.356v-.284h.54a1.743,1.743,0,0,0,1.73-1.731Zm-.057-18.273,1.248,1.589.029,18.7h-1.306v-16.741a30.208,30.208,0,0,0-.255-3.547Zm0,0,16.485,17.592.255,3.093-16.485-17.564Zm1.277,18.273a1.743,1.743,0,0,0,1.73,1.731h.539v.284h-2.355v-2.015Zm11.888-17.847h2.355v2.015h-.056a1.786,1.786,0,0,0-.526-1.235,1.674,1.674,0,0,0-1.234-.5h-.539Zm3.575,0v16.627q0,.907.057,1.745t.2,1.887h-.256l-1.276-1.5v-18.755Zm2.27,0v.284h-.51a1.691,1.691,0,0,0-1.221.5,1.755,1.755,0,0,0-.539,1.235h-.085v-2.015Z" transform="translate(5966 -1288.001)" fill="#f3f2ed"/>
      <path id="Path_889" data-name="Path 889" d="M1516.521,3022.641v4.682a9.569,9.569,0,0,1-1.759,1.7,9.471,9.471,0,0,1-2.71,1.4,11.525,11.525,0,0,1-3.759.554,10.859,10.859,0,0,1-5.306-1.32,9.2,9.2,0,0,1-3.59-3.6,12,12,0,0,1,0-10.825,9.177,9.177,0,0,1,3.59-3.617,10.645,10.645,0,0,1,5.306-1.291,14.109,14.109,0,0,1,2.809.255,11.25,11.25,0,0,1,2.255.7,12.508,12.508,0,0,1,1.831.979l.567,4h-.256a6.668,6.668,0,0,0-1.4-2.767,6.371,6.371,0,0,0-2.454-1.717,8.886,8.886,0,0,0-3.348-.6,7.484,7.484,0,0,0-4.2,1.192,8.022,8.022,0,0,0-2.837,3.32,12.585,12.585,0,0,0,0,9.931,7.908,7.908,0,0,0,2.837,3.3,7.715,7.715,0,0,0,4.2,1.207,9.5,9.5,0,0,0,2.4-.3,9.6,9.6,0,0,0,2.171-.85,8.348,8.348,0,0,0,1.816-1.32l.028-5.022q0-1.278-1.447-1.277h-.454v-.284h5.561v.284h-.426q-1.474,0-1.418,1.277" transform="translate(5966 -1288.001)" fill="#f3f2ed"/>
      <path id="Path_890" data-name="Path 890" d="M1546.285,3022.3l-.34,4.454a8.8,8.8,0,0,1-1.859,2.171,8.57,8.57,0,0,1-2.639,1.5,10.1,10.1,0,0,1-3.475.553,10.839,10.839,0,0,1-5.25-1.3,9.1,9.1,0,0,1-3.589-3.589,12.14,12.14,0,0,1-.014-10.868,9.066,9.066,0,0,1,3.589-3.6,10.969,10.969,0,0,1,5.434-1.292,12.112,12.112,0,0,1,6.725,1.93l.567,4h-.255a6.158,6.158,0,0,0-2.554-3.788,7.882,7.882,0,0,0-11.647,3.177,12.7,12.7,0,0,0,0,9.917,7.947,7.947,0,0,0,2.809,3.32,7.763,7.763,0,0,0,4.185,1.248,9.2,9.2,0,0,0,3.731-.751,6.721,6.721,0,0,0,2.879-2.469,10.082,10.082,0,0,0,1.476-4.611Z" transform="translate(5966 -1288.001)" fill="#f3f2ed"/>
      <path id="Path_891" data-name="Path 891" d="M1551.676,3012.795h-.085a1.7,1.7,0,0,0-.539-1.263,1.769,1.769,0,0,0-1.277-.525h-.341l-.028-.283h2.27Zm0,15.719v2.071h-2.27v-.284h.369a1.719,1.719,0,0,0,1.262-.524,1.832,1.832,0,0,0,.554-1.263Zm1.759,2.071h-1.844v-19.862h1.844Zm7.661-18.982h-7.746v-.879h7.746Zm-1.22,9.619h-6.526v-.852h6.526Zm1.22,9.363h-7.746v-.879h7.746Zm1.731-4.6-1.646,4.6h-4.71l1.021-.879a5.554,5.554,0,0,0,2.455-.469,4.031,4.031,0,0,0,1.546-1.319,10.405,10.405,0,0,0,1.05-1.929Zm-1.731-15.776v.823l-3.462-.312a11.015,11.015,0,0,0,1.32-.085c.463-.058.894-.123,1.291-.2a4.191,4.191,0,0,0,.851-.227m-1.22,8.342v1.873h-1.646v-.058a1.391,1.391,0,0,0,.965-.439,1.362,1.362,0,0,0,.4-.979v-.4Zm0,2.61v1.873h-.284v-.426a1.366,1.366,0,0,0-.4-.979,1.292,1.292,0,0,0-.965-.411v-.057Zm1.22-9.647v2.27h-.284v-.511a1.633,1.633,0,0,0-.482-1.177,1.7,1.7,0,0,0-1.192-.526v-.056Z" transform="translate(5966 -1288.001)" fill="#f3f2ed"/>
      <path id="Path_892" data-name="Path 892" d="M1567.424,3028.571v2.015h-2.356v-.284h.54a1.743,1.743,0,0,0,1.73-1.731Zm-.057-18.273,1.248,1.589.029,18.7h-1.306v-16.741a30.208,30.208,0,0,0-.255-3.547Zm0,0,16.485,17.592.255,3.093-16.485-17.564Zm1.277,18.273a1.743,1.743,0,0,0,1.73,1.731h.539v.284h-2.355v-2.015Zm11.888-17.847h2.355v2.015h-.056a1.786,1.786,0,0,0-.526-1.235,1.674,1.674,0,0,0-1.234-.5h-.539Zm3.575,0v16.627q0,.907.057,1.745t.2,1.887h-.256l-1.276-1.5v-18.755Zm2.27,0v.284h-.51a1.69,1.69,0,0,0-1.221.5,1.755,1.755,0,0,0-.539,1.235h-.085v-2.015Z" transform="translate(5966 -1288.001)" fill="#f3f2ed"/>
      <path id="Path_893" data-name="Path 893" d="M1588.221,3010.185a5.081,5.081,0,0,0,.865.227q.582.114,1.291.2a10.786,10.786,0,0,0,1.305.085l-3.461.313Zm16.428,1.362h-16.428v-.852h16.428Zm-14.471-.085v.085a1.718,1.718,0,0,0-1.191.511,1.615,1.615,0,0,0-.482,1.191v.483l-.284.028v-2.3Zm5.42,17.052v2.072h-2.27v-.284h.369a1.724,1.724,0,0,0,1.263-.525,1.826,1.826,0,0,0,.553-1.263Zm1.759,2.072h-1.844v-19.777h1.844Zm-.085-2.072h.085a1.827,1.827,0,0,0,.553,1.263,1.722,1.722,0,0,0,1.263.525h.369v.284h-2.27Zm7.377-18.329v.823l-3.461-.313a10.667,10.667,0,0,0,1.319-.085q.695-.084,1.291-.2a4.228,4.228,0,0,0,.851-.227m0,1.277v2.3l-.284-.028v-.483a1.6,1.6,0,0,0-.5-1.191,1.741,1.741,0,0,0-1.178-.511v-.085Z" transform="translate(5966 -1288.001)" fill="#f3f2ed"/>
      <path id="Path_894" data-name="Path 894" d="M1609.161,3012.795h-.086a1.824,1.824,0,0,0-.554-1.263,1.717,1.717,0,0,0-1.261-.525h-.369v-.283h2.27Zm0,15.719v2.071h-2.27v-.284h.369a1.717,1.717,0,0,0,1.261-.524,1.824,1.824,0,0,0,.554-1.263Zm1.758,2.071h-1.844v-19.862h1.844Zm3.633-19.861a6.882,6.882,0,0,1,2.312.368,4.577,4.577,0,0,1,2.837,2.738,6.086,6.086,0,0,1,.383,2.228,5.656,5.656,0,0,1-.639,2.61,5.529,5.529,0,0,1-1.731,2.029,4.121,4.121,0,0,1-2.454.78,3.166,3.166,0,0,1,1.05.809,14.7,14.7,0,0,1,.993,1.177q.766,1.107,1.348,1.9t1.178,1.561q.6.766,1.021,1.22a12.308,12.308,0,0,0,1.135,1.106,4.822,4.822,0,0,0,1.234.767,3.774,3.774,0,0,0,1.49.283v.284h-1.561a5.831,5.831,0,0,1-2.256-.4,5.666,5.666,0,0,1-1.6-.979,10.991,10.991,0,0,1-1.106-1.121c-.057-.075-.213-.293-.469-.652s-.558-.79-.907-1.291-.7-1-1.036-1.49-.634-.912-.88-1.262-.388-.554-.425-.611a9.852,9.852,0,0,0-1.192-1.3,2.068,2.068,0,0,0-1.419-.6v-.283q.881.027,1.5,0a8.892,8.892,0,0,0,1.617-.228,3.958,3.958,0,0,0,1.646-.822,3.848,3.848,0,0,0,1.164-1.9,5.433,5.433,0,0,0,.141-.781,5.015,5.015,0,0,0,.029-.921,4.8,4.8,0,0,0-.979-3.079,3.376,3.376,0,0,0-2.539-1.234c-.531-.038-1.073-.053-1.631-.043s-1.217.014-1.973.014a1.7,1.7,0,0,0-.071-.241c-.048-.142-.117-.355-.213-.638Zm-3.718,17.79h.085a1.7,1.7,0,0,0,.539,1.263,1.771,1.771,0,0,0,1.277.524h.34v.284h-2.241Z" transform="translate(5966 -1288.001)" fill="#f3f2ed"/>
      <path id="Path_895" data-name="Path 895" d="M1627.518,3012.795h-.085a1.7,1.7,0,0,0-.539-1.263,1.769,1.769,0,0,0-1.277-.525h-.341l-.028-.283h2.27Zm0,15.719v2.071h-2.27v-.284h.369a1.719,1.719,0,0,0,1.262-.524,1.833,1.833,0,0,0,.554-1.263Zm1.759,2.071h-1.844v-19.862h1.844Zm7.661-18.982h-7.746v-.879h7.746Zm-1.22,9.619h-6.526v-.852h6.526Zm1.22,9.363h-7.746v-.879h7.746Zm1.731-4.6-1.646,4.6h-4.71l1.021-.879a5.554,5.554,0,0,0,2.455-.469,4.029,4.029,0,0,0,1.546-1.319,10.4,10.4,0,0,0,1.05-1.929Zm-1.731-15.776v.823l-3.462-.312a11.017,11.017,0,0,0,1.32-.085c.463-.058.893-.123,1.291-.2a4.194,4.194,0,0,0,.851-.227m-1.22,8.342v1.873h-1.646v-.058a1.391,1.391,0,0,0,.965-.439,1.362,1.362,0,0,0,.4-.979v-.4Zm0,2.61v1.873h-.284v-.426a1.365,1.365,0,0,0-.4-.979,1.292,1.292,0,0,0-.965-.411v-.057Zm1.22-9.647v2.27h-.284v-.511a1.633,1.633,0,0,0-.482-1.177,1.7,1.7,0,0,0-1.192-.526v-.056Z" transform="translate(5966 -1288.001)" fill="#f3f2ed"/>
    </g>
  </g>
</svg>
