<svg xmlns="http://www.w3.org/2000/svg" xmlns:xlink="http://www.w3.org/1999/xlink" width="30.724" height="27.807" viewBox="0 0 30.724 27.807">
  <defs>
    <clipPath id="clip-path">
      <rect id="Rectangle_1552" data-name="Rectangle 1552" width="30.725" height="27.807" fill="#790e01"/>
    </clipPath>
  </defs>
  <g id="Group_2466" data-name="Group 2466" transform="translate(0)">
    <g id="Group_2465" data-name="Group 2465" transform="translate(0)" clip-path="url(#clip-path)">
      <path id="Path_666" data-name="Path 666" d="M13.819,18.092c-.731.834-1.442,1.646-2.153,2.458q-3.053,3.491-6.1,6.985a.691.691,0,0,1-.585.271c-1.321-.014-2.641-.007-3.962-.007H.609l11.01-12.591L0,.009H.418C3.41.009,6.4.012,9.393,0a.6.6,0,0,1,.544.272q3.192,4.244,6.4,8.477c.024.032.052.06.106.123.326-.37.649-.731.967-1.1q3.25-3.717,6.5-7.438A.861.861,0,0,1,24.64,0c1.29.022,2.581.009,3.872.009h.408L18.626,11.78l12.1,16c-.159.007-.261.016-.364.016q-4.413,0-8.825.006a.527.527,0,0,1-.471-.238q-3.538-4.641-7.086-9.275c-.042-.055-.087-.109-.16-.2M5.5,2.678,6.734,4.288q7.835,10.248,15.677,20.49a.572.572,0,0,0,.391.189c.68.019,1.36.009,2.041.008.083,0,.165-.015.283-.027-.076-.108-.123-.181-.176-.251L14.077,10.316Q11.3,6.643,8.521,2.971c-.085-.112-.207-.277-.315-.28-.876-.023-1.754-.013-2.7-.013" transform="translate(0 0)" fill="#790e01"/>
    </g>
  </g>
</svg>
