<svg xmlns="http://www.w3.org/2000/svg" width="33.124" height="23.15" viewBox="0 0 33.124 23.15">
  <path id="Icon_simple-youtube" data-name="Icon simple-youtube" d="M32.44,9a4.152,4.152,0,0,0-2.883-2.883c-2.582-.692-12.973-.692-12.973-.692S6.219,5.41,3.611,6.116A4.152,4.152,0,0,0,.728,9a43.143,43.143,0,0,0-.721,8.015A43.142,43.142,0,0,0,.728,25a4.152,4.152,0,0,0,2.883,2.883c2.579.693,12.973.693,12.973.693s10.363,0,12.973-.693A4.152,4.152,0,0,0,32.44,25a43.143,43.143,0,0,0,.69-7.985A43.142,43.142,0,0,0,32.44,9ZM13.268,21.972V12.04l8.649,4.973Z" transform="translate(-0.007 -5.424)" fill="#790e01"/>
</svg>
